<?xml version="1.0" encoding="utf-8"?>
<!-- Generator: Adobe Illustrator 18.1.0, SVG Export Plug-In . SVG Version: 6.00 Build 0)  -->
<svg version="1.1" id="Camada_1" xmlns="http://www.w3.org/2000/svg" xmlns:xlink="http://www.w3.org/1999/xlink" x="0px" y="0px"
	 viewBox="0 0 648 768" enable-background="new 0 0 648 768" xml:space="preserve">
<g>
	<path fill="#83D0FF" stroke="#FFFFFF" stroke-width="2" stroke-miterlimit="10" d="M236.7,199.7V58.2C205.8,57.4,181,32.1,181,1v0
		H40.5v0C40.5,109.9,128.1,198.4,236.7,199.7z"/>
	<rect x="236.2" y="58.2" fill="#7BC7F6" stroke="#FFFFFF" stroke-width="2" stroke-miterlimit="10" width="174.5" height="141.6"/>
	
		<rect x="236.2" y="568.3" fill="#4C91C2" stroke="#FFFFFF" stroke-width="2" stroke-miterlimit="10" width="174.5" height="141.6"/>
	
		<rect x="236.2" y="312.2" fill="#64ACDC" stroke="#FFFFFF" stroke-width="2" stroke-miterlimit="10" width="174.5" height="141.6"/>
	<path fill="#73BEEE" stroke="#FFFFFF" stroke-width="2" stroke-miterlimit="10" d="M466.9,256h140.5c0-0.4,0-0.7,0-1.1v0h0
		C606.3,147,519.1,59.8,411.2,58.4l0-0.2h-1.5v141.6C441,199.9,466.4,224.9,466.9,256z"/>
	<path fill="#6CB5E5" stroke="#FFFFFF" stroke-width="2" stroke-miterlimit="10" d="M409.7,312.2v141.6h1.5l0-0.2
		c107.9-1.3,195-88.6,196.2-196.5h0v0c0-0.4,0-0.7,0-1.1H466.9C466.4,287.1,441,312.2,409.7,312.2z"/>
	<path fill="#5CA3D3" stroke="#FFFFFF" stroke-width="2" stroke-miterlimit="10" d="M236.7,453.9V312.4
		C128.2,313.7,40.6,402,40.5,510.9h0v0.1H181C181,479.9,205.8,454.7,236.7,453.9z"/>
	<g>
		<path fill="#549ACB" stroke="#FFFFFF" stroke-width="2" stroke-miterlimit="10" d="M40.5,511.1c0.1,108.8,87.7,197.2,196.2,198.5
			V568.1C205.8,567.3,181,542,181,511L40.5,511.1L40.5,511.1L40.5,511.1z"/>
	</g>
	<path fill="#4588B9" stroke="#FFFFFF" stroke-width="2" stroke-miterlimit="10" d="M411.2,568.3v141.5
		c30.9,0.8,55.7,26.1,55.7,57.2v0h140.5v0C607.5,658.1,519.8,569.6,411.2,568.3z"/>
</g>
</svg>
