<?xml version="1.0" encoding="utf-8"?>
<!-- Generator: Adobe Illustrator 18.1.0, SVG Export Plug-In . SVG Version: 6.00 Build 0)  -->
<svg version="1.1" id="Camada_1" xmlns="http://www.w3.org/2000/svg" xmlns:xlink="http://www.w3.org/1999/xlink" x="0px" y="0px"
	 viewBox="0 0 572 976" enable-background="new 0 0 572 976" xml:space="preserve">
	<style>.a{fill:#951D29;}.b{fill:#FFF; text-transform:uppercase}.c{fill:#464E57;}.d{fill:#B7B8BA;}.e{fill:#2E3640;}.f{fill:#FFF;opacity:0.4;}.g{fill:none;}.h{fill:#3576A8;}.i{fill:#5686AA;}.j{fill:#D3EBEB;}.k{fill:#D45650;}.l{fill:#D3EBEB;opacity:0.3;}.m{fill:#FFEADE;}.n{fill:#F1F5F9;}.o{opacity:0.6;}.p{clip-path:url(#SVGID_2_);}.q{fill:#003454;}.r{clip-path:url(#SVGID_4_);}.s{fill:none;stroke-linejoin:round;stroke-width:1;stroke:#464E57;}.t{fill:#CBA520;}.u{fill:none;stroke-width:0.7;stroke:#FFF;}.v{fill:#261D1B;}</style>

	<rect x="471.4" y="145" transform="matrix(0.9629 -0.2699 0.2699 0.9629 -29.58 140.315)" width="47.8" height="65.4" class="a"/>
	<rect x="473.5" y="147.1" transform="matrix(0.9629 -0.2699 0.2699 0.9629 -29.4961 140.2785)" width="43.5" height="60.6" class="b"/>
	<path d="M495.3 143.7l-7.1 2c0.2-0.4 0.2-0.8 0.2-1.3 -0.2-1.4-1.4-2.4-2.8-2.2 -1.4 0.2-2.4 1.4-2.2 2.8 0.1 0.7 0.5 1.3 1 1.7l-6.7 1.9 1.4 5 17.6-4.9L495.3 143.7zM485.7 143.2c0.8-0.1 1.6 0.5 1.7 1.3 0.1 0.8-0.5 1.6-1.3 1.7 -0.8 0.1-1.6-0.5-1.7-1.3C484.3 144.1 484.9 143.3 485.7 143.2z" class="c"/>
	<path d="M506.1 158c0.1 0.4 0.1 0.8-0.1 0.8l-15.8 4.6c-0.2 0.1-0.4-0.2-0.5-0.6l0 0c-0.1-0.4-0.1-0.8 0.1-0.8l15.8-4.6C505.7 157.3 506 157.6 506.1 158L506.1 158z" class="d"/>
	<path d="M506.7 160.3c0.1 0.4 0 0.8-0.2 0.9l-18.5 5.4c-0.2 0.1-0.5-0.2-0.6-0.6l0 0c-0.1-0.4 0-0.8 0.2-0.9l18.5-5.4C506.4 159.6 506.6 159.9 506.7 160.3L506.7 160.3z" class="d"/>
	<path d="M515.3 189.9c0.1 0.4 0 0.8-0.2 0.8l-18.5 5.4c-0.2 0.1-0.5-0.2-0.6-0.6l0 0c-0.1-0.4 0-0.8 0.2-0.8l18.5-5.4C515 189.3 515.2 189.5 515.3 189.9L515.3 189.9z" class="d"/>
	<path d="M516 192.4c0.1 0.4 0 0.8-0.2 0.8l-18.5 5.4c-0.2 0.1-0.5-0.2-0.6-0.6l0 0c-0.1-0.4 0-0.8 0.2-0.8l18.5-5.4C515.7 191.7 515.9 192 516 192.4L516 192.4z" class="d"/>
	<path d="M510.8 174.4c0.1 0.3 0 0.6-0.2 0.7l-18.5 5.4c-0.2 0.1-0.5-0.2-0.5-0.5l0 0c-0.1-0.3 0-0.6 0.2-0.7l18.5-5.4C510.5 173.8 510.7 174 510.8 174.4L510.8 174.4z" class="d"/>
	<path d="M511.5 176.6c0.1 0.3 0 0.6-0.2 0.7l-16 4.6c-0.2 0.1-0.4-0.2-0.5-0.5l0 0c-0.1-0.3 0-0.6 0.2-0.7l16-4.6C511.1 176 511.4 176.2 511.5 176.6L511.5 176.6z" class="d"/>
	<path d="M510.1 172c0.1 0.3 0 0.6-0.1 0.7l-15.9 4.6c-0.2 0.1-0.4-0.2-0.5-0.5l0 0c-0.1-0.3 0-0.6 0.1-0.7l15.9-4.6C509.8 171.4 510 171.7 510.1 172L510.1 172z" class="d"/>
	<path d="M484.6 161.7l-1.4-0.8c-0.1-0.1-0.3 0-0.4 0.1l-3.1 5.4 -2.8-1.5c-0.1-0.1-0.3 0-0.4 0.1l-0.8 1.4c-0.1 0.1 0 0.3 0.1 0.4l4.5 2.4c0.1 0.1 0.3 0 0.4-0.1l0.6-1c0 0 0 0 0 0l0.1-0.1 0.1-0.2c0 0 0 0 0 0l3.2-5.6C484.7 162 484.7 161.8 484.6 161.7z" class="e"/>
	<path d="M489.3 178.2l-1.4-0.8c-0.1-0.1-0.3 0-0.4 0.1l-3.1 5.4 -2.8-1.5c-0.1-0.1-0.3 0-0.4 0.1l-0.8 1.4c-0.1 0.1 0 0.3 0.1 0.4l4.5 2.4c0.1 0.1 0.3 0 0.4-0.1l0.6-1c0 0 0 0 0 0l0.1-0.1 0.1-0.2c0 0 0 0 0 0l3.2-5.6C489.5 178.4 489.5 178.3 489.3 178.2z" class="e"/>
	<path d="M493.9 194l-1.4-0.8c-0.1-0.1-0.3 0-0.4 0.1l-3.1 5.4 -2.8-1.5c-0.1-0.1-0.3 0-0.4 0.1l-0.8 1.4c-0.1 0.1 0 0.3 0.1 0.4l4.5 2.4c0.1 0.1 0.3 0 0.4-0.1l0.6-1c0 0 0 0 0 0l0.1-0.1 0.1-0.2c0 0 0 0 0 0l3.2-5.6C494.1 194.2 494 194.1 493.9 194z" class="e"/>
	<path d="M541.8 184.1l-21.9 19.2c-0.4 0.4-0.7 0.8-1 1.3l-4.8 9.4c-0.2 0.4-0.2 0.9 0.1 1.3 0.3 0.3 0.7 0.6 1.5 0.1 0.3-0.2 0.5-0.6 0.7-0.9l3.4-8.4c0.3-0.7 0.7-1.3 1.3-1.7l22.2-18L541.8 184.1z" class="e"/>
	<path d="M506.2 205.9l26.9-11.2c0.5-0.2 1-0.3 1.6-0.3l10.5-0.2c0.5 0 0.9 0.2 1.1 0.7 0.2 0.4 0.2 0.9-0.6 1.3 -0.3 0.2-0.8 0.2-1.1 0.2l-9-0.7c-0.7 0-1.5 0.1-2.1 0.4l-25.9 12.1L506.2 205.9z" class="e"/>
	<path d="M542.8 187.7c0-0.4 0.8-0.9 0.8-1.2 0-0.7-1.2-1.9-1.6-2.2 -0.7-0.4-0.8 0.7-3.3 1.1 -7 1.1-13 7.9-13 7.9 -0.7 0.1-1.5 0.5-2.3 1 -0.8 0.5-1.5 1.1-1.9 1.6 0 0-8.9 2.2-13 7.9 -1.5 2.1-2.6 1.7-2.5 2.4 0.1 0.5 0.6 2.1 1.2 2.4 0.3 0.2 1.2-0.4 1.5-0.2 1.9 1.2 3.2 5.3 8.1 4.1 4.9-1.2 8.8-5.4 8.2-9.3 -0.6-3.1-2.1-5.4-0.3-6.5 0.1 0 0.1-0.1 0.2-0.1 0.1 0 0.1-0.1 0.2-0.1 1.8-1.1 3.2 1.3 5.7 3.2 3.2 2.3 8.7 0.7 12-3.1C546 192.9 543 189.9 542.8 187.7zM520 209.9c-0.5 0.3-1 0.6-1.5 0.8 -0.5 0.2-0.9 0.4-1.4 0.6 -0.2 0.1-0.4 0.1-0.7 0.2 -0.8 0.2-1.6 0.2-2.4 0 -0.5-0.1-0.9-0.4-1.3-0.7 -0.8-0.6-1.5-1.5-2-2.3 -0.7-1.2-1.2-2.2-0.9-3.5 0.2-1.2 1.1-2.1 2.1-3 0.7-0.6 1.5-1.1 2.3-1.6 0.4-0.2 0.8-0.4 1.2-0.6 0.2-0.1 0.4-0.2 0.6-0.3 0.4-0.2 0.8-0.4 1.3-0.5 1.7-0.6 3.5-0.9 4.7-0.2 0.5 0.3 1.1 1.8 1.3 2.4C524.6 204.1 523.4 207.8 520 209.9zM538.7 198.5c-0.6 0.3-1.2 0.6-1.7 0.8 -0.5 0.2-0.9 0.3-1.4 0.3 -0.2 0-0.4 0-0.6 0.1 -1.3 0.1-2.6-0.2-3.7-0.8 -0.7-0.4-1.4-0.9-1.9-1.6 -0.4-0.5-1.5-1.7-1.5-2.3 0-1.5 1.2-3.1 2.7-4.4 0.8-0.7 1.6-1.2 2.4-1.7 0.3-0.2 0.7-0.4 1-0.6 0.2-0.1 0.4-0.2 0.6-0.3 0.4-0.2 0.9-0.4 1.3-0.6 1.1-0.4 2.2-0.6 3.2-0.3 1.3 0.4 2 1.3 2.7 2.4 0.7 1.2 1.4 2.9 1.1 4.3C542.5 195.8 540.7 197.3 538.7 198.5z" class="e"/>
	<path d="M522 198.6c-2-1.1-5.4 0.2-7.8 1.7 -2 1.2-4 2.7-4.4 4.6 -0.3 1.3 0.2 2.3 0.9 3.5 0.7 1.2 2 2.6 3.3 3 1.9 0.6 4-0.3 6-1.5 3.4-2.1 4.6-5.8 3.3-8.9C523 200.4 522.5 198.9 522 198.6z" class="f"/>
	<path d="M541.7 189.5c-0.7-1.2-1.4-2-2.7-2.4 -1.9-0.6-4.1 0.6-6.1 1.8 -2.4 1.5-5.1 3.8-5.1 6.1 0 0.6 1.1 1.8 1.5 2.3 2.2 2.6 6 3.2 9.4 1.2 2-1.2 3.8-2.7 4.1-4.6C543.1 192.5 542.5 190.7 541.7 189.5z" class="f"/>
	<path d="M553.5 159.6c0 0.9-0.1 1.8-0.2 2.6 -1.3 8.8-8.8 15.5-18 15.5 -0.3 0-0.5 0-0.8 0 -9.7-0.4-17.4-8.4-17.4-18.2 0-10 8.1-18.2 18.2-18.2C545.4 141.4 553.5 149.6 553.5 159.6z" class="d"/>
	<path d="M535.3 140.9c-10.3 0-18.7 8.4-18.7 18.7 0 10.1 7.9 18.3 17.9 18.7 0.2 0 0.4 0 0.6 0 0.1 0 0.1 0 0.2 0 9.1 0 17-6.7 18.4-15.7 0-0.1 0-0.2 0.1-0.3 0.1-0.9 0.2-1.8 0.2-2.7C554 149.3 545.7 140.9 535.3 140.9zM552.8 162.2c-1.3 8.6-8.8 15.1-17.5 15.1 -0.3 0-0.5 0-0.8 0 -0.2 0-0.4 0-0.5 0 -9.2-0.7-16.4-8.3-16.4-17.6 0-9.7 7.9-17.7 17.7-17.7 9.7 0 17.7 7.9 17.7 17.7 0 0.7 0 1.4-0.1 2.1C552.9 161.9 552.8 162 552.8 162.2z" class="b"/>
	<path d="M518.6 161.1h6.3c0 0 0 0 0 0v-2.6c0-0.1-0.1-0.2-0.2-0.2h-6c-0.8 0-1.4 0.6-1.4 1.4l0 0C517.2 160.4 517.8 161.1 518.6 161.1z" class="b"/>
	<path d="M546.1 157.8c1.2 7.5-5.1 13.8-12.6 12.6 -4.5-0.7-8.2-4.4-8.9-8.9 -1.2-7.5 5.1-13.8 12.6-12.6C541.7 149.6 545.3 153.3 546.1 157.8z" class="b"/>
	<path d="M544.3 159.6c0 5-4 9-9 9 -2.8 0-5.3-1.3-7-3.3 -1.3-1.5-2-3.5-2-5.7 0-5 4-9 9-9 3.5 0 6.5 2 8 4.9C544 156.8 544.3 158.2 544.3 159.6z" class="e"/>
	<path d="M544.3 159.6c0 5-4 9-9 9 -2.8 0-5.3-1.3-7-3.3 -0.6-1.2-1-2.6-1-4.1 0-5 4-9 9-9 2.8 0 5.3 1.3 7 3.3C544 156.8 544.3 158.2 544.3 159.6z" class="c"/>
	<path d="M468.9 189.3l26 28.4c0.2 0.2 0.4 0.2 0.6 0l1.6-1.5c0.2-0.2 0.2-0.4 0-0.6l-26-28.4c0 0 0 0-0.1-0.1L468.9 189.3C468.9 189.3 468.9 189.3 468.9 189.3z" class="e"/>
	<path d="M471.1 187.2c0 0-3.6-1.9-3.7-1.8 -0.1 0.1 1.5 3.9 1.5 3.9L471.1 187.2z" fill="#EAC78E"/>
	<path d="M468.7 186c0 0-1.3-0.7-1.3-0.6 -0.1 0.1 0.5 1.4 0.5 1.4L468.7 186z" fill="#282928"/>
	<rect x="397.8" y="104" width="125.5" height="41.9" class="g"/>
	<text transform="matrix(1 0 0 1 397.8171 114.1584)"><tspan x="0" y="0" font-family="'OpenSans-Light'" font-size="13.3098" letter-spacing="1" class="b">  Pesquisa </tspan><tspan x="0" y="16" font-family="'OpenSans-Extrabold'" font-size="13.3098" letter-spacing="1" class="b">  básica</tspan></text><path d="M323 391.6c-10.2 2.5-15.3 13.9-10.3 23.2 3.4 6.3 10.8 9.6 17.8 7.9 10.2-2.5 15.3-13.9 10.3-23.2C337.4 393.2 329.9 389.9 323 391.6z" class="b"/>
	<path d="M340.2 390.2c-9.4-7.5-23-5.9-30.5 3.5 -6.6 8.2-6.1 19.8 0.4 27.5l-4.9 6.2 -1.1-0.8c-0.3-0.2-0.7-0.2-1 0.2l0 0 0 0 -12.8 16.1c-2.9 3.6-3 8.2-0.4 10.4 2.7 2.1 7.1 0.9 10-2.7l11.3-14.2c0 0 0 0 0 0l1.6-2c0.3-0.3 0.2-0.8-0.1-1l-1.3-1.1 4.8-6.1c9.1 5 20.7 2.9 27.4-5.5C351.2 411.3 349.6 397.6 340.2 390.2zM339.2 417.1c-5.5 6.9-15.6 8.1-22.5 2.6 -5.4-4.3-7.3-11.4-5.2-17.5 0.6-1.7 1.5-3.4 2.7-4.9 5.5-6.9 15.6-8.1 22.5-2.6 3.4 2.7 5.4 6.5 5.9 10.5C343.1 409.3 342 413.6 339.2 417.1z" fill="#5B6375"/>
	<path d="M314.3 397.1c-1.2 1.5-2.1 3.1-2.7 4.8l0.1 0c18.8-5.6 30.7 2.8 31 3.1 -0.5-4-2.5-7.8-5.9-10.5C329.8 389.1 319.8 390.2 314.3 397.1z" style="fill:#D3EBEB;opacity:0.7"/>
	<polygon points="317.2 398.9 317 399.9 316.8 400.9 316.7 401.9 316.8 402.9 316.9 404 317 405 317.3 406 317.5 406.9 317.9 407.7 318.3 408.5 318.7 409.2 319.1 410 319.6 410.7 320.1 411.5 320.7 412.1 321.3 412.8 321.3 412.9 321.4 413 321.4 413.1 321.5 413.2 321.5 413.3 321.6 413.5 321.6 413.6 321.7 413.7 321.6 413.7 321.5 413.7 321.4 413.7 321.2 413.7 321.1 413.7 321 413.7 320.9 413.6 320.8 413.6 320.6 413.8 320.4 413.9 320.4 414.2 320.3 414.4 320.2 414.7 320.2 414.9 320.1 415.2 320.1 415.4 320.1 415.5 320 415.5 320 415.6 320 415.7 320 415.8 320 415.8 320 415.9 320.1 416 321.3 416.1 322.6 416.3 323.9 416.5 325.1 416.8 326.3 417.1 327.5 417.5 328.6 417.9 329.8 418.4 330.2 418.6 330.6 418.8 331 419.1 331.5 419.3 331.9 419.6 332.3 419.9 332.6 420.2 333 420.6 333.5 420.6 333.5 420.3 333.4 420 333.4 419.7 333.2 419.5 333.1 419.2 333 419 332.8 418.8 332.6 418.5 332.4 418.2 332.1 417.9 331.9 417.6 331.6 417.3 331.3 417 331 416.8 330.7 416.5 330.3 416.3 330.4 416 330.4 415.8 330.4 415.5 330.4 415.3 330.4 415.1 330.5 414.8 330.6 414.6 330.6 414.4 331.1 414.5 331.6 414.6 332.1 414.7 332.5 414.8 333 414.8 333.5 414.7 334 414.5 334.4 414.2 334.4 414.1 334.5 414 334.6 414 334.6 413.9 334.7 413.8 334.7 413.7 334.8 413.6 334.8 413.5 334.7 413.2 334.6 413 334.5 412.7 334.4 412.5 334.3 412.2 334.3 412 334.4 411.7 334.5 411.5 334.6 411.4 334.8 411.3 334.9 411.3 335 411.2 335.1 411.1 335.1 411 335.2 410.9 335.1 410.8 335.1 410.7 335 410.6 334.9 410.5 334.9 410.5 334.8 410.4 334.7 410.3 334.7 410.3 334.6 410.2 334.7 410.1 334.8 410.1 335 410 335.1 409.9 335.2 409.8 335.3 409.7 335.3 409.6 335.3 409.4 335.2 409.3 335.2 409.2 335.1 409.1 335 409 334.9 408.8 334.9 408.7 334.9 408.6 334.9 408.5 335.1 408.4 335.3 408.4 335.5 408.3 335.7 408.3 335.9 408.2 336.1 408.2 336.3 408 336.4 407.9 336.4 407.6 336.2 407.2 335.9 406.8 335.7 406.4 335.4 406.1 335.2 405.7 334.9 405.3 334.6 404.9 334.2 404.6 334.3 404.5 334.4 404.4 334.4 404.3 334.5 404.3 334.6 404.2 334.7 404.1 334.8 404 334.8 403.9 334.9 403.8 334.8 403.7 334.8 403.7 334.8 403.6 334.7 403.5 334.7 403.4 334.7 403.3 334.6 403.3 334.6 403 334.6 402.7 334.7 402.4 334.7 402.1 334.7 401.8 334.7 401.4 334.8 401.1 334.8 400.9 335 400.7 335.2 400.5 335.3 400.3 335.4 400.1 335.5 399.9 335.6 399.7 335.6 399.4 335.6 399.2 335.4 398.5 335.1 397.9 334.7 397.4 334.2 396.9 333.7 396.5 333.2 396.1 332.6 395.7 332.1 395.3 331.4 395 330.7 394.7 330 394.4 329.2 394.2 328.5 394 327.7 393.8 327 393.7 326.2 393.6 326.1 393.6 326 393.6 325.9 393.6 325.8 393.5 325.8 393.5 325.7 393.5 325.6 393.5 325.5 393.5 324.6 393.6 323.6 393.7 322.8 393.9 321.9 394.3 321.1 394.6 320.3 395.1 319.6 395.6 318.9 396.2 318.6 396.5 318.3 396.8 318.1 397.2 317.9 397.5 317.7 397.8 317.5 398.2 317.3 398.6 317.2 398.9 " class="h"/>
	<polygon points="322.9 395.9 322.4 396 321.8 396.1 321.3 396.4 320.8 396.7 320.3 397 319.9 397.5 319.5 397.9 319.1 398.5 318.9 399 318.6 399.6 318.4 400.2 318.3 400.9 318.2 401.5 318.3 402.1 318.4 402.7 318.7 403.4 319 403.9 319.3 404.4 319.7 404.8 320.1 405.2 320.6 405.6 321.2 405.8 321.7 406 322.3 406.2 323.1 406.3 324 406.4 324.9 406.5 325.8 406.4 326.7 406.4 327.6 406.2 328.4 406 329.3 405.8 329.9 405.5 330.5 405.3 331.1 404.9 331.6 404.5 332.1 404 332.6 403.5 332.9 402.9 333.1 402.3 333.3 401.8 333.4 401.2 333.4 400.6 333.4 400.1 333.3 399.5 333.1 399 332.8 398.5 332.5 398.1 332.2 397.7 331.8 397.4 331.4 397.2 331 397 330.6 396.8 330.2 396.7 329.8 396.5 329.4 396.3 328.9 396.2 328.4 396 327.9 395.9 327.4 395.8 326.9 395.7 326.4 395.7 325.8 395.6 325.3 395.6 325 395.6 324.7 395.7 324.4 395.7 324.1 395.7 323.8 395.7 323.5 395.7 323.2 395.8 322.9 395.9 " class="i"/>
	<path d="M326.8 399.7l-0.5 0c-0.1-0.3-0.2-0.5-0.3-0.7l0 0 0.3-0.3c0.1-0.1 0.1-0.2 0-0.3l-0.6-0.5c-0.1-0.1-0.2-0.1-0.3 0l-0.3 0.3c-0.2-0.1-0.5-0.2-0.8-0.3l0 0 0-0.5c0-0.1-0.1-0.1-0.2-0.1l-0.8 0c-0.1 0-0.2 0-0.2 0.2l0 0.5c-0.3 0.1-0.5 0.2-0.7 0.3l0 0 -0.3-0.3c-0.1-0.1-0.2-0.1-0.3 0l-0.5 0.6c-0.1 0.1-0.1 0.2 0 0.3l0.3 0.3c-0.1 0.2-0.2 0.5-0.3 0.8l0 0 -0.5 0c-0.1 0-0.2 0-0.2 0.1l0 0.8c0 0.1 0.1 0.2 0.2 0.2l0.5 0c0.1 0.3 0.2 0.5 0.3 0.7l0 0 -0.3 0.3c-0.1 0.1-0.1 0.2 0 0.3l0.6 0.5c0.1 0.1 0.2 0.1 0.3 0l0.3-0.3c0.2 0.1 0.5 0.2 0.7 0.3l0 0 0 0.5c0 0.1 0.1 0.2 0.2 0.2l0.8 0c0.1 0 0.1-0.1 0.1-0.2l0-0.5c0.3-0.1 0.5-0.2 0.7-0.3l0 0 0.3 0.3c0.1 0.1 0.2 0.1 0.3 0l0.5-0.6c0.1-0.1 0.1-0.2 0-0.3l-0.3-0.3c0.1-0.2 0.2-0.5 0.3-0.7l0 0 0.5 0c0.1 0 0.1-0.1 0.1-0.2l0-0.8C326.9 399.8 326.9 399.7 326.8 399.7zM323.5 401.5C323.5 401.5 323.5 401.5 323.5 401.5c-0.1 0-0.1 0-0.1-0.1 0 0 0 0 0 0 0 0 0 0 0 0 0 0 0 0 0 0 0 0-0.1-0.1-0.1-0.1 0 0-0.1-0.1-0.1-0.1 0 0 0 0 0-0.1 0-0.1-0.1-0.1-0.1-0.2 -0.1-0.1-0.1-0.3-0.1-0.4 0-0.3 0.1-0.6 0.3-0.9 0 0 0 0 0.1-0.1 0 0 0 0 0 0 0 0 0 0 0 0 0 0 0.1-0.1 0.1-0.1 0 0 0 0 0 0 0.1-0.1 0.3-0.1 0.4-0.1 0.2 0 0.4 0 0.5 0.1 0 0 0 0 0.1 0 0 0 0 0 0.1 0 0 0 0 0 0 0 0 0 0 0 0 0 0 0 0 0 0 0 0 0 0 0 0.1 0.1 0 0 0 0 0 0 0 0 0.1 0.1 0.1 0.1 0 0 0 0 0 0s0 0 0 0c0 0 0 0 0 0.1 0.1 0.1 0.1 0.3 0.1 0.5 0 0.1 0 0.2 0 0.3 0 0 0 0 0 0.1 0 0 0 0.1 0 0.1 0 0 0 0 0 0.1 0 0 0 0 0 0 0 0 0 0 0 0.1 0 0 0 0 0 0 0 0 0 0 0 0 0 0 0 0 0 0 0 0 0 0 0 0 0 0 0 0 0 0 0 0 0 0 0 0 0 0 0 0 0 0 0 0 0 0 0 0 0 0-0.1 0.1-0.1 0.1 0 0 0 0 0 0 0 0 0 0 0 0 0 0 0 0 0 0 0 0 0 0 0 0 0 0 0 0 0 0 -0.2 0.1-0.3 0.1-0.5 0.2C323.8 401.6 323.7 401.5 323.5 401.5 323.5 401.5 323.5 401.5 323.5 401.5z" class="b"/>
	<path d="M305 455.9h-40.4c-9.2-0.2-4.3-8.2-4.3-8.2l1.8-3.6 0.5-1.1 0.8-1.8 0.1-0.2 0.4-0.9 0.7-1.4 0.2-0.4 0.5-1.1 0.7-1.4 0.2-0.4 0.5-1.1 0.4-0.8 0.5-1 0.5-1.1 0.2-0.4 0.6-1.3 0.5-0.9 0.1-0.1 0.8-1.8 0.2-0.4 0.3-0.7 0.8-1.6 0.1-0.2 0.5-1.1 3.5-7.3c0.9-2.4 1-4.7 1-4.7v-9.2h16.5v9.2c0 0 0.1 2.3 1 4.7l15.3 31.6C309.3 447.7 314.2 455.6 305 455.9z" class="j"/>
	<path d="M296.2 400.4c0 1.1-0.9 2-2 2h-18.8c-1.1 0-2-0.9-2-2l0 0c0-1.1 0.9-2 2-2h18.8C295.3 398.4 296.2 399.3 296.2 400.4L296.2 400.4z" class="j"/>
	<path d="M304.3 445.7l-12.2-25.2c-0.7-1.9-1.1-3.2-1.1-3.2s-12.8 1.3-13.5 3.2l-12.2 25.2c0 0-3.9 6.3 3.4 6.5h16.1 0 16.1C308.3 452.1 304.3 445.7 304.3 445.7z" class="k"/>
	<path d="M303.4 443.7c-5.6 3.3-12.6 5.7-20.5 6.7 -6.6 0.8-12.8 0.6-18.4-0.5 0.3 1.3 1.4 2.4 4.4 2.5h16 0 16c7.3-0.2 3.4-6.4 3.4-6.4L303.4 443.7z" style="fill:#D45650;opacity:0.3"/>
	<path d="M299.7 442.2c0.3 0.6 0 1.4-0.7 1.7l0 0c-0.7 0.3-1.5 0.1-1.8-0.5l-6-12.4c-0.3-0.6 0-1.4 0.7-1.7l0 0c0.7-0.3 1.5-0.1 1.8 0.5L299.7 442.2z" class="l"/>
	<circle cx="279.6" cy="423.8" r="1.5" class="l"/>
	<circle cx="279.6" cy="430.2" r="3.5" class="l"/>
	<path d="M268.2 437l4.1-4.1 0 0c0.4 0.4 1 0.4 1.4 0 0.4-0.4 0.4-1 0-1.4l-3.4-3.4c-0.4-0.4-1-0.4-1.4 0 -0.4 0.4-0.4 1 0 1.4l0 0 -3.5 3.5c-1.5-1.5-3.4-2.6-5.5-3.3v-12.2c0-0.7-0.2-1.4-0.6-2h0.5c0.6 0 1-0.5 1-1s-0.5-1-1-1h-7.6c-0.6 0-1 0.5-1 1s0.5 1 1 1h0.5c-0.4 0.6-0.6 1.3-0.6 2v12.4c-5.7 1.8-9.7 7.4-9.1 13.9 0.6 6.2 5.6 11.2 11.8 11.8 7.9 0.8 14.5-5.3 14.5-13h3c0.4 0 0.8-0.3 0.8-0.8v0c0-0.1 0-0.2-0.1-0.3 0.1-0.1 0.1-0.2 0.1-0.4v-2c0-0.5-0.4-0.9-0.9-0.9 -0.5 0-0.9 0.4-0.9 0.9v1.9h-2.2C269.1 439.5 268.8 438.2 268.2 437z" class="b"/>
	<path d="M245.4 442.7c0 0 0 0.1 0 0.1 0 5.9 4.9 10.8 10.9 10.8 6 0 10.9-4.8 10.9-10.8 0 0 0-0.1 0-0.1H245.4z" class="k"/>
	<path d="M254.6 425.4c0.4 0 0.9 0 1.3 0 0.2 0 0.3-0.1 0.3-0.3 0-0.2-0.1-0.2-0.3-0.2 -0.9 0-1.8 0-2.7 0 -0.2 0-0.3 0.1-0.3 0.3 0 0.2 0.1 0.2 0.3 0.2C253.7 425.4 254.1 425.4 254.6 425.4z" class="e"/>
	<path d="M254.6 423.4c0.4 0 0.9 0 1.3 0 0.2 0 0.3 0 0.3-0.2 0-0.2-0.2-0.2-0.3-0.2 -0.9 0-1.8 0-2.7 0 -0.2 0-0.3 0-0.3 0.3 0 0.2 0.1 0.2 0.3 0.2C253.7 423.4 254.1 423.4 254.6 423.4z" class="e"/>
	<path d="M254.6 427.4c0.4 0 0.9 0 1.3 0 0.2 0 0.3 0 0.3-0.2 0-0.2-0.2-0.2-0.3-0.2 -0.9 0-1.8 0-2.7 0 -0.2 0-0.3 0-0.3 0.3 0 0.2 0.1 0.2 0.3 0.2C253.7 427.4 254.1 427.4 254.6 427.4z" class="e"/>
	<path d="M253.9 426.4c0.2 0 0.5 0 0.7 0 0.1 0 0.3-0.1 0.3-0.2 0-0.2-0.1-0.3-0.3-0.3 -0.4 0-0.9 0-1.3 0 -0.2 0-0.3 0.1-0.3 0.3 0 0.2 0.1 0.2 0.3 0.2C253.4 426.4 253.6 426.4 253.9 426.4z" class="e"/>
	<path d="M253.9 424.4c0.2 0 0.5 0 0.7 0 0.1 0 0.3-0.1 0.3-0.2 0-0.2-0.1-0.3-0.3-0.3 -0.5 0-0.9 0-1.4 0 -0.2 0-0.2 0.1-0.2 0.3 0 0.2 0.1 0.2 0.2 0.2C253.4 424.4 253.6 424.4 253.9 424.4z" class="e"/>
	<path d="M253.9 428.4c0.2 0 0.5 0 0.7 0 0.1 0 0.3-0.1 0.3-0.2 0-0.2-0.1-0.2-0.2-0.2 -0.5 0-0.9 0-1.4 0 -0.2 0-0.2 0.1-0.2 0.3 0 0.2 0.1 0.2 0.2 0.2C253.4 428.4 253.6 428.4 253.9 428.4z" class="e"/>
	<path d="M254.6 419.4c0.4 0 0.9 0 1.3 0 0.2 0 0.3-0.1 0.3-0.3 0-0.2-0.1-0.2-0.3-0.2 -0.9 0-1.8 0-2.7 0 -0.2 0-0.3 0.1-0.3 0.3 0 0.2 0.1 0.2 0.3 0.2C253.7 419.4 254.1 419.4 254.6 419.4z" class="e"/>
	<path d="M254.6 417.4c0.4 0 0.9 0 1.3 0 0.2 0 0.3 0 0.3-0.2 0-0.2-0.2-0.2-0.3-0.2 -0.9 0-1.8 0-2.7 0 -0.2 0-0.3 0-0.3 0.3 0 0.2 0.1 0.2 0.3 0.2C253.7 417.4 254.1 417.4 254.6 417.4z" class="e"/>
	<path d="M254.6 421.4c0.4 0 0.9 0 1.3 0 0.2 0 0.3 0 0.3-0.2 0-0.2-0.2-0.2-0.3-0.2 -0.9 0-1.8 0-2.7 0 -0.2 0-0.3 0-0.3 0.3 0 0.2 0.1 0.2 0.3 0.2C253.7 421.4 254.1 421.4 254.6 421.4z" class="e"/>
	<path d="M253.9 420.4c0.2 0 0.5 0 0.7 0 0.1 0 0.3-0.1 0.3-0.2 0-0.2-0.1-0.3-0.3-0.3 -0.4 0-0.9 0-1.3 0 -0.2 0-0.3 0.1-0.3 0.3 0 0.2 0.1 0.2 0.3 0.2C253.4 420.4 253.6 420.4 253.9 420.4z" class="e"/>
	<path d="M253.9 418.4c0.2 0 0.5 0 0.7 0 0.1 0 0.3-0.1 0.3-0.2 0-0.2-0.1-0.3-0.3-0.3 -0.5 0-0.9 0-1.4 0 -0.2 0-0.2 0.1-0.2 0.3 0 0.2 0.1 0.2 0.2 0.2C253.4 418.4 253.6 418.4 253.9 418.4z" class="e"/>
	<path d="M253.9 422.4c0.2 0 0.5 0 0.7 0 0.1 0 0.3-0.1 0.3-0.2 0-0.2-0.1-0.2-0.2-0.2 -0.5 0-0.9 0-1.4 0 -0.2 0-0.2 0.1-0.2 0.3 0 0.2 0.1 0.2 0.2 0.2C253.4 422.4 253.6 422.4 253.9 422.4z" class="e"/>
	<path d="M251.2 395.3c-2.6 0-4.7 2.1-4.7 4.7 0 2.6 2.1 4.7 4.7 4.7 2.6 0 4.7-2.1 4.7-4.7C256 397.4 253.8 395.3 251.2 395.3zM251.2 404.4c-0.8 0-1.6-0.2-2.2-0.6 0 0-0.1 0-0.1-0.1 -0.3-0.2-0.6-0.5-0.9-0.8 0 0 0 0-0.1-0.1 -0.1-0.1-0.1-0.1-0.2-0.2 0-0.1-0.1-0.1-0.1-0.2 0 0-0.1-0.1-0.1-0.1 -0.1-0.1-0.1-0.2-0.2-0.3 0-0.1-0.1-0.1-0.1-0.2 -0.3-0.6-0.4-1.2-0.4-1.9 0-0.7 0.2-1.3 0.4-1.9 0-0.1 0.1-0.1 0.1-0.2 0.1-0.1 0.1-0.2 0.2-0.3 0 0 0.1-0.1 0.1-0.1 0-0.1 0.1-0.1 0.1-0.2 0.1-0.1 0.1-0.1 0.2-0.2 0 0 0 0 0.1-0.1 0.3-0.3 0.6-0.6 0.9-0.8 0 0 0.1 0 0.1-0.1 0.7-0.4 1.4-0.6 2.2-0.6 1.8 0 3.4 1.1 4.1 2.7 0 0 0 0 0 0.1 0.1 0.1 0.1 0.3 0.2 0.4 0.1 0.4 0.2 0.8 0.2 1.2s-0.1 0.8-0.2 1.2c0 0.2-0.1 0.3-0.2 0.4 0 0 0 0 0 0.1C254.6 403.3 253.1 404.4 251.2 404.4z" class="b"/>
	<path d="M264.5 381.6c-2 0-3.7 1.6-3.7 3.7s1.6 3.7 3.7 3.7c2 0 3.7-1.6 3.7-3.7S266.5 381.6 264.5 381.6zM264.5 388.7c-0.6 0-1.2-0.2-1.7-0.5 0 0-0.1 0-0.1 0 -0.3-0.2-0.5-0.4-0.7-0.6 0 0 0 0 0 0 0-0.1-0.1-0.1-0.1-0.2 0 0-0.1-0.1-0.1-0.1 0 0 0-0.1-0.1-0.1 0-0.1-0.1-0.1-0.1-0.2 0-0.1-0.1-0.1-0.1-0.2 -0.2-0.5-0.3-1-0.3-1.5s0.1-1 0.3-1.5c0-0.1 0.1-0.1 0.1-0.2 0-0.1 0.1-0.1 0.1-0.2 0 0 0-0.1 0.1-0.1 0 0 0.1-0.1 0.1-0.1 0-0.1 0.1-0.1 0.1-0.2 0 0 0 0 0 0 0.2-0.2 0.4-0.4 0.7-0.6 0 0 0.1 0 0.1 0 0.5-0.3 1.1-0.5 1.7-0.5 1.4 0 2.6 0.9 3.2 2.1 0 0 0 0 0 0 0 0.1 0.1 0.2 0.1 0.3 0.1 0.3 0.1 0.6 0.1 1s0 0.7-0.1 1c0 0.1-0.1 0.2-0.1 0.3 0 0 0 0 0 0C267.1 387.8 265.9 388.7 264.5 388.7z" class="c"/>
	<path d="M282.1 386.6c-2 0-3.7 1.6-3.7 3.7 0 2 1.6 3.7 3.7 3.7s3.7-1.6 3.7-3.7C285.8 388.3 284.1 386.6 282.1 386.6z" class="c"/>
	<path d="M284.3 368.5c-2 0-3.7 1.6-3.7 3.7 0 2 1.6 3.7 3.7 3.7s3.7-1.6 3.7-3.7C288 370.2 286.3 368.5 284.3 368.5zM284.3 375.6c-0.6 0-1.2-0.2-1.7-0.5 0 0-0.1 0-0.1 0 -0.3-0.2-0.5-0.4-0.7-0.6 0 0 0 0 0 0 0-0.1-0.1-0.1-0.1-0.2 0 0-0.1-0.1-0.1-0.1 0 0 0-0.1-0.1-0.1 0-0.1-0.1-0.1-0.1-0.2 0-0.1-0.1-0.1-0.1-0.2 -0.2-0.5-0.3-1-0.3-1.5 0-0.5 0.1-1 0.3-1.5 0-0.1 0.1-0.1 0.1-0.2 0-0.1 0.1-0.1 0.1-0.2 0 0 0-0.1 0.1-0.1 0 0 0.1-0.1 0.1-0.1 0-0.1 0.1-0.1 0.1-0.2 0 0 0 0 0 0 0.2-0.2 0.4-0.4 0.7-0.6 0 0 0.1 0 0.1 0 0.5-0.3 1.1-0.5 1.7-0.5 1.4 0 2.6 0.9 3.2 2.1 0 0 0 0 0 0 0 0.1 0.1 0.2 0.1 0.3 0.1 0.3 0.1 0.6 0.1 1 0 0.3 0 0.7-0.1 1 0 0.1-0.1 0.2-0.1 0.3 0 0 0 0 0 0C286.9 374.7 285.7 375.6 284.3 375.6z" class="b"/>
	<path d="M297.6 412c-1.2 0-2.2 1-2.2 2.2 0 1.2 1 2.2 2.2 2.2 1.2 0 2.2-1 2.2-2.2C299.9 413 298.9 412 297.6 412zM297.6 416.3c-0.4 0-0.7-0.1-1.1-0.3 0 0 0 0 0 0 -0.2-0.1-0.3-0.2-0.4-0.4 0 0 0 0 0 0 0 0-0.1-0.1-0.1-0.1 0 0 0-0.1-0.1-0.1 0 0 0 0 0-0.1 0 0-0.1-0.1-0.1-0.1 0 0 0-0.1-0.1-0.1 -0.1-0.3-0.2-0.6-0.2-0.9 0-0.3 0.1-0.6 0.2-0.9 0 0 0-0.1 0.1-0.1 0 0 0.1-0.1 0.1-0.1 0 0 0 0 0-0.1 0 0 0-0.1 0.1-0.1 0 0 0.1-0.1 0.1-0.1 0 0 0 0 0 0 0.1-0.1 0.3-0.3 0.4-0.4 0 0 0 0 0 0 0.3-0.2 0.7-0.3 1.1-0.3 0.9 0 1.6 0.5 1.9 1.3 0 0 0 0 0 0 0 0.1 0.1 0.1 0.1 0.2 0.1 0.2 0.1 0.4 0.1 0.6 0 0.2 0 0.4-0.1 0.6 0 0.1 0 0.1-0.1 0.2 0 0 0 0 0 0C299.2 415.8 298.5 416.3 297.6 416.3z" class="b"/>
	<path d="M269.1 393.6c-1.2 0-2.2 1-2.2 2.2 0 1.2 1 2.2 2.2 2.2s2.2-1 2.2-2.2C271.4 394.6 270.4 393.6 269.1 393.6zM269.1 397.9c-0.4 0-0.7-0.1-1.1-0.3 0 0 0 0 0 0 -0.2-0.1-0.3-0.2-0.4-0.4 0 0 0 0 0 0 0 0-0.1-0.1-0.1-0.1 0 0 0-0.1-0.1-0.1 0 0 0 0 0-0.1 0 0-0.1-0.1-0.1-0.1 0 0 0-0.1-0.1-0.1 -0.1-0.3-0.2-0.6-0.2-0.9 0-0.3 0.1-0.6 0.2-0.9 0 0 0-0.1 0.1-0.1 0 0 0.1-0.1 0.1-0.1 0 0 0 0 0-0.1 0 0 0-0.1 0.1-0.1 0 0 0.1-0.1 0.1-0.1 0 0 0 0 0 0 0.1-0.1 0.3-0.3 0.4-0.4 0 0 0 0 0 0 0.3-0.2 0.7-0.3 1.1-0.3 0.9 0 1.6 0.5 1.9 1.3 0 0 0 0 0 0 0 0.1 0.1 0.1 0.1 0.2 0.1 0.2 0.1 0.4 0.1 0.6s0 0.4-0.1 0.6c0 0.1 0 0.1-0.1 0.2 0 0 0 0 0 0C270.7 397.4 270 397.9 269.1 397.9z" class="b"/>
	<path d="M295 386.7c-1.2 0-2.2 1-2.2 2.2 0 1.2 1 2.2 2.2 2.2 1.2 0 2.2-1 2.2-2.2C297.3 387.7 296.3 386.7 295 386.7zM295 391c-0.4 0-0.7-0.1-1.1-0.3 0 0 0 0 0 0 -0.2-0.1-0.3-0.2-0.4-0.4 0 0 0 0 0 0 0 0-0.1-0.1-0.1-0.1 0 0 0-0.1-0.1-0.1 0 0 0 0 0-0.1 0 0-0.1-0.1-0.1-0.1 0 0 0-0.1-0.1-0.1 -0.1-0.3-0.2-0.6-0.2-0.9 0-0.3 0.1-0.6 0.2-0.9 0 0 0-0.1 0.1-0.1 0 0 0.1-0.1 0.1-0.1 0 0 0 0 0-0.1 0 0 0-0.1 0.1-0.1 0 0 0.1-0.1 0.1-0.1 0 0 0 0 0 0 0.1-0.1 0.3-0.3 0.4-0.4 0 0 0 0 0 0 0.3-0.2 0.7-0.3 1.1-0.3 0.9 0 1.6 0.5 1.9 1.3 0 0 0 0 0 0 0 0.1 0.1 0.1 0.1 0.2 0.1 0.2 0.1 0.4 0.1 0.6 0 0.2 0 0.4-0.1 0.6 0 0.1 0 0.1-0.1 0.2 0 0 0 0 0 0C296.6 390.5 295.9 391 295 391z" class="c"/>
	<path d="M271.3 408.5c-2 0-3.7 1.6-3.7 3.7s1.6 3.7 3.7 3.7c2 0 3.7-1.6 3.7-3.7S273.3 408.5 271.3 408.5zM271.3 415.6c-0.6 0-1.2-0.2-1.7-0.5 0 0-0.1 0-0.1 0 -0.3-0.2-0.5-0.4-0.7-0.6 0 0 0 0 0 0 0-0.1-0.1-0.1-0.1-0.2 0 0-0.1-0.1-0.1-0.1 0 0 0-0.1-0.1-0.1 0-0.1-0.1-0.1-0.1-0.2 0-0.1-0.1-0.1-0.1-0.2 -0.2-0.5-0.3-1-0.3-1.5 0-0.5 0.1-1 0.3-1.5 0-0.1 0.1-0.1 0.1-0.2 0-0.1 0.1-0.1 0.1-0.2 0 0 0-0.1 0.1-0.1 0 0 0.1-0.1 0.1-0.1 0-0.1 0.1-0.1 0.1-0.2 0 0 0 0 0 0 0.2-0.2 0.4-0.4 0.7-0.6 0 0 0.1 0 0.1 0 0.5-0.3 1.1-0.5 1.7-0.5 1.4 0 2.6 0.9 3.2 2.1 0 0 0 0 0 0 0 0.1 0.1 0.2 0.1 0.3 0.1 0.3 0.1 0.6 0.1 1s0 0.7-0.1 1c0 0.1-0.1 0.2-0.1 0.3 0 0 0 0 0 0C274 414.7 272.7 415.6 271.3 415.6z" class="c"/>
	<path d="M271.7 375.6L271.7 375.6c-0.1 0-0.1 0-0.2 0l-0.5-0.8c0-0.1 0-0.1 0-0.2l0 0c0.1 0 0.1 0 0.2 0l0.5 0.8C271.8 375.5 271.8 375.6 271.7 375.6z" class="c"/>
	<path d="M273.7 378L273.7 378c-0.1 0-0.1 0-0.2 0l-0.5-0.8c0-0.1 0-0.1 0-0.2l0 0c0.1 0 0.1 0 0.2 0l0.5 0.8C273.8 377.8 273.8 377.9 273.7 378z" class="c"/>
	<path d="M273 375.6L273 375.6c0.1 0 0.1 0 0.2 0l0.5-0.8c0-0.1 0-0.1 0-0.2l0 0c-0.1 0-0.1 0-0.2 0l-0.5 0.8C272.9 375.5 273 375.6 273 375.6z" class="c"/>
	<path d="M271 378L271 378c0.1 0 0.1 0 0.2 0l0.5-0.8c0-0.1 0-0.1 0-0.2l0 0c-0.1 0-0.1 0-0.2 0l-0.5 0.8C271 377.8 271 377.9 271 378z" class="c"/>
	<path d="M292.9 393.8L292.9 393.8c-0.1 0-0.1 0-0.2 0l-0.5-0.8c0-0.1 0-0.1 0-0.2l0 0c0.1 0 0.1 0 0.2 0l0.5 0.8C293 393.6 293 393.7 292.9 393.8z" class="c"/>
	<path d="M294.9 396.1L294.9 396.1c-0.1 0-0.1 0-0.2 0l-0.5-0.8c0-0.1 0-0.1 0-0.2l0 0c0.1 0 0.1 0 0.2 0l0.5 0.8C295 395.9 295 396 294.9 396.1z" class="c"/>
	<path d="M294.2 393.8L294.2 393.8c0.1 0 0.1 0 0.2 0l0.5-0.8c0-0.1 0-0.1 0-0.2l0 0c-0.1 0-0.1 0-0.2 0l-0.5 0.8C294.1 393.6 294.1 393.7 294.2 393.8z" class="c"/>
	<path d="M292.2 396.1L292.2 396.1c0.1 0 0.1 0 0.2 0l0.5-0.8c0-0.1 0-0.1 0-0.2l0 0c-0.1 0-0.1 0-0.2 0l-0.5 0.8C292.1 395.9 292.1 396 292.2 396.1z" class="c"/>
	<path d="M261.8 404.7L261.8 404.7c-0.1 0-0.1 0-0.2 0l-0.5-0.8c0-0.1 0-0.1 0-0.2l0 0c0.1 0 0.1 0 0.2 0l0.5 0.8C261.9 404.6 261.9 404.7 261.8 404.7z" class="c"/>
	<path d="M263.8 407L263.8 407c-0.1 0-0.1 0-0.2 0l-0.5-0.8c0-0.1 0-0.1 0-0.2l0 0c0.1 0 0.1 0 0.2 0l0.5 0.8C263.9 406.9 263.9 407 263.8 407z" class="c"/>
	<path d="M263.1 404.7L263.1 404.7c0.1 0 0.1 0 0.2 0l0.5-0.8c0-0.1 0-0.1 0-0.2l0 0c-0.1 0-0.1 0-0.2 0l-0.5 0.8C263 404.6 263.1 404.7 263.1 404.7z" class="c"/>
	<path d="M261.1 407L261.1 407c0.1 0 0.1 0 0.2 0l0.5-0.8c0-0.1 0-0.1 0-0.2l0 0c-0.1 0-0.1 0-0.2 0l-0.5 0.8C261.1 406.9 261.1 407 261.1 407z" class="c"/>
	<path d="M242.8 412.8L242.8 412.8c-0.1 0-0.1 0-0.2 0l-0.5-0.8c0-0.1 0-0.1 0-0.2l0 0c0.1 0 0.1 0 0.2 0l0.5 0.8C242.9 412.7 242.9 412.8 242.8 412.8z" class="c"/>
	<path d="M244.8 415.1L244.8 415.1c-0.1 0-0.1 0-0.2 0l-0.5-0.8c0-0.1 0-0.1 0-0.2l0 0c0.1 0 0.1 0 0.2 0l0.5 0.8C244.9 415 244.8 415.1 244.8 415.1z" class="c"/>
	<path d="M244.1 412.8L244.1 412.8c0.1 0 0.1 0 0.2 0l0.5-0.8c0-0.1 0-0.1 0-0.2l0 0c-0.1 0-0.1 0-0.2 0l-0.5 0.8C244 412.7 244 412.8 244.1 412.8z" class="c"/>
	<path d="M242.1 415.1L242.1 415.1c0.1 0 0.1 0 0.2 0l0.5-0.8c0-0.1 0-0.1 0-0.2l0 0c-0.1 0-0.1 0-0.2 0l-0.5 0.8C242 415 242 415.1 242.1 415.1z" class="c"/>
	<path d="M252.9 433.3c0 0-6.5 0.7-7.5 7.6 0 0-1.1 6 5.4 10.1 0 0-1.7-1.6-2.7-5 -0.9-3.1-0.6-6.4 0.9-9.3C249.9 435.1 251.1 433.6 252.9 433.3z" class="l"/>
	<path d="M305.6 374.1c0.4 1.7-1.1 3.1-2.7 2.7 -0.8-0.2-1.4-0.8-1.6-1.6 -0.4-1.7 1.1-3.1 2.7-2.7C304.8 372.7 305.4 373.3 305.6 374.1z" class="c"/>
	<path d="M251.3 385.5c0.4 1.7-1.1 3.1-2.7 2.7 -0.8-0.2-1.4-0.8-1.6-1.6 -0.4-1.7 1.1-3.1 2.7-2.7C250.5 384.1 251.1 384.7 251.3 385.5z" class="c"/>
	<rect x="217.6" y="317.8" width="146.7" height="80.9" class="g"/>
	<text transform="matrix(1 0 0 1 255.4729 327.9594)"><tspan x="0" y="0" font-family="'OpenSans-Light'" font-size="13.3098" letter-spacing="1" class="b">  Pesquisa </tspan><tspan x="-13.2" y="16" font-family="'OpenSans-Light'" font-size="13.3098" letter-spacing="1" class="b">  aplicada ou </tspan><tspan x="-15.1" y="31.9" font-family="'OpenSans-Extrabold'" font-size="13.3098" letter-spacing="1" class="b">  tecnologia</tspan></text><path d="M123.7 653.8c-0.2 0.1-0.5 0.2-0.7 0.3 -0.1 0-0.1 0-0.1 0.1 -0.6 0.2-1.3 0.4-2 0.6 -0.1 0-0.2 0-0.3 0.1 -0.3 0.1-0.5 0.1-0.8 0.2 -0.1 0-0.3 0.1-0.4 0.1 -0.2 0-0.5 0.1-0.8 0.1 -0.1 0-0.3 0-0.4 0.1 -0.3 0-0.5 0.1-0.8 0.1 -0.2 0-0.3 0-0.5 0.1 -0.3 0-0.6 0.1-0.9 0.1 -0.1 0-0.3 0-0.4 0 -0.5 0-0.9 0-1.4 0l5.3 16.6h10.2 9.1l-8.4-25.2C130.5 646.9 129.4 651.3 123.7 653.8z" class="c"/>
	<path d="M178.2 655.6c-0.3 0-0.6 0-0.9 0 -0.3 0-0.5 0-0.8-0.1 -0.1 0-0.3 0-0.4 0 -0.3 0-0.6-0.1-0.9-0.1 -0.1 0-0.2 0-0.2 0 -0.3 0-0.7-0.1-1-0.1 0 0 0 0 0 0 -9.8-1.7-11.5-8.2-11.5-8.2l-8.4 25.2h9.1 10.2 0l5.3-16.6C178.5 655.6 178.4 655.6 178.2 655.6z" class="c"/>
	<path d="M155.8 579.1h-9.1 -9.1c-4 11.1-3.4 25.7-3.4 25.7 0.5 23.2 7.2 25.5 7.2 25.5h5.3 5.3c0 0 6.7-2.3 7.2-25.5C159.2 604.9 159.8 590.2 155.8 579.1z" class="k"/>
	<path d="M142.6 631.7c0 0-5.6-0.3-4.9 7.8 0 0 1.3-3 2.4-2.3 0 0-0.3 12.3 2.9 10.6 0 0 0.4-2.3 2-2.6 0 0 1.2 0.3 2 1.4v-14.9L142.6 631.7z" class="k"/>
	<path d="M146.3 653.1c0 0 0.3 0.3 0.7 0.5v-1.8C146.8 652.3 146.6 652.7 146.3 653.1z" class="k"/>
	<path d="M155.7 637.7c0 0-1.4-4.7-5.2-6l-3.5 0v14.9c0.8 1 1.2 2.6 0 5.2v1.8c1.2 0.6 3.6 0.4 4.2-9.6 0 0 1.6-2 2.4 0.6 0 0 0.5 1.5 0 2.2C153.6 646.9 157.4 646.8 155.7 637.7z" class="k"/>
	<path d="M116 653c0 0 5 1.1 10.9-4.8h0c0 0-1.2-7.6-9.2-12.1 0 0-3.3-2-6.4-2.9l0 0c0 0-4.2-1.7-5.4-5.2 -0.1-0.3-0.2-0.5-0.5-0.7 -0.7-0.6-2.4-1.9-3.8-1.5 0 0-2.3 0.2 0 2.9l0 0c0 0 1.4 2.1 2.3 4.9 0.1 0.2 0.1 0.4 0.2 0.5 0.4 0.7 1.5 2.3 3.7 3.7 0.2 0.2 0.5 0.3 0.7 0.5 0.6 0.5 1.8 1.6 2 2.2l0 0c0 0-3.3-1.9-4.2-2.6 0 0-2.7-1.9-4.1-6 -0.3-0.9-0.8-1.8-1.4-2.5 -0.8-1-1.7-2.5-1.1-3.5 0 0 1-2.3 4.8-0.4h0c0 0-3.5-8.1-4.4-14 -0.1-0.9-0.6-1.6-1.4-2.1 -1-0.6-2.5-0.6-3.7 3.2l0 0c0 0-1.1 9.3 0.6 14.4l0 0c0 0 2 8.2 3.4 10.7l0 0c0 0 4.4 6.3 10 9C109.1 646.8 114.9 649.8 116 653L116 653z" class="m"/>
	<path d="M128.5 649l-0.4-0.8c-5.4 6.2-12.5 5.7-12.5 5.7l0.6 0.8C123.5 654.2 127 651.1 128.5 649z" class="k"/>
	<path d="M159.1 606.9c-0.6 16.9-5 21.9-6.2 22.9H147h-6.2 -0.3c-1.2-1-5.6-6-6.2-22.9 0 0-12.3 9-3.1 29.5 0 0 2.5-7.1 9.4-6.4 0.4 0.7 2 2.6 6.4 3.2 4.5-0.5 5.8-2.6 6.1-3.2 6.7-0.5 9.1 6.4 9.1 6.4C171.4 615.9 159.1 606.9 159.1 606.9z" class="a"/>
	<path d="M146.7 577.3h0.3 7.8c-2.2-7.8-6.5-9.7-7.8-10.1 -0.1 0-0.2-0.1-0.3-0.1 0 0 0 0-0.1 0 0 0-0.1 0-0.1 0 -0.8 0.2-5.7 1.6-8.1 10.2h8.1H146.7z" class="a"/>
	<path d="M147 583.5c-3.5 0-6.4 2.9-6.4 6.4s2.9 6.4 6.4 6.4c3.5 0 6.4-2.9 6.4-6.4S150.5 583.5 147 583.5zM151.3 592.2c-0.1 0.1-0.2 0.3-0.2 0.4 0 0.1-0.1 0.1-0.1 0.2 -0.1 0.1-0.2 0.2-0.3 0.4 -0.3 0.3-0.6 0.5-0.9 0.8 -0.2 0.1-0.4 0.2-0.6 0.4 -0.6 0.3-1.4 0.5-2.1 0.5 -0.8 0-1.5-0.2-2.1-0.5 -0.2-0.1-0.4-0.2-0.6-0.4 -0.2-0.1-0.4-0.3-0.6-0.4 -0.1-0.1-0.2-0.2-0.3-0.3 -0.1-0.1-0.2-0.2-0.3-0.4 0-0.1-0.1-0.1-0.1-0.2 -0.1-0.1-0.2-0.3-0.2-0.4 -0.4-0.7-0.6-1.5-0.6-2.3 0-1 0.3-1.9 0.8-2.7 0-0.1 0.1-0.1 0.1-0.2 0.1-0.1 0.2-0.2 0.3-0.4 0.1-0.1 0.2-0.2 0.3-0.3 0.2-0.2 0.4-0.3 0.6-0.4 0.2-0.1 0.4-0.2 0.6-0.4 0.1-0.1 0.3-0.1 0.4-0.2 0.1-0.1 0.3-0.1 0.5-0.1 0.4-0.1 0.8-0.2 1.2-0.2 0.4 0 0.8 0.1 1.2 0.2 0.2 0 0.3 0.1 0.5 0.1 0.1 0.1 0.3 0.1 0.4 0.2 0.2 0.1 0.4 0.2 0.6 0.4 0.3 0.2 0.6 0.5 0.9 0.8 0.1 0.1 0.2 0.2 0.3 0.4 0 0.1 0.1 0.1 0.1 0.2 0.5 0.8 0.8 1.7 0.8 2.7C151.9 590.7 151.7 591.5 151.3 592.2z" class="n"/>
	<path d="M147 599.1c-1.7 0-3.2 1.4-3.2 3.2 0 1.7 1.4 3.2 3.2 3.2 1.7 0 3.2-1.4 3.2-3.2C150.2 600.5 148.8 599.1 147 599.1zM149.2 603.4c0 0.1-0.1 0.1-0.1 0.2 0 0 0 0.1-0.1 0.1 0 0.1-0.1 0.1-0.1 0.2 -0.1 0.1-0.3 0.3-0.4 0.4 -0.1 0.1-0.2 0.1-0.3 0.2 -0.3 0.2-0.7 0.2-1 0.2 -0.4 0-0.7-0.1-1-0.2 -0.1-0.1-0.2-0.1-0.3-0.2 -0.1-0.1-0.2-0.1-0.3-0.2 -0.1-0.1-0.1-0.1-0.2-0.2 -0.1-0.1-0.1-0.1-0.1-0.2 0 0 0-0.1-0.1-0.1 0-0.1-0.1-0.1-0.1-0.2 -0.2-0.3-0.3-0.7-0.3-1.1 0-0.5 0.2-1 0.4-1.3 0 0 0-0.1 0.1-0.1 0-0.1 0.1-0.1 0.1-0.2 0.1-0.1 0.1-0.1 0.2-0.2 0.1-0.1 0.2-0.1 0.3-0.2 0.1-0.1 0.2-0.1 0.3-0.2 0.1 0 0.1-0.1 0.2-0.1 0.1 0 0.1-0.1 0.2-0.1 0.2 0 0.4-0.1 0.6-0.1s0.4 0 0.6 0.1c0.1 0 0.2 0 0.2 0.1 0.1 0 0.1 0.1 0.2 0.1 0.1 0.1 0.2 0.1 0.3 0.2 0.2 0.1 0.3 0.2 0.4 0.4 0.1 0.1 0.1 0.1 0.1 0.2 0 0 0 0.1 0.1 0.1 0.3 0.4 0.4 0.8 0.4 1.3C149.4 602.7 149.3 603.1 149.2 603.4z" class="n"/>
	<path d="M147 587.4c-1.4 0-2.5 1.1-2.5 2.5s1.1 2.5 2.5 2.5c1.4 0 2.5-1.1 2.5-2.5S148.4 587.4 147 587.4zM148.7 590.8c0 0.1-0.1 0.1-0.1 0.2 0 0 0 0-0.1 0.1 0 0-0.1 0.1-0.1 0.1 -0.1 0.1-0.2 0.2-0.3 0.3 -0.1 0.1-0.2 0.1-0.2 0.1 -0.2 0.1-0.5 0.2-0.8 0.2 -0.3 0-0.6-0.1-0.8-0.2 -0.1 0-0.2-0.1-0.2-0.1 -0.1-0.1-0.1-0.1-0.2-0.2 0 0-0.1-0.1-0.1-0.1 0 0-0.1-0.1-0.1-0.1 0 0 0 0-0.1-0.1 0 0-0.1-0.1-0.1-0.2 -0.1-0.3-0.2-0.6-0.2-0.9 0-0.4 0.1-0.7 0.3-1 0 0 0 0 0.1-0.1 0 0 0.1-0.1 0.1-0.1 0 0 0.1-0.1 0.1-0.1 0.1-0.1 0.1-0.1 0.2-0.2s0.2-0.1 0.2-0.1c0.1 0 0.1 0 0.2-0.1 0.1 0 0.1 0 0.2-0.1 0.1 0 0.3-0.1 0.5-0.1 0.2 0 0.3 0 0.5 0.1 0.1 0 0.1 0 0.2 0.1 0.1 0 0.1 0 0.2 0.1 0.1 0 0.2 0.1 0.2 0.1 0.1 0.1 0.2 0.2 0.3 0.3 0 0 0.1 0.1 0.1 0.1 0 0 0 0 0.1 0.1 0.2 0.3 0.3 0.7 0.3 1C148.9 590.2 148.8 590.5 148.7 590.8z" class="n"/>
	<circle cx="119.1" cy="660.1" r="1.3" class="n"/>
	<path d="M121.6 662.3c0.6 1.1-0.5 2.2-1.6 1.6 -0.2-0.1-0.3-0.2-0.4-0.4 -0.6-1.1 0.5-2.2 1.6-1.6C121.3 661.9 121.5 662.1 121.6 662.3z" class="n"/>
	<path d="M176.9 653c0 0-5 1.1-10.9-4.8l0 0c0 0 1.2-7.6 9.2-12.1 0 0 3.3-2 6.4-2.9l0 0c0 0 4.2-1.7 5.4-5.2 0.1-0.3 0.2-0.5 0.5-0.7 0.7-0.6 2.4-1.9 3.8-1.5 0 0 2.3 0.2 0 2.9l0 0c0 0-1.4 2.1-2.3 4.9 -0.1 0.2-0.1 0.4-0.2 0.5 -0.4 0.7-1.5 2.3-3.7 3.7 -0.2 0.2-0.5 0.3-0.7 0.5 -0.6 0.5-1.8 1.6-2 2.2l0 0c0 0 3.3-1.9 4.2-2.6 0 0 2.7-1.9 4.1-6 0.3-0.9 0.8-1.8 1.4-2.5 0.8-1 1.7-2.5 1.1-3.5 0 0-1-2.3-4.8-0.4h0c0 0 3.5-8.1 4.4-14 0.1-0.9 0.6-1.6 1.4-2.1 1-0.6 2.5-0.6 3.7 3.2l0 0c0 0 1.1 9.3-0.6 14.4l0 0c0 0-2 8.2-3.4 10.7l0 0c0 0-4.4 6.3-10 9C183.8 646.8 177.9 649.8 176.9 653L176.9 653z" class="m"/>
	<path d="M164.3 649l0.4-0.8c5.4 6.2 12.5 5.7 12.5 5.7l-0.6 0.8C169.3 654.2 165.9 651.1 164.3 649z" class="k"/>
	<circle cx="173.8" cy="660.1" r="1.3" class="n"/>
	<path d="M171.3 662.3c-0.6 1.1 0.5 2.2 1.6 1.6 0.2-0.1 0.3-0.2 0.4-0.4 0.6-1.1-0.5-2.2-1.6-1.6C171.5 661.9 171.4 662.1 171.3 662.3z" class="n"/>
	<path d="M128.1 603.9l-0.5 0c-0.1-0.3-0.2-0.6-0.4-0.9l0 0 0.4-0.4c0.1-0.1 0.1-0.2 0-0.3l-0.7-0.7c-0.1-0.1-0.2-0.1-0.3 0l-0.4 0.4c-0.3-0.2-0.5-0.3-0.8-0.3v0l0-0.5c0-0.1-0.1-0.2-0.2-0.2l-0.9 0c-0.1 0-0.2 0.1-0.2 0.2l0 0.5c-0.3 0.1-0.6 0.2-0.9 0.4l0 0 -0.4-0.4c-0.1-0.1-0.2-0.1-0.3 0l-0.7 0.7c-0.1 0.1-0.1 0.2 0 0.3l0.4 0.4c-0.2 0.3-0.3 0.5-0.3 0.8h0l-0.5 0.1c-0.1 0-0.2 0.1-0.2 0.2l0 1c0 0.1 0.1 0.2 0.2 0.2l0.5 0c0.1 0.3 0.2 0.6 0.4 0.8l0 0 -0.4 0.4c-0.1 0.1-0.1 0.2 0 0.3l0.7 0.7c0.1 0.1 0.2 0.1 0.3 0l0.4-0.4c0.3 0.2 0.6 0.3 0.9 0.3v0l0 0.5c0 0.1 0.1 0.2 0.2 0.2l0.9 0c0.1 0 0.2-0.1 0.2-0.2l0-0.5c0.3-0.1 0.7-0.2 0.8-0.4v0l0.4 0.4c0.1 0.1 0.2 0.1 0.3 0l0.7-0.7c0.1-0.1 0.1-0.2 0-0.3l-0.4-0.4c0.2-0.3 0.3-0.6 0.3-0.9h0l0.5 0c0.1 0 0.2-0.1 0.2-0.2l0-0.9C128.4 604 128.3 603.9 128.1 603.9zM124.2 605.9C124.2 605.9 124.2 605.9 124.2 605.9c-0.1 0-0.1-0.1-0.2-0.1 0 0 0 0-0.1 0 0 0 0 0-0.1 0 0 0 0 0 0 0 -0.1 0-0.1-0.1-0.1-0.1 0 0-0.1-0.1-0.1-0.1 0 0 0 0 0-0.1 0-0.1-0.1-0.1-0.1-0.2 -0.1-0.2-0.1-0.3-0.1-0.5 0-0.4 0.2-0.8 0.4-1 0 0 0 0 0.1-0.1 0 0 0 0 0 0 0 0 0 0 0.1 0 0.1 0 0.1-0.1 0.2-0.1 0 0 0 0 0.1 0 0.2-0.1 0.3-0.1 0.5-0.1 0.2 0 0.4 0 0.6 0.1 0 0 0 0 0.1 0 0 0 0.1 0 0.1 0 0 0 0 0 0.1 0 0 0 0 0 0 0 0 0 0 0 0.1 0 0 0 0 0 0.1 0.1 0 0 0 0 0 0 0 0 0.1 0.1 0.1 0.1 0 0 0 0 0 0.1 0 0 0 0 0 0.1 0 0 0 0.1 0 0.1 0.1 0.2 0.1 0.4 0.1 0.6 0 0.1 0 0.2 0 0.3 0 0 0 0 0 0.1 0 0 0 0.1 0 0.1 0 0 0 0 0 0.1 0 0 0 0 0 0 0 0 0 0.1 0 0.1 0 0 0 0 0 0.1 0 0 0 0 0 0 0 0 0 0 0 0 0 0 0 0 0 0 0 0 0 0 0 0.1 0 0 0 0 0 0 0 0 0 0 0 0 0 0 0 0 0 0 0 0-0.1 0.1-0.1 0.1 0 0 0 0 0 0 0 0 0 0-0.1 0 0 0 0 0-0.1 0 0 0 0 0 0 0 0 0 0 0-0.1 0 -0.2 0.1-0.4 0.2-0.6 0.2C124.6 606 124.4 606 124.2 605.9 124.3 605.9 124.3 605.9 124.2 605.9z" class="e"/>
	<path d="M173.4 594.3l-0.4 0c-0.1-0.3-0.2-0.5-0.3-0.6l0 0 0.3-0.3c0.1-0.1 0.1-0.2 0-0.2l-0.5-0.5c-0.1-0.1-0.2-0.1-0.2 0l-0.3 0.3c-0.2-0.1-0.3-0.2-0.6-0.2v0l0-0.4c0-0.1-0.1-0.2-0.2-0.2l-0.7 0c-0.1 0-0.1 0.1-0.1 0.2l0 0.4c-0.3 0.1-0.5 0.2-0.7 0.3l0 0 -0.3-0.3c-0.1-0.1-0.2-0.1-0.2 0l-0.5 0.5c-0.1 0.1-0.1 0.2 0 0.2l0.3 0.3c-0.1 0.2-0.2 0.5-0.2 0.6h0l-0.4 0c-0.1 0-0.1 0.1-0.1 0.2l0 0.7c0 0.1 0.1 0.2 0.1 0.2l0.4 0c0.1 0.3 0.2 0.4 0.3 0.6l0 0 -0.3 0.3c-0.1 0.1-0.1 0.2 0 0.2l0.5 0.5c0.1 0.1 0.2 0.1 0.2 0l0.3-0.3c0.2 0.1 0.4 0.2 0.7 0.2v0l0 0.4c0 0.1 0 0.2 0.1 0.2l0.7 0c0.1 0 0.2-0.1 0.2-0.2l0-0.4c0.3-0.1 0.5-0.2 0.7-0.3v0l0.3 0.3c0.1 0.1 0.2 0.1 0.2 0l0.5-0.5c0.1-0.1 0.1-0.2 0-0.2l-0.3-0.3c0.1-0.2 0.2-0.4 0.2-0.7h0l0.4 0c0.1 0 0.2-0.1 0.2-0.2l0-0.7C173.5 594.3 173.4 594.3 173.4 594.3zM170.4 595.8C170.4 595.8 170.4 595.8 170.4 595.8c-0.1 0-0.1 0-0.1-0.1 0 0 0 0 0 0 0 0 0 0 0 0 0 0 0 0 0 0 0 0-0.1-0.1-0.1-0.1 0 0-0.1-0.1-0.1-0.1 0 0 0 0 0 0 0 0-0.1-0.1-0.1-0.2 -0.1-0.1-0.1-0.3-0.1-0.4 0-0.3 0.1-0.6 0.3-0.8 0 0 0 0 0.1 0 0 0 0 0 0 0 0 0 0 0 0 0 0 0 0.1-0.1 0.1-0.1 0 0 0 0 0 0 0.1-0.1 0.3-0.1 0.4-0.1 0.2 0 0.3 0 0.5 0.1 0 0 0 0 0 0 0 0 0 0 0.1 0 0 0 0 0 0 0 0 0 0 0 0 0 0 0 0 0 0 0 0 0 0 0 0.1 0 0 0 0 0 0 0 0 0 0.1 0.1 0.1 0.1 0 0 0 0 0 0 0 0 0 0 0 0 0 0 0 0 0 0.1 0.1 0.1 0.1 0.3 0.1 0.4 0 0.1 0 0.2 0 0.3 0 0 0 0 0 0 0 0 0 0 0 0.1 0 0 0 0 0 0 0 0 0 0 0 0 0 0 0 0 0 0.1 0 0 0 0 0 0 0 0 0 0 0 0 0 0 0 0 0 0 0 0 0 0 0 0 0 0 0 0 0 0 0 0 0 0 0 0 0 0 0 0 0 0 0 0 0 0 0 0 0 0 0 0-0.1 0.1 0 0 0 0 0 0 0 0 0 0 0 0s0 0 0 0c0 0 0 0 0 0 0 0 0 0 0 0 -0.1 0.1-0.3 0.1-0.5 0.1C170.7 595.9 170.5 595.8 170.4 595.8 170.4 595.8 170.4 595.8 170.4 595.8z" class="e"/>
	<path d="M179.3 615l-0.7 0c-0.1-0.4-0.3-0.8-0.5-1.1l0 0 0.5-0.5c0.1-0.1 0.1-0.3 0-0.4l-0.9-0.8c-0.1-0.1-0.3-0.1-0.4 0l-0.5 0.5c-0.3-0.2-0.6-0.3-1.1-0.4v0l0-0.7c0-0.2-0.1-0.3-0.3-0.3l-1.2 0c-0.2 0-0.2 0.1-0.2 0.3l0 0.7c-0.4 0.1-0.8 0.3-1.1 0.5l0 0 -0.5-0.5c-0.1-0.1-0.3-0.1-0.4 0l-0.8 0.9c-0.1 0.1-0.1 0.3 0 0.4l0.5 0.5c-0.2 0.3-0.3 0.6-0.4 1.1h0l-0.7 0c-0.2 0-0.2 0.1-0.2 0.3l0 1.2c0 0.2 0.1 0.3 0.2 0.3l0.7 0c0.1 0.4 0.3 0.8 0.5 1.1l0 0 -0.5 0.5c-0.1 0.1-0.1 0.3 0 0.4l0.9 0.8c0.1 0.1 0.3 0.1 0.4 0l0.5-0.5c0.3 0.2 0.7 0.3 1.1 0.4v0l0 0.7c0 0.2 0.1 0.3 0.2 0.3l1.2 0c0.2 0 0.3-0.1 0.3-0.3l0-0.7c0.4-0.1 0.7-0.3 1.1-0.5v0l0.5 0.5c0.1 0.1 0.3 0.1 0.4 0l0.8-0.9c0.1-0.1 0.1-0.3 0-0.4l-0.5-0.5c0.2-0.3 0.3-0.7 0.4-1.1h0l0.7 0c0.2 0 0.3-0.1 0.3-0.3l0-1.2C179.6 615.1 179.5 615 179.3 615zM174.3 617.6C174.3 617.6 174.2 617.6 174.3 617.6c-0.1 0-0.2-0.1-0.2-0.1 0 0 0 0-0.1 0s0 0-0.1 0c0 0 0 0 0 0 -0.1 0-0.1-0.1-0.2-0.2 -0.1-0.1-0.1-0.1-0.2-0.2 0 0 0-0.1-0.1-0.1 -0.1-0.1-0.1-0.2-0.1-0.3 -0.1-0.2-0.2-0.4-0.2-0.7 0-0.5 0.2-1 0.5-1.3 0 0 0.1-0.1 0.1-0.1 0 0 0 0 0 0 0 0 0 0 0.1-0.1 0.1 0 0.1-0.1 0.2-0.1 0 0 0.1 0 0.1 0 0.2-0.1 0.4-0.1 0.7-0.2 0.3 0 0.6 0.1 0.8 0.2 0 0 0.1 0 0.1 0 0 0 0.1 0 0.1 0.1 0 0 0 0 0.1 0 0 0 0 0 0 0 0 0 0 0 0.1 0.1 0 0 0.1 0.1 0.1 0.1 0 0 0 0 0.1 0.1 0 0.1 0.1 0.1 0.1 0.2 0 0 0 0 0 0.1 0 0 0 0 0 0.1 0 0 0 0.1 0.1 0.1 0.1 0.2 0.2 0.5 0.2 0.8 0 0.2 0 0.3 0 0.4 0 0 0 0.1 0 0.1 0 0 0 0.1 0 0.1 0 0 0 0.1 0 0.1 0 0 0 0 0 0.1 0 0 0 0.1-0.1 0.1 0 0 0 0 0 0.1 0 0 0 0 0 0.1 0 0 0 0 0 0 0 0 0 0 0 0 0 0 0 0-0.1 0.1 0 0 0 0 0 0 0 0 0 0-0.1 0.1 0 0 0 0 0 0 0 0-0.1 0.1-0.1 0.1 0 0 0 0 0 0 0 0 0 0-0.1 0.1 0 0 0 0-0.1 0 0 0 0 0 0 0 0 0 0 0-0.1 0 -0.2 0.1-0.5 0.2-0.8 0.2C174.8 617.8 174.5 617.7 174.3 617.6 174.3 617.6 174.3 617.6 174.3 617.6z" class="e"/>
	<path d="M131.1 593.7l-0.3 0c0-0.2-0.1-0.3-0.2-0.5l0 0 0.2-0.2c0 0 0-0.1 0-0.2l-0.4-0.4c0 0-0.1 0-0.2 0l-0.2 0.2c-0.1-0.1-0.3-0.1-0.5-0.2v0l0-0.3c0-0.1 0-0.1-0.1-0.1l-0.5 0c-0.1 0-0.1 0.1-0.1 0.1l0 0.3c-0.2 0-0.3 0.1-0.5 0.2l0 0 -0.2-0.2c0 0-0.1 0-0.2 0l-0.4 0.4c0 0 0 0.1 0 0.2l0.2 0.2c-0.1 0.1-0.1 0.3-0.2 0.5h0l-0.3 0c-0.1 0-0.1 0.1-0.1 0.1l0 0.5c0 0.1 0 0.1 0.1 0.1l0.3 0c0 0.2 0.1 0.3 0.2 0.5l0 0 -0.2 0.2c0 0 0 0.1 0 0.2l0.4 0.4c0 0 0.1 0 0.2 0l0.2-0.2c0.1 0.1 0.3 0.1 0.5 0.2v0l0 0.3c0 0.1 0 0.1 0.1 0.1l0.5 0c0.1 0 0.1-0.1 0.1-0.1l0-0.3c0.2 0 0.3-0.1 0.5-0.2v0l0.2 0.2c0 0 0.1 0 0.2 0l0.4-0.4c0 0 0-0.1 0-0.2l-0.2-0.2c0.1-0.1 0.1-0.3 0.2-0.4h0l0.3 0c0.1 0 0.1-0.1 0.1-0.1l0-0.5C131.3 593.7 131.2 593.7 131.1 593.7zM129 594.8C129 594.8 129 594.8 129 594.8 128.9 594.8 128.9 594.7 129 594.8c-0.1 0-0.1-0.1-0.1-0.1 0 0 0 0 0 0 0 0 0 0 0 0 0 0-0.1 0-0.1-0.1 0 0 0-0.1-0.1-0.1 0 0 0 0 0 0 0 0 0-0.1-0.1-0.1 0-0.1-0.1-0.2-0.1-0.3 0-0.2 0.1-0.4 0.2-0.6 0 0 0 0 0 0 0 0 0 0 0 0 0 0 0 0 0 0 0 0 0.1 0 0.1-0.1 0 0 0 0 0 0 0.1 0 0.2-0.1 0.3-0.1 0.1 0 0.2 0 0.3 0.1 0 0 0 0 0 0 0 0 0 0 0 0 0 0 0 0 0 0 0 0 0 0 0 0 0 0 0 0 0 0 0 0 0 0 0 0 0 0 0 0 0 0 0 0 0 0 0.1 0.1 0 0 0 0 0 0 0 0 0 0 0 0 0 0 0 0 0 0 0 0.1 0.1 0.2 0.1 0.3 0 0.1 0 0.1 0 0.2 0 0 0 0 0 0 0 0 0 0 0 0.1 0 0 0 0 0 0 0 0 0 0 0 0 0 0 0 0 0 0 0 0 0 0 0 0 0 0 0 0 0 0 0 0 0 0 0 0 0 0 0 0 0 0 0 0 0 0 0 0 0 0 0 0 0 0 0 0 0 0 0 0 0 0 0 0 0 0 0 0 0 0-0.1 0 0 0 0 0 0 0 0 0 0 0 0 0 0 0 0 0 0 0 0 0 0 0 0 0 0 0 0 0 0 0 -0.1 0.1-0.2 0.1-0.3 0.1C129.2 594.8 129.1 594.8 129 594.8 129 594.8 129 594.8 129 594.8z" class="e"/>
	<path d="M122.2 595.6l-0.2 0c0-0.1-0.1-0.2-0.1-0.3l0 0 0.1-0.1c0 0 0-0.1 0-0.1l-0.2-0.2c0 0-0.1 0-0.1 0l-0.2 0.1c-0.1 0-0.2-0.1-0.3-0.1v0l0-0.2c0 0 0-0.1-0.1-0.1l-0.3 0c0 0 0 0 0 0.1l0 0.2c-0.1 0-0.2 0.1-0.3 0.1l0 0 -0.1-0.1c0 0-0.1 0-0.1 0l-0.2 0.2c0 0 0 0.1 0 0.1l0.1 0.1c0 0.1-0.1 0.2-0.1 0.2h0l-0.2 0.1c0 0-0.1 0.1-0.1 0.1l0 0.3c0 0 0 0.1 0.1 0.1l0.2 0c0 0.1 0.1 0.2 0.1 0.3l0 0 -0.1 0.1c0 0 0 0.1 0 0.1l0.2 0.2c0 0 0.1 0 0.1 0l0.1-0.1c0.1 0 0.1 0.1 0.3 0.1v0l0 0.2c0 0 0 0.1 0.1 0.1l0.3 0c0 0 0.1 0 0.1-0.1l0-0.2c0.1 0 0.2-0.1 0.2-0.1v0l0.2 0.1c0 0 0.1 0 0.1 0l0.2-0.2c0 0 0-0.1 0-0.1l-0.1-0.1c0-0.1 0.1-0.1 0.1-0.3h0l0.2 0c0 0 0.1 0 0.1-0.1L122.2 595.6C122.3 595.6 122.2 595.6 122.2 595.6zM121 596.2C121 596.2 121 596.2 121 596.2 121 596.2 120.9 596.2 121 596.2 120.9 596.2 120.9 596.2 121 596.2 120.9 596.2 120.9 596.2 121 596.2 120.9 596.2 120.9 596.2 121 596.2c-0.1-0.1-0.1-0.1-0.1-0.1 0 0 0 0 0 0 0 0 0 0 0 0 0 0 0 0 0-0.1 0 0 0-0.1 0-0.2 0-0.1 0-0.2 0.1-0.3 0 0 0 0 0 0 0 0 0 0 0 0 0 0 0 0 0 0 0 0 0 0 0.1 0 0 0 0 0 0 0 0 0 0.1 0 0.2 0 0.1 0 0.1 0 0.2 0 0 0 0 0 0 0 0 0 0 0 0 0 0 0 0 0 0 0 0 0 0 0 0 0 0 0 0 0 0 0 0 0 0 0 0 0 0 0 0 0 0 0 0 0 0 0 0 0 0 0 0 0 0 0 0 0 0 0 0 0 0 0 0 0 0 0 0 0.1 0 0.1 0 0.2 0 0 0 0.1 0 0.1 0 0 0 0 0 0 0 0 0 0 0 0 0 0 0 0 0 0 0 0 0 0 0 0 0 0 0 0 0 0 0 0 0 0 0 0 0 0 0 0 0 0 0 0 0 0 0 0 0 0 0 0 0 0 0 0 0 0 0 0 0 0 0 0 0 0 0 0 0 0 0 0 0 0 0 0 0 0 0 0 0 0 0 0 0 0 0 0 0 0 0 0 0 0 0 0 0 0 0 0 0 0 0 0 0 0 0 0 0 0 0 0 0 0 -0.1 0-0.1 0-0.2 0.1C121.1 596.3 121 596.3 121 596.2 121 596.3 121 596.2 121 596.2z" class="e"/>
	<path d="M168.2 606.5l-0.3 0c0-0.2-0.1-0.3-0.2-0.5l0 0 0.2-0.2c0 0 0-0.1 0-0.2l-0.4-0.4c0 0-0.1 0-0.2 0l-0.2 0.2c-0.1-0.1-0.4-0.1-0.5-0.2v0l0-0.3c0-0.1 0-0.1-0.1-0.1l-0.5 0c-0.1 0-0.1 0.1-0.1 0.1l0 0.3c-0.2 0-0.3 0.1-0.5 0.2l0 0 -0.2-0.2c0 0-0.1 0-0.2 0l-0.4 0.4c0 0 0 0.1 0 0.2l0.2 0.2c-0.1 0.1-0.1 0.3-0.2 0.4h0l-0.3 0.1c-0.1 0-0.1 0.1-0.1 0.1l0 0.5c0 0.1 0 0.1 0.1 0.1l0.3 0c0 0.2 0.1 0.3 0.2 0.5l0 0 -0.2 0.2c0 0 0 0.1 0 0.2l0.4 0.4c0 0 0.1 0 0.2 0l0.2-0.2c0.1 0.1 0.3 0.1 0.5 0.2v0l0 0.3c0 0.1 0 0.1 0.1 0.1l0.5 0c0.1 0 0.1-0.1 0.1-0.1l0-0.3c0.2 0 0.3-0.1 0.5-0.2v0l0.2 0.2c0 0 0.1 0 0.2 0l0.4-0.4c0 0 0-0.1 0-0.2l-0.2-0.2c0.1-0.1 0.1-0.3 0.2-0.5h0l0.3 0c0.1 0 0.1-0.1 0.1-0.1l0-0.5C168.3 606.5 168.2 606.5 168.2 606.5zM166 607.6C166 607.6 166 607.6 166 607.6 166 607.6 165.9 607.6 166 607.6c-0.1 0-0.1-0.1-0.1-0.1 0 0 0 0 0 0 0 0 0 0 0 0 0 0-0.1 0-0.1-0.1 0 0 0-0.1-0.1-0.1 0 0 0 0 0 0 0 0 0-0.1-0.1-0.1 0-0.1-0.1-0.2-0.1-0.3 0-0.2 0.1-0.4 0.2-0.6 0 0 0 0 0 0 0 0 0 0 0 0 0 0 0 0 0 0 0 0 0.1 0 0.1-0.1 0 0 0 0 0 0 0.1 0 0.2-0.1 0.3-0.1 0.1 0 0.2 0 0.3 0.1 0 0 0 0 0 0 0 0 0 0 0 0 0 0 0 0 0 0 0 0 0 0 0 0 0 0 0 0 0 0 0 0 0 0 0 0 0 0 0 0 0 0 0 0 0 0 0.1 0.1 0 0 0 0 0 0 0 0 0 0 0 0 0 0 0 0 0 0 0 0.1 0.1 0.2 0.1 0.3 0 0.1 0 0.1 0 0.2 0 0 0 0 0 0 0 0 0 0 0 0.1 0 0 0 0 0 0 0 0 0 0 0 0 0 0 0 0 0 0 0 0 0 0 0 0 0 0 0 0 0 0 0 0 0 0 0 0 0 0 0 0 0 0 0 0 0 0 0 0 0 0 0 0 0 0 0 0 0 0 0 0 0 0 0 0 0 0 0 0 0 0-0.1 0 0 0 0 0 0 0 0 0 0 0 0 0 0 0 0 0 0 0 0 0 0 0 0 0 0 0 0 0 0 0 -0.1 0.1-0.2 0.1-0.3 0.1C166.2 607.6 166.1 607.6 166 607.6 166 607.6 166 607.6 166 607.6z" class="e"/>
	<rect x="28" y="511.4" width="116.1" height="80.9" class="g"/>
	<text transform="matrix(1 0 0 1 82.2585 521.5457)"><tspan x="0" y="0" font-family="'OpenSans-Light'" font-size="13.3098" letter-spacing="1" class="b">  ideia de </tspan><tspan x="-33" y="16" font-family="'OpenSans-Light'" font-size="13.3098" letter-spacing="1" class="b">  negócio ou </tspan><tspan x="-27.8" y="31.9" font-family="'OpenSans-Extrabold'" font-size="13.3098" letter-spacing="1" class="b">  protótipo</tspan></text><g class="o"><path d="M250.5 845.7c-0.1 0-0.2 0-0.2 0 0.2-0.5 0.2-1 0.2-1.6 0-3.2-2.8-5.7-6.3-5.7 -3.2 0-5.8 2.2-6.2 4.9 -0.4-0.1-0.8-0.2-1.2-0.2 -2.5 0-4.5 1.8-4.5 4.1s2 4.1 4.5 4.1h13.7c1.7 0 3.1-1.3 3.1-2.8S252.2 845.7 250.5 845.7z" class="b"/>
</g><g class="o"><path d="M350 838c-0.1 0-0.2 0-0.3 0 0.2-0.5 0.3-1 0.3-1.6 0-3.2-3.3-5.7-7.5-5.7 -3.8 0-6.9 2.2-7.4 4.9 -0.5-0.1-0.9-0.2-1.4-0.2 -2.9 0-5.3 1.8-5.3 4.1s2.4 4.1 5.3 4.1H350c2 0 3.7-1.3 3.7-2.8C353.7 839.2 352 838 350 838z" class="b"/>
</g><g class="o"><path d="M302.1 838.8c0 0-0.1 0-0.1 0 0.1-0.3 0.1-0.5 0.1-0.8 0-1.6-1.6-2.9-3.5-2.9 -1.8 0-3.2 1.1-3.4 2.5 -0.2 0-0.4-0.1-0.7-0.1 -1.4 0-2.5 0.9-2.5 2.1 0 1.1 1.1 2.1 2.5 2.1h7.6c0.9 0 1.7-0.6 1.7-1.4S303.1 838.8 302.1 838.8z" class="b"/>
</g><g class="o"><path d="M242.9 873.9c-0.1 0-0.1 0-0.2 0 0.1-0.4 0.2-0.8 0.2-1.2 0-2.4-2.3-4.3-5.1-4.3 -2.6 0-4.7 1.6-5 3.7 -0.3-0.1-0.6-0.1-1-0.1 -2 0-3.6 1.4-3.6 3 0 1.7 1.6 3 3.6 3h11.1c1.4 0 2.5-0.9 2.5-2.1C245.4 874.8 244.3 873.9 242.9 873.9z" class="b"/>
</g><g class="o"><path d="M350.7 897.1c-0.1 0-0.1 0-0.2 0 0.1-0.4 0.2-0.8 0.2-1.2 0-2.4-2.3-4.3-5.1-4.3 -2.6 0-4.7 1.6-5 3.7 -0.3-0.1-0.6-0.1-1-0.1 -2 0-3.6 1.4-3.6 3 0 1.7 1.6 3 3.6 3h11.1c1.4 0 2.5-0.9 2.5-2.1C353.2 898 352.1 897.1 350.7 897.1z" class="b"/>
</g><rect x="261.7" y="867.1" width="64.5" height="51.2" class="d"/>
	<polygon points="261.7 869.9 258.7 885.9 265.2 885.9 267.8 869.9 " class="b"/>
	<polygon points="267.8 869.9 265.2 885.9 271.6 885.9 273.9 869.9 " class="k"/>
	<polygon points="273.9 869.9 271.6 885.9 278 885.9 280 869.9 " class="b"/>
	<polygon points="280 869.9 278 885.9 284.4 885.9 286.1 869.9 " class="k"/>
	<polygon points="286.1 869.9 284.4 885.9 290.8 885.9 291.6 869.9 " class="b"/>
	<polygon points="326.2 869.9 320.1 869.9 322.8 885.9 329.2 885.9 " class="b"/>
	<polygon points="314 869.9 316.4 885.9 322.8 885.9 320.1 869.9 " class="k"/>
	<polygon points="308 869.9 310 885.9 316.4 885.9 314 869.9 " class="b"/>
	<polygon points="301.9 869.9 303.6 885.9 310 885.9 308 869.9 " class="k"/>
	<polygon points="296.3 869.9 297.2 885.9 303.6 885.9 301.9 869.9 " class="b"/>
	<polygon points="295.8 869.9 294 869.9 292.2 869.9 291.6 869.9 290.8 885.9 294 885.9 297.2 885.9 296.3 869.9 " class="k"/>
	<path d="M261.9 888.8c1.8 0 3.2-1.3 3.2-2.9h-6.4C258.7 887.5 260.2 888.8 261.9 888.8z" class="d"/>
	<path d="M268.4 888.8c1.8 0 3.2-1.3 3.2-2.9h-6.4C265.2 887.5 266.6 888.8 268.4 888.8z" class="a"/>
	<path d="M274.8 888.8c1.8 0 3.2-1.3 3.2-2.9h-6.4C271.6 887.5 273 888.8 274.8 888.8z" class="d"/>
	<path d="M281.2 888.8c1.8 0 3.2-1.3 3.2-2.9H278C278 887.5 279.4 888.8 281.2 888.8z" class="a"/>
	<path d="M287.6 888.8c1.8 0 3.2-1.3 3.2-2.9h-6.4C284.4 887.5 285.8 888.8 287.6 888.8z" class="d"/>
	<path d="M294 888.8c1.8 0 3.2-1.3 3.2-2.9h-6.4C290.8 887.5 292.2 888.8 294 888.8z" class="a"/>
	<path d="M300.4 888.8c1.8 0 3.2-1.3 3.2-2.9h-6.4C297.2 887.5 298.6 888.8 300.4 888.8z" class="d"/>
	<path d="M306.8 888.8c1.8 0 3.2-1.3 3.2-2.9h-6.4C303.6 887.5 305 888.8 306.8 888.8z" class="a"/>
	<path d="M313.2 888.8c1.8 0 3.2-1.3 3.2-2.9H310C310 887.5 311.4 888.8 313.2 888.8z" class="d"/>
	<path d="M319.6 888.8c1.8 0 3.2-1.3 3.2-2.9h-6.4C316.4 887.5 317.8 888.8 319.6 888.8z" class="a"/>
	<path d="M326 888.8c1.8 0 3.2-1.3 3.2-2.9h-6.4C322.8 887.5 324.2 888.8 326 888.8z" class="d"/>
	<rect x="261.7" y="864.7" width="64.5" height="3.1" class="i"/>
	<rect x="261.7" y="867.1" width="64.5" height="1.5" class="h"/>
	<rect x="270.1" y="858" width="1.5" height="7.6" class="i"/>
	<rect x="315.6" y="858" width="1.5" height="7.6" class="i"/>
	<rect x="270.8" y="861.5" width="0.7" height="3.2" class="h"/>
	<rect x="316.4" y="861.5" width="0.7" height="3.2" class="h"/>
	<rect x="266.8" y="850.3" width="53.9" height="11.9" class="n"/>
	<path d="M319.5 851.4v9.7H268v-9.7H319.5M320.7 850.3h-53.9v11.9h53.9V850.3L320.7 850.3z" class="h"/>
	<defs><rect x="266.8" y="892.1" width="35.1" height="21.4"/>
</defs><clipPath><use xlink:href="#SVGID_1_"/>
</clipPath><g class="p"><rect x="266.8" y="892.1" width="35.1" height="21.4" class="h"/>
</g><g class="p"><polygon points="271.3 916.8 266 914.4 279.6 889.3 284.9 891.7 " class="i"/>
</g><g class="p"><polygon points="263.7 914.3 261.8 913.4 275.3 888.3 277.3 889.1 " class="i"/>
</g><path d="M302.7 914.3h-36.8v-23h36.8V914.3zM267.6 912.7H301v-19.9h-33.4V912.7z" class="q"/>
	<rect x="307.2" y="891.3" width="14.7" height="27" class="h"/>
	<defs><rect x="307.2" y="891.3" width="14.7" height="27"/>
</defs><clipPath><use xlink:href="#SVGID_3_"/>
</clipPath><g class="r"><polygon points="302.2 905.3 306.3 907.7 317.7 891.2 313.5 888.8 " class="i"/>
</g><g class="r"><polygon points="304.9 912.1 306.9 913.2 322.2 890.9 320.3 889.8 " class="i"/>
</g><path d="M307.2 891.3v27h14.7v-27H307.2zM320.1 892.8V904H314v-0.9h-3.7v0.9h-1.5v-11.2H320.1zM308.8 916.8v-11.2h1.5v0.9h3.7v-0.9h6.1v11.2H308.8z" class="q"/>
	<rect x="268.1" y="852.4" width="51.2" height="7.7" class="g"/>
	<text transform="matrix(1.0964 0 0 1 271.0483 859.8776)" font-family="'OpenSans-Extrabold'" font-size="9.8489" class="i">  MARKET</text><rect x="217.6" y="801.5" width="146.7" height="21.4" class="g"/>
	<text transform="matrix(1 0 0 1 252.6367 811.5974)" font-family="'OpenSans-Extrabold'" font-size="13.3098" letter-spacing="1" class="b">  mercado</text><rect x="393.8" y="579.3" width="99.6" height="38.9" class="g"/>
	<text transform="matrix(1 0 0 1 393.8284 589.3937)"><tspan x="0" y="0" font-family="'OpenSans-Light'" font-size="13.3098" letter-spacing="1" class="b">  Em</tspan><tspan x="0" y="16" font-family="'OpenSans-Extrabold'" font-size="13.3098" letter-spacing="1" class="b">produção</tspan></text><path d="M441.2 657.7l-1.4 1 -2.1-0.3 -4.6-6.6 3.9-2.7 4.6 6.6L441.2 657.7z" class="m"/>
	<path d="M446 662.1l-1 0.3 -1.5-2.3 -4.1-3.7 1.4-1.6 4.1 3.7L446 662.1z" class="c"/>
	<path d="M442.4 664.7l0.7-0.8 -1.7-2.3 -2.1-5.2 -2 0.8 2.1 5.2L442.4 664.7z" class="c"/>
	<path d="M431.1 640.6l-4.4-6.3 -3.9 3 8.3 11.8v1.9l-9.5-13.6c-0.2-0.2-0.1-0.6 0.1-0.8l4.7-3.7 0 0c0 0 0 0 0 0 0.3-0.2 0.6-0.1 0.8 0.1l3.8 5.5V640.6zM439.9 654.9c-0.3 0.4-0.6 0.8-1 1 -0.4 0.3-0.9 0.5-1.3 0.6 -1.2 0.3-2.6-0.1-3.6-1.5l-2.9-4.1v-1.9l3.8 5.4c0.7 1 1.6 1.2 2.4 1 0.3-0.1 0.7-0.2 0.9-0.4 0.3-0.2 0.5-0.5 0.7-0.7 0.5-0.7 0.6-1.7-0.1-2.6l-7.8-11.2v-1.9l8.7 12.5C440.7 652.5 440.6 653.9 439.9 654.9z" class="c"/>
	<path d="M439.3 651.4l-12.5-17.9 -4.7 3.7 12.4 17.7C436.7 658.1 441.6 654.6 439.3 651.4z" class="k"/>
	<path d="M402.8 661.3c-0.1-0.9 0.1-1.9 0.6-2.6l12-16.6v1.9l-11.1 15.4c-0.4 0.5-0.5 1.2-0.4 1.8 0.1 0.6 0.4 1.2 1 1.6l0 0c0.5 0.4 1.2 0.5 1.8 0.4 0.6-0.1 1.2-0.4 1.6-1l0 0 7.2-9.9v1.9l-6.3 8.7c0 0 0 0 0 0.1 -0.6 0.8-1.4 1.3-2.3 1.4 -0.9 0.1-1.8 0-2.6-0.6 0 0 0 0-0.1 0C403.4 663 402.9 662.2 402.8 661.3zM415.4 652.2l11.1-15.4c0.4-0.5 0.5-1.2 0.4-1.8 -0.1-0.6-0.4-1.2-1-1.6 0 0 0 0 0 0 -0.5-0.4-1.2-0.5-1.8-0.4 -0.6 0.1-1.2 0.4-1.6 1l0 0 -7.2 9.9V642l6.3-8.7c0 0 0 0 0-0.1 0.6-0.8 1.4-1.3 2.3-1.4 0.9-0.1 1.8 0 2.6 0.6 0 0 0 0 0.1 0 0.8 0.6 1.3 1.4 1.4 2.3 0.1 0.9-0.1 1.9-0.6 2.6l-12 16.6V652.2z" class="c"/>
	<path d="M404.5 663.2L404.5 663.2c1.3 1 3.2 0.7 4.2-0.7l18.3-25.3c1-1.3 0.7-3.2-0.7-4.2l0 0c-1.3-1-3.2-0.7-4.2 0.7L403.8 659C402.9 660.3 403.2 662.2 404.5 663.2z" class="k"/>
	<path d="M376 665.1l29.9 0.1c1.4 0 2.6-0.6 3.6-1.5 0.9-0.9 1.5-2.2 1.5-3.5v0 0h0v0c0 0 0 0 0-0.1 0-1.4-0.6-2.6-1.5-3.5 -0.9-0.9-2.2-1.5-3.5-1.5l-30-0.1v1.1l30 0.1c1.1 0 2.1 0.5 2.8 1.2 0.7 0.7 1.1 1.7 1.1 2.7 0 0 0 0 0 0v0h0c0 1.1-0.5 2.1-1.2 2.8 -0.7 0.7-1.7 1.1-2.8 1.1L376 664V665.1z" class="c"/>
	<path d="M376 664.5l29.9 0.1c2.5 0 4.5-2 4.5-4.5v0c0-2.5-2-4.5-4.5-4.5l-30-0.1V664.5z" class="k"/>
	<circle cx="405.9" cy="660.3" r="2.3" class="c"/>
	<circle cx="424.4" cy="635.6" r="1.8" class="c"/>
	<circle cx="424.4" cy="635.6" r="0.6" class="b"/>
	<circle cx="405.9" cy="660.3" r="0.6" class="b"/>
	<path d="M517.5 684.2c-1.1-1-2.4-1.8-3.7-2.6l-1.1 1.9c-1.2-0.7-2.4-1.3-3.7-1.7l0.8-2.1c-1.4-0.5-2.8-0.9-4.3-1.2l-0.4 2.2c-1.3-0.2-2.7-0.4-4.1-0.4v-2.2c-1.5 0-3 0.1-4.5 0.4l0.4 2.2c-1.4 0.2-2.7 0.6-4 1.1l-0.8-2.1c-1.4 0.5-2.8 1.2-4.1 1.9l1.1 1.9c-1.2 0.7-2.3 1.5-3.4 2.4l-1.4-1.7c-1.1 1-2.2 2-3.2 3.2l1.7 1.4c-0.9 1-1.7 2.2-2.4 3.4l-1.9-1.1c-0.7 1.3-1.4 2.6-1.9 4.1l2.1 0.8c-0.5 1.3-0.8 2.6-1.1 4l-2.2-0.4c-0.3 1.5-0.4 2.9-0.4 4.5h2.2c0 1.4 0.1 2.8 0.4 4.1l-2.2 0.4c0.3 1.5 0.7 2.9 1.2 4.3l2.1-0.8c0.5 1.3 1.1 2.5 1.7 3.7l-1.9 1.1c0.8 1.3 1.6 2.5 2.6 3.7l1.7-1.4c0.9 1 1.9 2 2.9 2.9l-1.4 1.7c1.1 1 2.4 1.8 3.7 2.6l1.1-1.9c1.2 0.7 2.4 1.3 3.7 1.7l-0.8 2.1c1.4 0.5 2.8 0.9 4.3 1.2l0.4-2.2c1.3 0.2 2.7 0.4 4.1 0.4v2.2c1.5 0 3-0.1 4.5-0.4l-0.4-2.2c1.4-0.2 2.7-0.6 4-1.1l0.8 2.1c1.4-0.5 2.8-1.2 4.1-1.9l-1.1-1.9c1.2-0.7 2.3-1.5 3.4-2.4l1.4 1.7c1.1-1 2.2-2 3.2-3.2l-1.7-1.4c0.9-1 1.7-2.2 2.4-3.4l1.9 1.1c0.7-1.3 1.4-2.6 1.9-4.1l-2.1-0.8c0.5-1.3 0.8-2.6 1.1-4l2.2 0.4c0.3-1.5 0.4-2.9 0.4-4.5h-2.2c0-1.4-0.1-2.8-0.4-4.1l2.2-0.4c-0.3-1.5-0.7-2.9-1.2-4.3l-2.1 0.8c-0.5-1.3-1.1-2.5-1.7-3.7l1.9-1.1c-0.8-1.3-1.6-2.5-2.6-3.7l-1.7 1.4M485.3 703.9c0-8.6 7-15.6 15.6-15.6 8.6 0 15.6 7 15.6 15.6 0 8.6-7 15.6-15.6 15.6C492.3 719.6 485.3 712.6 485.3 703.9z" class="i"/>
	<path d="M462.1 676.1l-0.8 0.1c0.1 0.6 0.2 1.1 0.4 1.6l0.8-0.3c0.2 0.5 0.4 0.9 0.6 1.4l-0.7 0.4c0.3 0.5 0.6 0.9 1 1.4l0.6-0.5c0.3 0.4 0.7 0.7 1.1 1.1l-0.5 0.6c0.4 0.4 0.9 0.7 1.4 1l0.4-0.7c0.4 0.3 0.9 0.5 1.4 0.6l-0.3 0.8c0.5 0.2 1 0.3 1.6 0.4l0.1-0.8c0.5 0.1 1 0.1 1.5 0.1v0.8c0.6 0 1.1 0 1.7-0.1l-0.1-0.8c0.5-0.1 1-0.2 1.5-0.4l0.3 0.8c0.5-0.2 1-0.4 1.5-0.7l-0.4-0.7c0.4-0.3 0.9-0.5 1.2-0.9l0.5 0.6c0.4-0.4 0.8-0.7 1.2-1.2l-0.6-0.5c0.3-0.4 0.6-0.8 0.9-1.2l0.7 0.4c0.3-0.5 0.5-1 0.7-1.5l-0.8-0.3c0.2-0.5 0.3-1 0.4-1.5l0.8 0.1c0.1-0.5 0.1-1.1 0.1-1.7h-0.8c0-0.5 0-1-0.1-1.5l0.8-0.1c-0.1-0.6-0.2-1.1-0.4-1.6l-0.8 0.3c-0.2-0.5-0.4-0.9-0.6-1.4l0.7-0.4c-0.3-0.5-0.6-0.9-1-1.4l-0.6 0.5c-0.3-0.4-0.7-0.7-1.1-1.1l0.5-0.6c-0.4-0.4-0.9-0.7-1.4-1L475 667c-0.4-0.3-0.9-0.5-1.4-0.6l0.3-0.8c-0.5-0.2-1.1-0.3-1.6-0.4l-0.1 0.8c-0.5-0.1-1-0.1-1.5-0.1v-0.8c-0.6 0-1.1 0-1.7 0.1l0.1 0.8c-0.5 0.1-1 0.2-1.5 0.4l-0.3-0.8c-0.5 0.2-1 0.4-1.5 0.7l0.4 0.7c-0.4 0.3-0.9 0.5-1.2 0.9l-0.5-0.6c-0.4 0.4-0.8 0.7-1.2 1.2l0.6 0.5c-0.3 0.4-0.6 0.8-0.9 1.2l-0.7-0.4c-0.3 0.5-0.5 1-0.7 1.5l0.8 0.3c-0.2 0.5-0.3 1-0.4 1.5l-0.8-0.1c-0.1 0.5-0.1 1.1-0.1 1.7h0.8C461.9 675.1 462 675.6 462.1 676.1zM464.9 674.6c0-3.2 2.6-5.8 5.8-5.8s5.8 2.6 5.8 5.8c0 3.2-2.6 5.8-5.8 5.8S464.9 677.8 464.9 674.6z" style="fill:#5686AA;opacity:0.7"/>
	<path d="M420.1 727.1h24.6c2.1 0 3.7 1.7 3.7 3.7v0c0 2.1-1.7 3.7-3.7 3.7h-24.6V727.1z" class="c"/>
	<path d="M420.1 726.5h24.6c1.2 0 2.3 0.5 3 1.3 0.8 0.8 1.3 1.9 1.3 3v0c0 1.2-0.5 2.3-1.3 3 -0.8 0.8-1.9 1.3-3 1.3h-24.6V734h24.6c0.9 0 1.7-0.4 2.3-0.9 0.6-0.6 0.9-1.4 0.9-2.3v0c0-0.9-0.4-1.7-0.9-2.3 -0.6-0.6-1.4-0.9-2.3-0.9h-24.6V726.5z" class="b"/>
	<path d="M420.1 729c0.7 0.3 1.3 1 1.3 1.8 0 0.8-0.5 1.5-1.3 1.8V729z" class="n"/>
	<circle cx="425.8" cy="730.8" r="1.9" class="n"/>
	<circle cx="432.1" cy="730.8" r="1.9" class="n"/>
	<circle cx="438.4" cy="730.8" r="1.9" class="n"/>
	<circle cx="444.8" cy="730.8" r="1.9" class="n"/>
	<path d="M420.1 730.3h24.8c0.3 0 0.5 0.2 0.5 0.5v0c0 0.3-0.2 0.5-0.5 0.5h-24.8V730.3z" class="n"/>
	<circle cx="425.8" cy="730.8" r="0.6" class="b"/>
	<circle cx="432.1" cy="730.8" r="0.6" class="b"/>
	<circle cx="438.4" cy="730.8" r="0.6" class="b"/>
	<path d="M441.6 717.1c-0.8 0.1-1.6 0.4-2.4 0.6l-0.5-1.3c-0.9 0.3-1.7 0.7-2.5 1.2l0.7 1.2c-0.7 0.4-1.4 0.9-2 1.4l-0.9-1.1c-0.7 0.6-1.3 1.2-1.9 1.9l1.1 0.9c-0.5 0.6-1 1.3-1.4 2l-1.2-0.7c-0.5 0.8-0.8 1.6-1.2 2.5l1.3 0.5c-0.3 0.8-0.5 1.6-0.6 2.4l-1.4-0.2c-0.2 0.9-0.2 1.8-0.2 2.7l0 0h1.4c0 0.8 0.1 1.7 0.2 2.5l-1.4 0.2c0.2 0.9 0.4 1.8 0.7 2.6l1.3-0.5c0.3 0.8 0.6 1.5 1 2.2l-1.2 0.7c0.5 0.8 1 1.5 1.6 2.2l1.1-0.9c0.5 0.6 1.1 1.2 1.7 1.7l-0.9 1.1c0.7 0.6 1.4 1.1 2.2 1.6l0.7-1.2c0.7 0.4 1.5 0.8 2.2 1l-0.5 1.3c0.8 0.3 1.7 0.5 2.6 0.7l0.2-1.4c0.8 0.1 1.6 0.2 2.5 0.2v1.4c0.9 0 1.8-0.1 2.7-0.2l-0.2-1.4c0.8-0.1 1.6-0.4 2.4-0.6l0.5 1.3c0.9-0.3 1.7-0.7 2.5-1.2l-0.7-1.2c0.7-0.4 1.4-0.9 2-1.4l0.9 1.1c0.7-0.6 1.3-1.2 1.9-1.9l-1.1-0.9c0.5-0.6 1-1.3 1.4-2l1.2 0.7c0.5-0.8 0.8-1.6 1.2-2.5l-1.3-0.5c0.3-0.8 0.5-1.6 0.6-2.4l1.4 0.2c0.2-0.9 0.2-1.8 0.2-2.7l0 0h-1.4c0-0.8-0.1-1.7-0.2-2.5l1.4-0.2c-0.2-0.9-0.4-1.8-0.7-2.6l-1.3 0.5c-0.3-0.8-0.6-1.5-1-2.2l1.2-0.7c-0.5-0.8-1-1.5-1.6-2.2l-1.1 0.9c-0.5-0.6-1.1-1.2-1.7-1.7l0.9-1.1c-0.7-0.6-1.4-1.1-2.2-1.6l-0.7 1.2c-0.7-0.4-1.5-0.8-2.2-1l0.5-1.3c-0.8-0.3-1.7-0.5-2.6-0.7l-0.2 1.4c-0.8-0.1-1.6-0.2-2.5-0.2v-1.4c-0.9 0-1.8 0.1-2.7 0.2L441.6 717.1z" class="s"/>
	<path d="M441.4 715.7c0.9-0.2 1.8-0.2 2.7-0.2v1.4c0.8 0 1.7 0.1 2.5 0.2l0.2-1.4c0.9 0.2 1.8 0.4 2.6 0.7l-0.5 1.3c0.8 0.3 1.5 0.6 2.2 1l0.7-1.2c0.8 0.5 1.5 1 2.2 1.6l-0.9 1.1c0.6 0.5 1.2 1.1 1.7 1.7l1.1-0.9c0.6 0.7 1.1 1.4 1.6 2.2l-1.2 0.7c0.4 0.7 0.8 1.5 1 2.2l1.3-0.5c0.3 0.8 0.5 1.7 0.7 2.6l-1.4 0.2c0.1 0.8 0.2 1.6 0.2 2.5h1.4l0 0c0 0.9-0.1 1.8-0.2 2.7l-1.4-0.2c-0.1 0.8-0.4 1.6-0.6 2.4l1.3 0.5c-0.3 0.9-0.7 1.7-1.2 2.5l-1.2-0.7c-0.4 0.7-0.9 1.4-1.4 2l1.1 0.9c-0.6 0.7-1.2 1.3-1.9 1.9l-0.9-1.1c-0.6 0.5-1.3 1-2 1.4l0.7 1.2c-0.8 0.5-1.6 0.8-2.5 1.2l-0.5-1.3c-0.8 0.3-1.6 0.5-2.4 0.6l0.2 1.4c-0.9 0.2-1.8 0.2-2.7 0.2v-1.4c-0.8 0-1.7-0.1-2.5-0.2l-0.2 1.4c-0.9-0.2-1.8-0.4-2.6-0.7l0.5-1.3c-0.8-0.3-1.5-0.6-2.2-1l-0.7 1.2c-0.8-0.5-1.5-1-2.2-1.6l0.9-1.1c-0.6-0.5-1.2-1.1-1.7-1.7l-1.1 0.9c-0.6-0.7-1.1-1.4-1.6-2.2l1.2-0.7c-0.4-0.7-0.8-1.5-1-2.2l-1.3 0.5c-0.3-0.8-0.5-1.7-0.7-2.6l1.4-0.2c-0.1-0.8-0.2-1.6-0.2-2.5h-1.4l0 0c0-0.9 0.1-1.8 0.2-2.7l1.4 0.2c0.1-0.8 0.4-1.6 0.6-2.4l-1.3-0.5c0.3-0.9 0.7-1.7 1.2-2.5l1.2 0.7c0.4-0.7 0.9-1.4 1.4-2l-1.1-0.9c0.6-0.7 1.2-1.3 1.9-1.9l0.9 1.1c0.6-0.5 1.3-1 2-1.4l-0.7-1.2c0.8-0.5 1.6-0.8 2.5-1.2l0.5 1.3c0.8-0.3 1.6-0.5 2.4-0.6L441.4 715.7z" class="k"/>
	<path d="M420.1 692.2h40.8c2.1 0 3.7 1.7 3.7 3.7l0 0c0 2.1-1.7 3.7-3.7 3.7h-40.8V692.2z" class="c"/>
	<path d="M420.1 691.6h40.8c1.2 0 2.3 0.5 3 1.3s1.3 1.9 1.3 3l0 0c0 1.2-0.5 2.3-1.3 3 -0.8 0.8-1.9 1.3-3 1.3h-40.8v-1.1h40.8c0.9 0 1.7-0.4 2.3-0.9 0.6-0.6 0.9-1.4 0.9-2.3l0 0c0-0.9-0.4-1.7-0.9-2.3 -0.6-0.6-1.4-0.9-2.3-0.9h-40.8V691.6z" class="b"/>
	<circle cx="422.9" cy="695.9" r="1.9" class="n"/>
	<circle cx="429.3" cy="695.9" r="1.9" class="n"/>
	<circle cx="435.6" cy="695.9" r="1.9" class="n"/>
	<circle cx="441.9" cy="695.9" r="1.9" class="n"/>
	<circle cx="448.2" cy="695.9" r="1.9" class="n"/>
	<circle cx="454.6" cy="695.9" r="1.9" class="n"/>
	<circle cx="460.9" cy="695.9" r="1.9" class="n"/>
	<path d="M420.1 695.4h41c0.3 0 0.5 0.2 0.5 0.5l0 0c0 0.3-0.2 0.5-0.5 0.5h-41V695.4z" class="n"/>
	<circle cx="422.9" cy="695.9" r="0.6" class="b"/>
	<circle cx="429.3" cy="695.9" r="0.6" class="b"/>
	<circle cx="435.6" cy="695.9" r="0.6" class="b"/>
	<circle cx="441.9" cy="695.9" r="0.6" class="b"/>
	<circle cx="448.2" cy="695.9" r="0.6" class="b"/>
	<circle cx="454.6" cy="695.9" r="0.6" class="b"/>
	<circle cx="454.6" cy="695.9" r="0.6" class="b"/>
	<path d="M494.2 724.3L462.9 693c-1.5-1.5-3.8-1.5-5.3 0v0c-1.5 1.5-1.5 3.8 0 5.3l31.3 31.3c1.5 1.5 3.8 1.5 5.3 0h0C495.7 728.1 495.7 725.7 494.2 724.3z" class="c"/>
	<path d="M475.9 706.8l-13.4-13.4c-0.6-0.6-1.4-0.9-2.3-0.9 -0.8 0-1.6 0.3-2.3 0.9v0c-0.6 0.6-0.9 1.4-0.9 2.3 0 0.8 0.3 1.6 0.9 2.3l17.9 17.9v1.6l-18.7-18.7c-0.8-0.8-1.3-1.9-1.3-3 0-1.1 0.4-2.2 1.3-3v0c0.8-0.8 1.9-1.3 3-1.3 1.1 0 2.2 0.4 3 1.3l12.6 12.6V706.8zM495.9 726.9c0 1.1-0.4 2.2-1.3 3l0 0c-0.8 0.8-1.9 1.3-3 1.3 -1.1 0-2.2-0.4-3-1.3l-12.6-12.6v-1.6l13.4 13.4c0.6 0.6 1.4 0.9 2.3 0.9 0.8 0 1.6-0.3 2.3-0.9l0 0c0.6-0.6 0.9-1.4 0.9-2.3 0-0.8-0.3-1.6-0.9-2.3l-17.9-17.9v-1.6l18.7 18.7C495.5 724.7 495.9 725.8 495.9 726.9z" class="b"/>
	<circle cx="491.6" cy="726.9" r="1.9" class="n"/>
	<circle cx="487.1" cy="722.5" r="1.9" class="n"/>
	<circle cx="482.6" cy="718" r="1.9" class="n"/>
	<circle cx="478.2" cy="713.5" r="1.9" class="n"/>
	<circle cx="473.7" cy="709" r="1.9" class="n"/>
	<circle cx="469.2" cy="704.6" r="1.9" class="n"/>
	<circle cx="464.8" cy="700.1" r="1.9" class="n"/>
	<circle cx="460.3" cy="695.6" r="1.9" class="n"/>
	<path d="M492 726.6l-31.5-31.5c-0.2-0.2-0.5-0.2-0.7 0l0 0c-0.2 0.2-0.2 0.5 0 0.7l31.5 31.5c0.2 0.2 0.5 0.2 0.7 0v0C492.2 727.1 492.2 726.8 492 726.6z" class="n"/>
	<circle cx="464.8" cy="700.1" r="0.6" class="b"/>
	<circle cx="469.2" cy="704.6" r="0.6" class="b"/>
	<circle cx="473.7" cy="709" r="0.6" class="b"/>
	<circle cx="478.2" cy="713.5" r="0.6" class="b"/>
	<circle cx="482.6" cy="718" r="0.6" class="b"/>
	<circle cx="487.1" cy="722.5" r="0.6" class="b"/>
	<circle cx="487.1" cy="722.5" r="0.6" class="b"/>
	<path d="M491.5 723.2h44.3c2.1 0 3.7 1.7 3.7 3.7l0 0c0 2.1-1.7 3.7-3.7 3.7h-44.3c-2.1 0-3.7-1.7-3.7-3.7l0 0C487.8 724.9 489.5 723.2 491.5 723.2z" class="c"/>
	<path d="M488.5 723.9c-0.8 0.8-1.3 1.9-1.3 3l0 0c0 1.2 0.5 2.3 1.3 3 0.8 0.8 1.9 1.3 3 1.3h22.1v-1.1h-22.1c-0.9 0-1.7-0.4-2.3-0.9 -0.6-0.6-0.9-1.4-0.9-2.3l0 0c0-0.9 0.4-1.7 0.9-2.3 0.6-0.6 1.4-0.9 2.3-0.9h22.1v-1.1h-22.1C490.4 722.7 489.3 723.1 488.5 723.9zM513.7 723.8h22.1c0.9 0 1.7 0.4 2.3 0.9 0.6 0.6 0.9 1.4 0.9 2.3l0 0c0 0.9-0.4 1.7-0.9 2.3 -0.6 0.6-1.4 0.9-2.3 0.9h-22.1v1.1h22.1c1.2 0 2.3-0.5 3-1.3 0.8-0.8 1.3-1.9 1.3-3l0 0c0-1.2-0.5-2.3-1.3-3 -0.8-0.8-1.9-1.3-3-1.3h-22.1V723.8z" class="b"/>
	<path d="M491.5 728.9c-1.1 0-1.9-0.9-1.9-1.9 0-1.1 0.9-1.9 1.9-1.9 1.1 0 1.9 0.9 1.9 1.9C493.5 728 492.6 728.9 491.5 728.9z" class="n"/>
	<path d="M497.9 728.9c-1.1 0-1.9-0.9-1.9-1.9 0-1.1 0.9-1.9 1.9-1.9 1.1 0 1.9 0.9 1.9 1.9C499.8 728 498.9 728.9 497.9 728.9z" class="n"/>
	<path d="M504.2 728.9c-1.1 0-1.9-0.9-1.9-1.9 0-1.1 0.9-1.9 1.9-1.9 1.1 0 1.9 0.9 1.9 1.9C506.1 728 505.3 728.9 504.2 728.9z" class="n"/>
	<path d="M510.5 728.9c-1.1 0-1.9-0.9-1.9-1.9 0-1.1 0.9-1.9 1.9-1.9 1.1 0 1.9 0.9 1.9 1.9C512.5 728 511.6 728.9 510.5 728.9z" class="n"/>
	<path d="M516.9 728.9c-1.1 0-1.9-0.9-1.9-1.9 0-1.1 0.9-1.9 1.9-1.9 1.1 0 1.9 0.9 1.9 1.9C518.8 728 517.9 728.9 516.9 728.9z" class="n"/>
	<path d="M523.2 728.9c-1.1 0-1.9-0.9-1.9-1.9 0-1.1 0.9-1.9 1.9-1.9 1.1 0 1.9 0.9 1.9 1.9C525.1 728 524.2 728.9 523.2 728.9z" class="n"/>
	<path d="M529.5 728.9c-1.1 0-1.9-0.9-1.9-1.9 0-1.1 0.9-1.9 1.9-1.9 1.1 0 1.9 0.9 1.9 1.9C531.4 728 530.6 728.9 529.5 728.9z" class="n"/>
	<path d="M535.8 728.9c-1.1 0-1.9-0.9-1.9-1.9 0-1.1 0.9-1.9 1.9-1.9 1.1 0 1.9 0.9 1.9 1.9C537.8 728 536.9 728.9 535.8 728.9z" class="n"/>
	<path d="M491.5 726.4H536c0.3 0 0.5 0.2 0.5 0.5l0 0c0 0.3-0.2 0.5-0.5 0.5h-44.5c-0.3 0-0.5-0.2-0.5-0.5l0 0C491 726.7 491.2 726.4 491.5 726.4z" class="n"/>
	<circle cx="497.9" cy="727" r="0.6" class="b"/>
	<circle cx="504.2" cy="727" r="0.6" class="b"/>
	<circle cx="510.5" cy="727" r="0.6" class="b"/>
	<circle cx="516.9" cy="727" r="0.6" class="b"/>
	<circle cx="523.2" cy="727" r="0.6" class="b"/>
	<circle cx="529.5" cy="727" r="0.6" class="b"/>
	<rect x="505" y="703.1" width="19.5" height="19.5" class="t"/>
	<rect x="513" y="703.1" width="3.6" height="19.5" class="n"/>
	<polygon points="519.7 722.7 519.7 720.2 520.4 720.2 519.3 718 518.1 720.2 518.8 720.2 518.8 722.7 " class="n"/>
	<polygon points="522.8 722.7 522.8 720.2 523.5 720.2 522.3 718 521.1 720.2 521.9 720.2 521.9 722.7 " class="n"/>
	<path d="M492.8 719.6c0.4 0.1 0.9 0.2 1.3 0.3l0.2-0.7c0.4 0.2 0.9 0.4 1.3 0.6l-0.3 0.6c0.4 0.2 0.7 0.5 1.1 0.7l0.4-0.5c0.4 0.3 0.7 0.6 1 1l-0.5 0.4c0.3 0.3 0.5 0.7 0.7 1.1l0.6-0.3c0.2 0.4 0.4 0.8 0.6 1.3l-0.7 0.2c0.1 0.4 0.3 0.8 0.3 1.3l0.7-0.1c0.1 0.5 0.1 0.9 0.1 1.4l0 0H499c0 0.4 0 0.9-0.1 1.3l0.7 0.1c-0.1 0.5-0.2 0.9-0.4 1.4l-0.7-0.2c-0.1 0.4-0.3 0.8-0.5 1.2l0.6 0.3c-0.2 0.4-0.5 0.8-0.8 1.2l-0.5-0.4c-0.3 0.3-0.6 0.6-0.9 0.9l0.4 0.5c-0.4 0.3-0.7 0.6-1.2 0.8l-0.3-0.6c-0.4 0.2-0.8 0.4-1.2 0.5l0.2 0.7c-0.4 0.2-0.9 0.3-1.4 0.4l-0.1-0.7c-0.4 0.1-0.9 0.1-1.3 0.1v0.7c-0.5 0-1 0-1.4-0.1l0.1-0.7c-0.4-0.1-0.9-0.2-1.3-0.3l-0.2 0.7c-0.4-0.2-0.9-0.4-1.3-0.6l0.3-0.6c-0.4-0.2-0.7-0.5-1.1-0.7l-0.4 0.5c-0.4-0.3-0.7-0.6-1-1l0.5-0.4c-0.3-0.3-0.5-0.7-0.7-1.1l-0.6 0.3c-0.2-0.4-0.4-0.8-0.6-1.3l0.7-0.2c-0.1-0.4-0.3-0.8-0.3-1.3l-0.7 0.1c-0.1-0.5-0.1-0.9-0.1-1.4l0 0h0.7c0-0.4 0-0.9 0.1-1.3l-0.7-0.1c0.1-0.5 0.2-0.9 0.4-1.4l0.7 0.2c0.1-0.4 0.3-0.8 0.5-1.2l-0.6-0.3c0.2-0.4 0.5-0.8 0.8-1.2l0.5 0.4c0.3-0.3 0.6-0.6 0.9-0.9l-0.4-0.5c0.4-0.3 0.7-0.6 1.2-0.8l0.3 0.6c0.4-0.2 0.8-0.4 1.2-0.5l-0.2-0.7c0.4-0.2 0.9-0.3 1.4-0.4l0.1 0.7c0.4-0.1 0.9-0.1 1.3-0.1v-0.7c0.5 0 1 0 1.4 0.1L492.8 719.6z" class="s"/>
	<path d="M493 718.9c-0.5-0.1-0.9-0.1-1.4-0.1v0.7c-0.4 0-0.9 0-1.3 0.1l-0.1-0.7c-0.5 0.1-0.9 0.2-1.4 0.4l0.2 0.7c-0.4 0.1-0.8 0.3-1.2 0.5l-0.3-0.6c-0.4 0.2-0.8 0.5-1.2 0.8l0.4 0.5c-0.3 0.3-0.6 0.6-0.9 0.9l-0.5-0.4c-0.3 0.4-0.6 0.7-0.8 1.2l0.6 0.3c-0.2 0.4-0.4 0.8-0.5 1.2l-0.7-0.2c-0.2 0.4-0.3 0.9-0.4 1.4l0.7 0.1c-0.1 0.4-0.1 0.9-0.1 1.3h-0.7l0 0c0 0.5 0 1 0.1 1.4l0.7-0.1c0.1 0.4 0.2 0.9 0.3 1.3l-0.7 0.2c0.2 0.4 0.4 0.9 0.6 1.3l0.6-0.3c0.2 0.4 0.5 0.7 0.7 1.1l-0.5 0.4c0.3 0.4 0.6 0.7 1 1l0.4-0.5c0.3 0.3 0.7 0.5 1.1 0.7l-0.3 0.6c0.4 0.2 0.8 0.4 1.3 0.6l0.2-0.7c0.4 0.1 0.8 0.3 1.3 0.3l-0.1 0.7c0.5 0.1 0.9 0.1 1.4 0.1v-0.7c0.4 0 0.9 0 1.3-0.1l0.1 0.7c0.5-0.1 0.9-0.2 1.4-0.4l-0.2-0.7c0.4-0.1 0.8-0.3 1.2-0.5l0.3 0.6c0.4-0.2 0.8-0.5 1.2-0.8l-0.4-0.5c0.3-0.3 0.6-0.6 0.9-0.9l0.5 0.4c0.3-0.4 0.6-0.7 0.8-1.2l-0.6-0.3c0.2-0.4 0.4-0.8 0.5-1.2l0.7 0.2c0.2-0.4 0.3-0.9 0.4-1.4l-0.7-0.1c0.1-0.4 0.1-0.9 0.1-1.3h0.7l0 0c0-0.5 0-1-0.1-1.4l-0.7 0.1c-0.1-0.4-0.2-0.9-0.3-1.3l0.7-0.2c-0.2-0.4-0.4-0.9-0.6-1.3l-0.6 0.3c-0.2-0.4-0.5-0.7-0.7-1.1l0.5-0.4c-0.3-0.4-0.6-0.7-1-1l-0.4 0.5c-0.3-0.3-0.7-0.5-1.1-0.7l0.3-0.6c-0.4-0.2-0.8-0.4-1.3-0.6l-0.2 0.7c-0.4-0.1-0.8-0.3-1.3-0.3L493 718.9z" class="k"/>
	<rect x="432.3" y="672.1" width="19.5" height="19.5" class="t"/>
	<rect x="440.3" y="672.1" width="3.6" height="19.5" class="n"/>
	<polygon points="447 691.6 447 689.2 447.7 689.2 446.5 687 445.3 689.2 446.1 689.2 446.1 691.6 " class="n"/>
	<polygon points="450 691.6 450 689.2 450.8 689.2 449.6 687 448.4 689.2 449.2 689.2 449.2 691.6 " class="n"/>
	<path d="M549.3 723.2h14v7.5h-14c-2.1 0-3.7-1.7-3.7-3.7l0 0C545.6 724.9 547.3 723.2 549.3 723.2z" class="c"/>
	<path d="M549.3 722.7h14v1.1h-14c-0.9 0-1.7 0.4-2.3 0.9 -0.6 0.6-0.9 1.4-0.9 2.3l0 0c0 0.9 0.4 1.7 0.9 2.3 0.6 0.6 1.4 0.9 2.3 0.9h14v1.1h-14c-1.2 0-2.3-0.5-3-1.3 -0.8-0.8-1.3-1.9-1.3-3l0 0c0-1.2 0.5-2.3 1.3-3C547.1 723.1 548.2 722.7 549.3 722.7z" class="b"/>
	<circle cx="549.3" cy="727" r="1.9" class="n"/>
	<circle cx="555.7" cy="727" r="1.9" class="n"/>
	<path d="M562 725c0.5 0 1 0.2 1.3 0.5v2.8c-0.3 0.3-0.8 0.5-1.3 0.5 -1.1 0-1.9-0.9-1.9-1.9C560.1 725.9 560.9 725 562 725z" class="n"/>
	<path d="M549.3 726.4h14v1h-14c-0.3 0-0.5-0.2-0.5-0.5l0 0C548.8 726.7 549 726.4 549.3 726.4z" class="n"/>
	<circle cx="555.7" cy="727" r="0.6" class="b"/>
	<circle cx="562" cy="727" r="0.6" class="b"/>
	<rect x="533" y="694.3" width="22.5" height="36.9" style="fill:none;stroke-linejoin:round;stroke-width:1;stroke:#D3EBEB"/>
	<path d="M555.5 694.3H533v36.9h22.5V694.3z" class="k"/>
	<path d="M461.7 688.5c0.4 0.1 0.9 0.2 1.3 0.3l0.2-0.7c0.4 0.2 0.9 0.4 1.3 0.6l-0.3 0.6c0.4 0.2 0.7 0.5 1.1 0.7l0.4-0.5c0.4 0.3 0.7 0.6 1 1l-0.5 0.4c0.3 0.3 0.5 0.7 0.7 1.1l0.6-0.3c0.2 0.4 0.4 0.8 0.6 1.3l-0.7 0.2c0.1 0.4 0.3 0.8 0.3 1.3l0.7-0.1c0.1 0.5 0.1 0.9 0.1 1.4l0 0h-0.7c0 0.4 0 0.9-0.1 1.3l0.7 0.1c-0.1 0.5-0.2 0.9-0.4 1.4l-0.7-0.2c-0.1 0.4-0.3 0.8-0.5 1.2l0.6 0.3c-0.2 0.4-0.5 0.8-0.8 1.2l-0.5-0.4c-0.3 0.3-0.6 0.6-0.9 0.9l0.4 0.5c-0.4 0.3-0.7 0.6-1.2 0.8l-0.3-0.6c-0.4 0.2-0.8 0.4-1.2 0.5l0.2 0.7c-0.4 0.2-0.9 0.3-1.4 0.4l-0.1-0.7c-0.4 0.1-0.9 0.1-1.3 0.1v0.7c-0.5 0-1 0-1.4-0.1l0.1-0.7c-0.4-0.1-0.9-0.2-1.3-0.3l-0.2 0.7c-0.4-0.2-0.9-0.4-1.3-0.6l0.3-0.6c-0.4-0.2-0.7-0.5-1.1-0.7l-0.4 0.5c-0.4-0.3-0.7-0.6-1-1l0.5-0.4c-0.3-0.3-0.5-0.7-0.7-1.1l-0.6 0.3c-0.2-0.4-0.4-0.8-0.6-1.3l0.7-0.2c-0.1-0.4-0.3-0.8-0.3-1.3l-0.7 0.1c-0.1-0.5-0.1-0.9-0.1-1.4l0 0h0.7c0-0.4 0-0.9 0.1-1.3l-0.7-0.1c0.1-0.5 0.2-0.9 0.4-1.4l0.7 0.2c0.1-0.4 0.3-0.8 0.5-1.2l-0.6-0.3c0.2-0.4 0.5-0.8 0.8-1.2l0.5 0.4c0.3-0.3 0.6-0.6 0.9-0.9l-0.4-0.5c0.4-0.3 0.7-0.6 1.2-0.8l0.3 0.6c0.4-0.2 0.8-0.4 1.2-0.5l-0.2-0.7c0.4-0.2 0.9-0.3 1.4-0.4l0.1 0.7c0.4-0.1 0.9-0.1 1.3-0.1v-0.7c0.5 0 1 0 1.4 0.1L461.7 688.5z" class="s"/>
	<path d="M461.8 687.8c-0.5-0.1-0.9-0.1-1.4-0.1v0.7c-0.4 0-0.9 0-1.3 0.1l-0.1-0.7c-0.5 0.1-0.9 0.2-1.4 0.4l0.2 0.7c-0.4 0.1-0.8 0.3-1.2 0.5l-0.3-0.6c-0.4 0.2-0.8 0.5-1.2 0.8l0.4 0.5c-0.3 0.3-0.6 0.6-0.9 0.9l-0.5-0.4c-0.3 0.4-0.6 0.7-0.8 1.2l0.6 0.3c-0.2 0.4-0.4 0.8-0.5 1.2l-0.7-0.2c-0.2 0.4-0.3 0.9-0.4 1.4l0.7 0.1c-0.1 0.4-0.1 0.9-0.1 1.3h-0.7l0 0c0 0.5 0 1 0.1 1.4l0.7-0.1c0.1 0.4 0.2 0.9 0.3 1.3l-0.7 0.2c0.2 0.4 0.4 0.9 0.6 1.3l0.6-0.3c0.2 0.4 0.5 0.7 0.7 1.1l-0.5 0.4c0.3 0.4 0.6 0.7 1 1l0.4-0.5c0.3 0.3 0.7 0.5 1.1 0.7l-0.3 0.6c0.4 0.2 0.8 0.4 1.3 0.6l0.2-0.7c0.4 0.1 0.8 0.3 1.3 0.3l-0.1 0.7c0.5 0.1 0.9 0.1 1.4 0.1v-0.7c0.4 0 0.9 0 1.3-0.1l0.1 0.7c0.5-0.1 0.9-0.2 1.4-0.4l-0.2-0.7c0.4-0.1 0.8-0.3 1.2-0.5l0.3 0.6c0.4-0.2 0.8-0.5 1.2-0.8l-0.4-0.5c0.3-0.3 0.6-0.6 0.9-0.9l0.5 0.4c0.3-0.4 0.6-0.7 0.8-1.2l-0.6-0.3c0.2-0.4 0.4-0.8 0.5-1.2l0.7 0.2c0.2-0.4 0.3-0.9 0.4-1.4l-0.7-0.1c0.1-0.4 0.1-0.9 0.1-1.3h0.7l0 0c0-0.5 0-1-0.1-1.4l-0.7 0.1c-0.1-0.4-0.2-0.9-0.3-1.3l0.7-0.2c-0.2-0.4-0.4-0.9-0.6-1.3l-0.6 0.3c-0.2-0.4-0.5-0.7-0.7-1.1l0.5-0.4c-0.3-0.4-0.6-0.7-1-1l-0.4 0.5c-0.3-0.3-0.7-0.5-1.1-0.7l0.3-0.6c-0.4-0.2-0.8-0.4-1.3-0.6l-0.2 0.7c-0.4-0.1-0.8-0.3-1.3-0.3L461.8 687.8z" class="k"/>
	<line x1="464.4" y1="697.3" x2="450.6" y2="734.6" class="u"/>
	<line x1="457" y1="693" x2="439" y2="725.6" class="u"/>
	<circle cx="460.4" cy="695.9" r="4.9" class="c"/>
	<path d="M460.4 697.8c-1.1 0-1.9-0.9-1.9-1.9 0-1.1 0.9-1.9 1.9-1.9 1.1 0 1.9 0.9 1.9 1.9C462.3 696.9 461.5 697.8 460.4 697.8z" class="n"/>
	<circle cx="460.4" cy="695.9" r="0.6" class="b"/>
	<line x1="492.2" y1="731" x2="444.5" y2="738.3" class="u"/>
	<line x1="491.1" y1="722.6" x2="445.4" y2="723.7" class="u"/>
	<path d="M442.7 722.9c-0.5 0.1-0.9 0.2-1.4 0.4l-0.3-0.8c-0.5 0.2-1 0.4-1.4 0.7l0.4 0.7c-0.4 0.2-0.8 0.5-1.2 0.8l-0.5-0.6c-0.4 0.3-0.8 0.7-1.1 1.1l0.6 0.5c-0.3 0.4-0.6 0.8-0.8 1.2l-0.7-0.4c-0.3 0.5-0.5 0.9-0.7 1.4l0.8 0.3c-0.2 0.4-0.3 0.9-0.4 1.4l-0.8-0.1c-0.1 0.5-0.1 1-0.1 1.6l0 0h0.8c0 0.5 0 1 0.1 1.4l-0.8 0.1c0.1 0.5 0.2 1 0.4 1.5l0.8-0.3c0.2 0.5 0.4 0.9 0.6 1.3l-0.7 0.4c0.3 0.5 0.6 0.9 0.9 1.3l0.6-0.5c0.3 0.4 0.7 0.7 1 1l-0.5 0.6c0.4 0.3 0.8 0.6 1.3 0.9l0.4-0.7c0.4 0.2 0.9 0.4 1.3 0.6l-0.3 0.8c0.5 0.2 1 0.3 1.5 0.4l0.1-0.8c0.5 0.1 0.9 0.1 1.4 0.1v0.8c0.5 0 1.1 0 1.6-0.1l-0.1-0.8c0.5-0.1 0.9-0.2 1.4-0.4l0.3 0.8c0.5-0.2 1-0.4 1.4-0.7l-0.4-0.7c0.4-0.2 0.8-0.5 1.2-0.8l0.5 0.6c0.4-0.3 0.8-0.7 1.1-1.1l-0.6-0.5c0.3-0.4 0.6-0.8 0.8-1.2l0.7 0.4c0.3-0.5 0.5-0.9 0.7-1.4l-0.8-0.3c0.2-0.4 0.3-0.9 0.4-1.4l0.8 0.1c0.1-0.5 0.1-1 0.1-1.6l0 0h-0.8c0-0.5 0-1-0.1-1.4l0.8-0.1c-0.1-0.5-0.2-1-0.4-1.5l-0.8 0.3c-0.2-0.5-0.4-0.9-0.6-1.3l0.7-0.4c-0.3-0.5-0.6-0.9-0.9-1.3l-0.6 0.5c-0.3-0.4-0.7-0.7-1-1l0.5-0.6c-0.4-0.3-0.8-0.6-1.3-0.9l-0.4 0.7c-0.4-0.2-0.9-0.4-1.3-0.6l0.3-0.8c-0.5-0.2-1-0.3-1.5-0.4l-0.1 0.8c-0.5-0.1-0.9-0.1-1.4-0.1v-0.8c-0.5 0-1.1 0-1.6 0.1L442.7 722.9z" class="c"/>
	<path d="M444.3 733c-1.1 0-1.9-0.9-1.9-1.9s0.9-1.9 1.9-1.9c1.1 0 1.9 0.9 1.9 1.9S445.3 733 444.3 733z" class="n"/>
	<circle cx="444.3" cy="731.1" r="0.6" class="b"/>
	<circle cx="550.6" cy="699.4" r="1.7" class="m"/>
	<circle cx="544.3" cy="699.4" r="1.7" class="i"/>
	<circle cx="537.9" cy="699.4" r="1.7" class="i"/>
	<rect x="474.5" y="689.9" transform="matrix(-0.7071 -0.7071 0.7071 -0.7071 331.9061 1536.8525)" width="19.5" height="19.5" class="t"/>
	<rect x="482.4" y="689.9" transform="matrix(-0.7071 -0.7071 0.7071 -0.7071 331.9181 1536.8547)" width="3.6" height="19.5" class="n"/>
	<polygon points="480.8 710.1 482.5 708.3 483.1 708.9 483.8 706.5 481.4 707.2 481.9 707.7 480.2 709.5 " class="n"/>
	<polygon points="483 712.2 484.7 710.5 485.2 711.1 485.9 708.7 483.6 709.4 484.1 709.9 482.4 711.6 " class="n"/>
	<circle cx="491.5" cy="727" r="4.9" class="c"/>
	<path d="M491.5 728.9c-1.1 0-1.9-0.9-1.9-1.9 0-1.1 0.9-1.9 1.9-1.9 1.1 0 1.9 0.9 1.9 1.9C493.5 728 492.6 728.9 491.5 728.9z" class="n"/>
	<circle cx="491.5" cy="727" r="0.6" class="b"/>
	<path d="M137.6 87.4l-1 2.1 -0.8 0.1c0 0 0.2 0.8-1.1 1.7 -1.3 0.9-6.1 3.4-6.6 7.8 -0.5 4.3-2.3 16-2.3 19.5 0 3.5 0 6.9-0.9 10.4 -0.9 3.5-1.1 6.9-1.1 6.9s5.6 1.3 10.1 1.2c4.5-0.2 7.2 0.6 8.5 1.1 1.4 0.5 6.2 0.3 6.2 0.3s0.6-10.4 0.6-18c0-7.5 0.2-8.8-0.5-10.1 -0.7-1.2-2.4-5.4-2.4-6.2 -0.1-0.8-0.3-3.5-0.5-4.5 -0.2-1-1.4-4.4-1.8-5.1 -0.4-0.7 0-1.4 0-1.4S142.2 89.2 137.6 87.4L137.6 87.4z" class="i"/>
	<path d="M133.9 91.8c-1.9 1.2-5.3 3.6-5.7 7.2 -0.5 4.3-2.3 16-2.3 19.5 0 2.3 0 3.4-0.2 6.2v0c-0.1 1.4-0.3 7-0.2 7.3 0.1 0.3 1 0.2 2.2 0.2 1.3 0.1 4 0.1 4.1 0.1 0.1 0 0.7 0.4 0.7-0.9 0-1.2 1.1-9.4 0.8-12.5 -0.2-3 1.3-4.7 2-7.8 0.7-3 2.3-5.6 2.4-7.6 0.1-2 0.5-7.5-0.4-9C136.4 93.1 133.9 91.8 133.9 91.8L133.9 91.8z" class="h"/>
	<path d="M137.6 87.4l-1 2.1c0 0 2.9 1.3 5.4 6.2 2.5 4.9 3.8 6.8 4.2 8.4 -0.1-0.8-0.3-3.5-0.5-4.5 -0.2-1-1.4-4.4-1.8-5.1 -0.4-0.7 0-1.4 0-1.4S142.2 89.2 137.6 87.4L137.6 87.4z" class="n"/>
	<path d="M144.3 99.8c1.1 2 1.7 3.2 2 4.3 -0.1-0.8-0.3-3.5-0.5-4.5 -0.2-1-1.4-4.4-1.8-5.1 0-0.1-0.1-0.1-0.1-0.2 -0.4 0.3-0.8 0.6-0.8 0.9 0 0.6 0.1 1 0.4 1 0.3 0.1 0.6 0.1 0.6 0.5C144.2 97.1 144.3 98.3 144.3 99.8L144.3 99.8z" class="a"/>
	<path d="M137.6 87.4c0 0 0.1-0.2-0.2-0.4 -0.2-0.2-0.5 0.1-0.5-0.5 -0.1-0.6-0.2-1.8-0.4-2.2 -0.2-0.5-1.5-1.1-1.3-2.5 0.2-1.4-1.1-5.3-0.1-6.6 1-1.3 2.8-3 5-3.4 2.1-0.3 5.8-0.5 7.1 0.2 1.4 0.7 2.4 1.9 2.1 2.7 -0.2 0.8-0.9 1.3-0.9 1.3s1 1.4 1.1 2.4c0.1 1-0.5 1.4-0.5 1.9 -0.1 0.5 0 0.6 0.5 1.2 0.4 0.6 2.1 1.7 1.4 2.5 -0.7 0.8-1.6 0.2-1.6 1.3 0 1.1 0.1 2.9-0.9 3.9 -1 0.9-3.8-0.5-3.8 0.8 0 1.3-0.6 3-0.6 3S142.2 89.2 137.6 87.4L137.6 87.4z" class="m"/>
	<path d="M137.5 87c-0.2-0.2-0.5 0.1-0.5-0.5 -0.1-0.6-0.2-1.8-0.4-2.2 -0.2-0.5-1.5-1.1-1.3-2.5 0.2-1.4-1.1-5.3-0.1-6.6 1-1.3 2.8-3 5-3.4 2.1-0.3 5.8-0.5 7.1 0.2 1.4 0.7 2.4 1.9 2.1 2.7 -0.2 0.8-0.9 1.3-0.9 1.3 -1.3-0.8-2.7 0.1-2.4 1.3 0.3 1.2-0.8 1.3-0.6 2.9 0.2 1.7-0.7 2.2-1.3 1.9 -0.6-0.4-0.6-3-2.2-3.3 -1.5-0.2-1.5 0.8-1.9 1.9 -0.3 1-1.1 0.4-1.4 1.4 -0.3 1.1 0.2 4.5 0.1 4.7C138.7 87.2 137.5 87 137.5 87L137.5 87z" class="c"/>
	<path d="M131.8 132.4c-0.1 0.6-0.1 1.5-0.3 1.5 -0.2 0-2.6 0-3.7-0.1 -1.1 0-1.7 0-1.8-0.2 0-0.1-0.1-0.8-0.1-1.4 0.4 0 1 0 1.7 0C128.9 132.3 131.6 132.4 131.8 132.4L131.8 132.4z" class="n"/>
	<path d="M149.3 120c1 1.4 2.3 3.3 2.9 3.8 0.9 0.8 1.2 1.2 1 1.7 -0.2 0.4-2.5 3.1-4 4 0.1-3 0.2-6.2 0.2-9.1L149.3 120 149.3 120z" class="h"/>
	<path d="M153.1 125.5c0.4 0.3 1.1 1 1.2 1.2 0 0.2-1.2 1.6-2 2.3 -0.8 0.7-1.6 1.5-1.8 1.3 -0.2-0.2-0.5-0.8-0.8-1.1C151 128.1 152.8 126 153.1 125.5L153.1 125.5z" class="n"/>
	<path d="M145.9 140.6L155 158l24.9-13 -9.1-17.4 -9 4.7c0 0-2.7-3.8-6.2-1.8 -3.5 2-1.6 5.8-1.6 5.8s0 0 0 0L145.9 140.6 145.9 140.6zM155.2 135.7c0 0-2.1-2.9 0.7-4.6 2.8-1.6 4.7 1.7 4.7 1.7L155.2 135.7 155.2 135.7z" class="v"/>
	<path d="M154 127c0 0 1.8 0.4 3.5 1.9 1.7 1.4 1.3 2.7 0.3 3.2 -1 0.5-1.9 1.7-2.9 0.8 -1-0.9-1.4-1.4-1.7-2 -0.3-0.6-2-1.2-2-1.2 0.3-0.2 0.6-0.5 0.9-0.8C152.8 128.4 153.7 127.5 154 127L154 127z" class="m"/>
	<path d="M148.8 135.9c0.3 1 0.6 2.2 0.6 2.8 0.1 1.3 2.6 8 3.8 11 1.2 3 1.3 4.6 1.3 6.1 0 1.4 0.8 7.2 2 10 1.2 2.8 1.9 2.7 1.9 4.1 0 1.4 0.4 1.8 1.4 3.6 1 1.8 3.2 6.9 3.4 7.9 0.2 1-0.9 2.4-3.4 3.4 -2.5 1-4.8 0.4-4.8 0.4s-4.5-10.4-5.6-12.6c-1.1-2.3-4.1-8.6-5.4-11 -1.3-2.4-3.7-8.9-4.9-10.6 -1.2-1.7-4.3-6.8-5.6-9.7 -1-2.2-1.8-2.8-1.9-4.2 0.8 0.1 1.7 0.1 2.5 0 4.5-0.2 7.2 0.6 8.5 1.1 1.4 0.5 6.2 0.3 6.2 0.3S148.7 137.4 148.8 135.9L148.8 135.9z" class="c"/>
	<path d="M140.6 154c-0.9 2.6-2.4 6.6-4 8.9 -2.5 3.7-3.7 8.3-4.5 10.5 -0.8 2.2-1.9 2.4-2.1 4.2 -0.2 1.8-0.1 5-0.4 5.5 -0.2 0.5-1.8 1.8-4.7 2 -2.9 0.2-4-0.3-4.1-0.8 0-0.5 0.4-5.9 1-7.9 0.6-2 1.8-8.4 2.3-11.2 0.5-2.7 3.2-7.2 4-10.4 0.8-3.1 1.8-7.8 2.5-9.6 0.5-1.1 0.4-5.3 0.3-8.3 0.2 0 0.5 0 0.7 0.1 0.1 1.4 0.9 2.1 1.9 4.2 1.3 2.9 4.4 8 5.6 9.7C139.5 151.4 140 152.6 140.6 154L140.6 154z" class="c"/>
	<path d="M156 185.2c0 0-0.3 1.1 0.1 2.3 0.3 1.2 1.4 2.7 1.4 2.7s3 0.3 4.3-0.9c1.2-1.2 3.7-0.3 5-0.6 1.3-0.3 6.6-1.4 7.6-3.1 1-1.6-0.8-1.6-3.3-1.5 -2.4 0-3.8-0.4-4.7-1 -0.9-0.6-3.1-1.6-3.1-1.6 0 1-1.1 2.2-3.4 3.2C158.3 185.3 156.9 185.3 156 185.2L156 185.2 156 185.2z" class="v"/>
	<path d="M131 133.8c0 0.9-0.1 3.2 0.3 3.9 0.5 0.9 0.6 2.2-0.2 2.6 -0.8 0.3-0.9 1.8-2.2 1.8 -1.4 0-2.3-1-2.7-1.7 -0.4-0.7-0.7-1.6-0.5-2.3 0.2-0.7 0.5-0.8 0.5-2.4 0-0.9 0.1-1.5 0.2-2 0.3 0 0.8 0 1.5 0.1C128.7 133.8 130.1 133.8 131 133.8L131 133.8z" class="m"/>
	<path d="M121.1 184.6c0 0-1 1.2-0.8 1.9 0.2 0.7 0.4 2.2 0.4 2.2s4.3 0.8 4.8 0.3c0.5-0.5 1.4-0.3 2.1 0.2 0.7 0.5 4.4 0.8 7.1 0.6 2.7-0.1 4.5-1 4-1.8 -0.5-0.8-2.9-0.4-5.3-1.7 -2.5-1.3-3.8-3.4-3.8-3.4 -0.2 0.5-1.8 1.8-4.7 2C122.8 185.2 121.7 185 121.1 184.6L121.1 184.6 121.1 184.6z" class="v"/>
	<line x1="5.1" y1="52.6" x2="90" y2="52.6" style="fill:none;stroke-width:30;stroke:#D45650"/>
	<polygon points="83.8 73.9 120.7 52.6 83.8 31.2 " class="k"/>
	<rect x="16.5" y="47.5" width="56.9" height="20.9" class="g"/>
	<text transform="matrix(1 0 0 1 16.5029 57.5734)" font-family="'OpenSans-Extrabold'" font-size="13.3098" letter-spacing="1" class="n">  INÍCIO</text>
	</svg>
 