<svg xmlns="http://www.w3.org/2000/svg" viewBox="0 0 572 976">
	<path d="M208.5 190.9V56.4c-29.4-0.8-53-24.8-53-54.4v0H21.9v0C21.9 105.6 105.2 189.6 208.5 190.9z" style="fill:#83D0FF;stroke-width:2;stroke:#FFF"/>
	<rect x="208" y="56.4" width="165.9" height="134.6" style="fill:#7BC9F8;stroke:#FFF"/>
	<rect x="208" y="541.3" width="165.9" height="134.6" style="fill:#4E9FD1;stroke:#FFF"/>
	<rect x="208" y="297.8" width="165.9" height="134.6" style="fill:#65B4E5;stroke:#FFF"/>
	<path d="M427.3 244.5h133.6c0-0.3 0-0.7 0-1v0h0c-1.1-102.6-84-185.6-186.5-186.8l0-0.2h-1.4v134.6C402.6 191.1 426.8 214.9 427.3 244.5z" style="fill:#74C2F2;stroke:#FFF"/>
	<path d="M372.9 297.8v134.6h1.4l0-0.2c102.6-1.3 185.4-84.2 186.5-186.8h0v0c0-0.3 0-0.7 0-1H427.3C426.8 274 402.6 297.8 372.9 297.8z" style="fill:#6CBBEB;stroke:#FFF"/>
	<path d="M208.5 432.5V298C105.3 299.3 22 383.3 21.9 486.7h0v0.1h133.6C155.5 457.3 179.1 433.3 208.5 432.5z" style="fill:#5DADDE;stroke:#FFF"/>
	<rect x="208" y="784.4" width="165.9" height="134.6" style="fill:#388ABE;stroke:#FFF"/>
	<path d="M372.9 784.4v134.6h1.4l0-0.2c102.6-1.3 185.4-84.2 186.5-186.8h0v0c0-0.3 0-0.7 0-1H427.3C426.8 760.6 402.6 784.4 372.9 784.4z" style="fill:#3F91C4;stroke:#FFF"/>
	<path d="M208.5 919.1V784.6C105.3 785.9 22 869.8 21.9 973.3h0v0.1h133.6C155.5 943.9 179.1 919.9 208.5 919.1z" style="fill:#3083B7;stroke:#FFF"/>
	<path d="M21.9 486.9c0.1 103.5 83.4 187.5 186.6 188.7V541.1c-29.4-0.8-52.9-24.8-53-54.3L21.9 486.9 21.9 486.9 21.9 486.9z" style="fill:#56A6D8;stroke:#FFF"/>
	<path d="M374.4 541.3v134.5c29.4 0.8 53 24.8 53 54.4v0h133.6v0C560.9 626.7 477.6 542.6 374.4 541.3z" style="fill:#4798CB;stroke:#FFF"/>
</svg>