<?xml version="1.0" encoding="utf-8"?>
<!-- Generator: Adobe Illustrator 18.1.0, SVG Export Plug-In . SVG Version: 6.00 Build 0)  -->
<svg version="1.1" id="Camada_1" xmlns="http://www.w3.org/2000/svg" xmlns:xlink="http://www.w3.org/1999/xlink" x="0px" y="0px"
	 viewBox="164 -38 572 976" enable-background="new 164 -38 572 976" xml:space="preserve">
	<style>
		.a{fill:#951D29;}
		.b{fill:#FFF;}
		.c{fill:#B7B8BA;}
		.d{fill:#2E3640;}
		.e{fill:#2F363E;}
		.f{fill:#FFF;opacity:0.4;}
		.g{fill:none;}
		.h{fill:#3576A8;}
		.i{fill:#5686AA;}
		.j{fill:#DDE4E8;}
		.k{fill:#D45650;}
		.l{fill:#DDE4E8;opacity:0.3;}
		.m{fill:#454D57;}
		.n{fill:#5D595A;}
		.o{fill:#EC8457;}
		.p{fill:#F5E4D7;}
		.q{fill:#F1F5F9;}
		.r{fill:#F6F4F4;}
		.s{fill:#31363D;}
		.t{opacity:0.6;}
		.u{fill:#E0E0E0;}
		.v{clip-path:url(#SVGID_2_);}
		.w{fill:#003454;}
		.x{clip-path:url(#SVGID_4_);}
		.y{fill:#FFEADE;}
		.z{fill:none;stroke-linejoin:round;stroke:#5D595A;}
		.A{fill:#CBA520;}
		.B{fill:#FFF9F5;}
		.C{fill:none;stroke-width:0.7;stroke:#FFF;}
		.D{fill:#E6E7E8;}
		.E{fill:#261D1B;}
		.F{fill:none;stroke-width:30;stroke:#D45650;}
		tspan, text {
			font-family: "Open Sans", sans-serif;
			text-transform: uppercase;
			font-weight: 300	
		}
		.bold {
			font-weight: 700
		}
	</style>

	<rect x="639.9" y="107.2" transform="matrix(0.9629 -0.2699 0.2699 0.9629 -13.2417 184.5123)" width="48.5" height="66.4" class="a"/>
	<rect x="642" y="109.3" transform="matrix(0.9629 -0.2699 0.2699 0.9629 -13.1565 184.4752)" width="44.2" height="61.5" class="b"/>
	<path d="M664.2 105.9l-7.2 2c0.2-0.4 0.2-0.8 0.2-1.3 -0.2-1.4-1.5-2.4-2.9-2.2 -1.4 0.2-2.4 1.5-2.2 2.9 0.1 0.7 0.5 1.3 1 1.8l-6.8 1.9 1.4 5.1 17.8-5L664.2 105.9zM654.4 105.4c0.9-0.1 1.6 0.5 1.7 1.4 0.1 0.9-0.5 1.6-1.4 1.7 -0.9 0.1-1.6-0.5-1.7-1.4C653 106.3 653.6 105.5 654.4 105.4z" fill="#464E57"/>
	<path d="M675.1 120.4c0.1 0.4 0.1 0.8-0.1 0.8l-16.1 4.6c-0.2 0.1-0.4-0.2-0.5-0.7l0 0c-0.1-0.4-0.1-0.8 0.1-0.8l16.1-4.6C674.7 119.7 675 120 675.1 120.4L675.1 120.4z" class="c"/>
	<path d="M675.8 122.7c0.1 0.4 0 0.8-0.2 0.9l-18.8 5.4c-0.2 0.1-0.5-0.2-0.6-0.6l0 0c-0.1-0.4 0-0.8 0.2-0.9l18.8-5.4C675.4 122 675.6 122.3 675.8 122.7L675.8 122.7z" class="c"/>
	<path d="M684.5 152.8c0.1 0.4 0 0.8-0.2 0.8l-18.8 5.4c-0.2 0.1-0.5-0.2-0.6-0.6l0 0c-0.1-0.4 0-0.8 0.2-0.8l18.8-5.4C684.1 152.1 684.4 152.4 684.5 152.8L684.5 152.8z" class="c"/>
	<path d="M685.2 155.3c0.1 0.4 0 0.8-0.2 0.8l-18.8 5.4c-0.2 0.1-0.5-0.2-0.6-0.6l0 0c-0.1-0.4 0-0.8 0.2-0.8l18.8-5.4C684.8 154.6 685.1 154.9 685.2 155.3L685.2 155.3z" class="c"/>
	<path d="M679.9 137c0.1 0.3 0 0.7-0.2 0.7l-18.8 5.4c-0.2 0.1-0.5-0.2-0.6-0.5l0 0c-0.1-0.3 0-0.7 0.2-0.7l18.8-5.4C679.6 136.5 679.8 136.7 679.9 137L679.9 137z" class="c"/>
	<path d="M680.6 139.3c0.1 0.3 0 0.6-0.2 0.7l-16.3 4.7c-0.2 0.1-0.4-0.2-0.5-0.5l0 0c-0.1-0.3 0-0.6 0.2-0.7l16.3-4.7C680.2 138.7 680.5 138.9 680.6 139.3L680.6 139.3z" class="c"/>
	<path d="M679.2 134.6c0.1 0.3 0 0.6-0.2 0.7L663 140c-0.2 0.1-0.4-0.2-0.5-0.5l0 0c-0.1-0.3 0-0.6 0.2-0.7l16.1-4.7C678.9 134.1 679.1 134.3 679.2 134.6L679.2 134.6z" class="c"/>
	<path d="M653.3 124.2l-1.4-0.8c-0.1-0.1-0.3 0-0.4 0.1l-3.1 5.5 -2.9-1.6c-0.1-0.1-0.3 0-0.4 0.1l-0.8 1.4c-0.1 0.1 0 0.3 0.1 0.4l4.6 2.5c0.1 0.1 0.3 0 0.4-0.1l0.6-1c0 0 0 0 0 0l0.1-0.2 0.1-0.2c0 0 0 0 0 0l3.2-5.7C653.4 124.4 653.4 124.3 653.3 124.2z" class="d"/>
	<path d="M658.1 140.9l-1.4-0.8c-0.1-0.1-0.3 0-0.4 0.1l-3.1 5.5 -2.9-1.6c-0.1-0.1-0.3 0-0.4 0.1l-0.8 1.4c-0.1 0.1 0 0.3 0.1 0.4l4.6 2.5c0.1 0.1 0.3 0 0.4-0.1l0.6-1c0 0 0 0 0 0l0.1-0.2 0.1-0.2c0 0 0 0 0 0l3.2-5.7C658.3 141.2 658.2 141 658.1 140.9z" class="d"/>
	<path d="M662.7 156.9l-1.4-0.8c-0.1-0.1-0.3 0-0.4 0.1l-3.1 5.5 -2.9-1.6c-0.1-0.1-0.3 0-0.4 0.1l-0.8 1.4c-0.1 0.1 0 0.3 0.1 0.4l4.6 2.5c0.1 0.1 0.3 0 0.4-0.1l0.6-1c0 0 0 0 0 0l0.1-0.2 0.1-0.2c0 0 0 0 0 0l3.2-5.7C662.9 157.2 662.9 157 662.7 156.9z" class="d"/>
	<path d="M711.3 146.9l-22.2 19.5c-0.4 0.4-0.8 0.8-1 1.3l-4.9 9.5c-0.2 0.4-0.2 0.9 0.1 1.3 0.3 0.3 0.7 0.6 1.5 0.1 0.3-0.2 0.5-0.6 0.7-0.9l3.4-8.5c0.3-0.7 0.7-1.3 1.3-1.8l22.6-18.2L711.3 146.9z" class="e"/>
	<path d="M675.2 169l27.3-11.4c0.5-0.2 1.1-0.3 1.6-0.3l10.7-0.2c0.5 0 0.9 0.2 1.1 0.7 0.2 0.4 0.2 0.9-0.6 1.4 -0.3 0.2-0.8 0.2-1.1 0.2l-9.2-0.7c-0.7 0-1.5 0.1-2.1 0.4l-26.3 12.2L675.2 169z" class="e"/>
	<path d="M712.3 150.5c0-0.4 0.8-0.9 0.8-1.3 0-0.7-1.2-2-1.6-2.2 -0.7-0.4-0.8 0.8-3.4 1.2 -7.1 1.1-13.2 8.1-13.2 8.1 -0.7 0.1-1.6 0.5-2.4 1 -0.8 0.5-1.5 1.1-1.9 1.7 0 0-9 2.2-13.2 8 -1.5 2.1-2.7 1.7-2.6 2.5 0.1 0.5 0.7 2.2 1.2 2.5 0.3 0.2 1.2-0.4 1.5-0.2 1.9 1.2 3.2 5.4 8.2 4.1 5-1.2 8.9-5.5 8.4-9.4 -0.6-3.1-2.1-5.5-0.3-6.6 0.1 0 0.1-0.1 0.2-0.1 0.1 0 0.1-0.1 0.2-0.1 1.9-1.1 3.3 1.3 5.8 3.3 3.2 2.3 8.8 0.7 12.2-3.1C715.6 155.8 712.5 152.8 712.3 150.5zM689.2 173c-0.5 0.3-1 0.6-1.6 0.9 -0.5 0.2-0.9 0.4-1.4 0.6 -0.2 0.1-0.4 0.1-0.7 0.2 -0.8 0.2-1.7 0.2-2.4 0 -0.5-0.1-0.9-0.4-1.3-0.7 -0.8-0.6-1.5-1.5-2-2.3 -0.7-1.2-1.2-2.2-0.9-3.6 0.2-1.2 1.1-2.2 2.1-3.1 0.7-0.6 1.5-1.1 2.3-1.6 0.4-0.2 0.8-0.4 1.2-0.7 0.2-0.1 0.4-0.2 0.6-0.3 0.4-0.2 0.9-0.4 1.3-0.5 1.7-0.6 3.5-0.9 4.8-0.2 0.5 0.3 1.1 1.8 1.3 2.4C693.9 167.2 692.7 170.9 689.2 173zM708.2 161.5c-0.6 0.4-1.2 0.6-1.8 0.8 -0.5 0.2-1 0.3-1.4 0.3 -0.2 0-0.4 0-0.6 0.1 -1.4 0.1-2.7-0.2-3.8-0.8 -0.7-0.4-1.4-0.9-1.9-1.6 -0.4-0.5-1.5-1.8-1.5-2.3 0-1.6 1.2-3.1 2.7-4.5 0.8-0.7 1.6-1.3 2.4-1.8 0.3-0.2 0.7-0.4 1.1-0.6 0.2-0.1 0.4-0.2 0.6-0.3 0.4-0.2 0.9-0.4 1.3-0.6 1.1-0.4 2.2-0.6 3.2-0.3 1.3 0.4 2 1.3 2.7 2.5 0.7 1.2 1.4 3 1.1 4.4C712 158.7 710.2 160.2 708.2 161.5z" class="e"/>
	<path d="M691.2 161.6c-2.1-1.1-5.4 0.2-7.9 1.7 -2 1.2-4.1 2.7-4.5 4.7 -0.3 1.4 0.2 2.4 0.9 3.6 0.7 1.2 2 2.6 3.3 3 1.9 0.6 4.1-0.3 6.1-1.6 3.4-2.1 4.6-5.9 3.3-9C692.3 163.4 691.7 161.9 691.2 161.6z" class="f"/>
	<path d="M711.3 152.4c-0.7-1.2-1.4-2.1-2.7-2.5 -1.9-0.6-4.2 0.6-6.2 1.8 -2.4 1.5-5.2 3.9-5.2 6.2 0 0.6 1.1 1.8 1.5 2.3 2.2 2.6 6.1 3.3 9.5 1.2 2-1.2 3.8-2.8 4.2-4.7C712.7 155.4 712 153.6 711.3 152.4z" class="f"/>
	<path d="M723.2 122.1c0 0.9-0.1 1.8-0.2 2.7 -1.3 8.9-9 15.8-18.2 15.8 -0.3 0-0.5 0-0.8 0 -9.8-0.4-17.6-8.5-17.6-18.4 0-10.2 8.3-18.4 18.4-18.4C715 103.6 723.2 111.9 723.2 122.1z" fill="#E7E6E8"/>
	<path d="M704.8 103.1c-10.5 0-19 8.5-19 19 0 10.2 8 18.5 18.2 19 0.2 0 0.4 0 0.6 0 0.1 0 0.1 0 0.2 0 9.2 0 17.2-6.8 18.7-15.9 0-0.1 0-0.2 0.1-0.3 0.1-0.9 0.2-1.8 0.2-2.8C723.7 111.6 715.2 103.1 704.8 103.1zM722.5 124.7c-1.3 8.7-8.9 15.3-17.7 15.3 -0.3 0-0.5 0-0.8 0 -0.2 0-0.4 0-0.5 0 -9.4-0.7-16.6-8.4-16.6-17.9 0-9.9 8-17.9 17.9-17.9 9.9 0 17.9 8 17.9 17.9 0 0.7 0 1.4-0.1 2.2C722.5 124.4 722.5 124.5 722.5 124.7z" class="b"/>
	<path d="M687.8 123.5h6.4c0 0 0 0 0 0v-2.6c0-0.1-0.1-0.2-0.2-0.2h-6.1c-0.8 0-1.5 0.7-1.5 1.5l0 0C686.4 122.9 687 123.5 687.8 123.5z" class="b"/>
	<path d="M714.7 116.9c4.5 9.9-5.1 19.5-15 15 -2.1-1-3.8-2.7-4.8-4.8 -4.5-9.9 5.1-19.5 15-15C712 113.1 713.7 114.8 714.7 116.9z" class="b"/>
	<path d="M713.9 122.1c0 5-4.1 9.1-9.1 9.1 -2.9 0-5.4-1.3-7.1-3.4 -1.3-1.6-2-3.6-2-5.7 0-5 4.1-9.1 9.1-9.1 3.5 0 6.6 2 8.1 5C713.5 119.2 713.9 120.6 713.9 122.1z" fill="#30373F"/>
	<path d="M713.9 122.1c0 5-4.1 9.1-9.1 9.1 -2.9 0-5.4-1.3-7.1-3.4 -0.6-1.2-1-2.6-1-4.1 0-5 4.1-9.1 9.1-9.1 2.9 0 5.4 1.3 7.1 3.4C713.5 119.2 713.9 120.6 713.9 122.1z" fill="#48505A"/>
	<path d="M637.4 152.2l26.4 28.8c0.2 0.2 0.4 0.2 0.6 0l1.6-1.5c0.2-0.2 0.2-0.4 0-0.6l-26.4-28.8c0 0 0 0-0.1-0.1L637.4 152.2C637.4 152.1 637.4 152.2 637.4 152.2z" class="d"/>
	<path d="M639.6 150.1c0 0-3.6-2-3.8-1.9 -0.1 0.1 1.5 3.9 1.5 3.9L639.6 150.1z" fill="#EAC78E"/>
	<path d="M637.2 148.8c0 0-1.3-0.7-1.4-0.6 -0.1 0.1 0.5 1.4 0.5 1.4L637.2 148.8z" fill="#282928"/>
	<rect x="565.3" y="65.7" width="127.3" height="42.5" class="g"/>
	<text transform="matrix(1 0 0 1 565.258 75.9355)">
		<tspan x="0" y="0" font-family="'Open Sans'" font-size="13.5028" letter-spacing="1" class="b">  Pesquisa </tspan>
		<tspan x="0" y="16.2" font-family="'Open Sans'" font-size="13.5028" letter-spacing="1" class="b bold">  básica</tspan>
	</text>
	<path d="M494.7 356.9c-15.7-0.8-23.7 17.1-12.6 28.3 2.5 2.5 6 4.1 9.5 4.2 15.7 0.8 23.7-17.1 12.6-28.3C501.7 358.6 498.2 357.1 494.7 356.9z" class="b"/>
	<path d="M506.8 356c-9.5-7.6-23.4-6-30.9 3.5 -6.6 8.4-6.2 20.1 0.4 27.9l-5 6.2 -1.1-0.9c-0.3-0.2-0.7-0.2-1 0.2l0 0 0 0 -13 16.4c-2.9 3.7-3.1 8.4-0.4 10.5 2.7 2.1 7.2 0.9 10.2-2.7l11.4-14.4c0 0 0 0 0 0l1.6-2c0.3-0.3 0.2-0.8-0.1-1l-1.4-1.1 4.9-6.2c9.2 5.1 21 2.9 27.8-5.6C517.9 377.4 516.3 363.5 506.8 356zM505.8 383.3c-5.6 7-15.8 8.2-22.8 2.6 -5.5-4.4-7.4-11.5-5.3-17.8 0.6-1.8 1.5-3.5 2.7-5 5.6-7 15.8-8.2 22.8-2.6 3.4 2.7 5.5 6.6 6 10.6C509.8 375.3 508.7 379.7 505.8 383.3z" fill="#5B6375"/>
	<path d="M480.5 363c-1.2 1.5-2.2 3.2-2.7 4.9l0.1 0c19.1-5.7 31.1 2.9 31.4 3.1 -0.5-4-2.6-7.9-6-10.6C496.3 354.8 486.1 356 480.5 363z" style="fill:#DDE4E8;opacity:0.7"/>
	<polygon points="483.5 364.8 483.2 365.8 483.1 366.8 483 367.8 483 368.9 483.1 370 483.3 371 483.5 372 483.8 373 484.2 373.7 484.6 374.5 485 375.3 485.4 376.1 485.9 376.8 486.4 377.5 487 378.2 487.6 378.9 487.7 379 487.7 379.1 487.8 379.2 487.8 379.3 487.9 379.5 487.9 379.6 488 379.7 488 379.8 487.9 379.8 487.8 379.8 487.7 379.8 487.6 379.8 487.5 379.8 487.3 379.8 487.2 379.8 487.1 379.7 486.9 379.9 486.8 380.1 486.7 380.3 486.6 380.5 486.5 380.8 486.5 381.1 486.5 381.3 486.4 381.5 486.4 381.6 486.4 381.7 486.3 381.8 486.3 381.9 486.3 381.9 486.3 382 486.3 382.1 486.4 382.1 487.7 382.2 488.9 382.4 490.2 382.6 491.5 382.9 492.7 383.2 493.9 383.6 495.1 384.1 496.2 384.6 496.7 384.8 497.1 385 497.5 385.3 497.9 385.6 498.3 385.8 498.7 386.1 499.1 386.5 499.5 386.8 500 386.8 500 386.5 500 386.2 499.9 385.9 499.7 385.7 499.6 385.4 499.5 385.2 499.3 385 499.1 384.7 498.9 384.4 498.6 384.1 498.3 383.8 498.1 383.5 497.8 383.2 497.5 382.9 497.1 382.7 496.8 382.4 496.8 382.2 496.8 381.9 496.8 381.7 496.9 381.4 496.9 381.2 496.9 381 497 380.7 497.1 380.5 497.6 380.6 498.1 380.7 498.6 380.8 499 380.9 499.5 380.9 500 380.8 500.5 380.7 500.9 380.4 501 380.3 501 380.2 501.1 380.1 501.1 380 501.2 379.9 501.2 379.8 501.3 379.7 501.3 379.6 501.3 379.4 501.2 379.1 501 378.8 500.9 378.6 500.8 378.3 500.8 378.1 500.9 377.8 501.1 377.6 501.2 377.5 501.3 377.4 501.4 377.4 501.5 377.3 501.6 377.2 501.7 377.1 501.7 377 501.7 376.8 501.6 376.8 501.5 376.7 501.5 376.6 501.4 376.5 501.3 376.5 501.3 376.4 501.2 376.3 501.1 376.3 501.2 376.2 501.4 376.1 501.5 376.1 501.6 376 501.8 375.9 501.8 375.8 501.9 375.6 501.8 375.5 501.8 375.3 501.7 375.2 501.6 375.1 501.5 375 501.4 374.9 501.4 374.8 501.4 374.6 501.4 374.5 501.6 374.4 501.8 374.4 502.1 374.4 502.3 374.3 502.5 374.3 502.7 374.2 502.8 374.1 503 373.9 502.9 373.7 502.7 373.2 502.5 372.8 502.2 372.4 502 372.1 501.7 371.7 501.4 371.3 501.1 370.9 500.8 370.6 500.8 370.5 500.9 370.4 501 370.3 501.1 370.2 501.2 370.2 501.2 370.1 501.3 370 501.4 369.9 501.4 369.8 501.4 369.7 501.4 369.6 501.3 369.6 501.3 369.5 501.2 369.4 501.2 369.3 501.2 369.2 501.2 368.9 501.2 368.6 501.2 368.3 501.2 368 501.2 367.7 501.2 367.4 501.3 367.1 501.3 366.8 501.5 366.6 501.7 366.4 501.9 366.2 502 366 502.1 365.8 502.1 365.6 502.1 365.3 502.1 365.1 502 364.4 501.7 363.8 501.3 363.3 500.8 362.8 500.2 362.3 499.7 361.9 499.1 361.5 498.6 361.1 497.9 360.8 497.1 360.5 496.4 360.3 495.7 360 494.9 359.8 494.2 359.6 493.4 359.5 492.6 359.4 492.5 359.4 492.4 359.4 492.3 359.4 492.2 359.4 492.1 359.4 492.1 359.4 492 359.4 491.9 359.4 490.9 359.4 490 359.6 489.1 359.8 488.3 360.1 487.4 360.5 486.6 361 485.9 361.5 485.2 362.1 484.9 362.4 484.6 362.7 484.4 363 484.1 363.4 483.9 363.7 483.7 364.1 483.6 364.5 483.5 364.8 " class="h"/>
	<polygon points="489.3 361.7 488.7 361.8 488.2 362 487.6 362.3 487.1 362.6 486.6 362.9 486.2 363.4 485.8 363.8 485.4 364.4 485.2 364.9 484.9 365.5 484.7 366.1 484.6 366.8 484.5 367.4 484.6 368.1 484.7 368.7 485 369.3 485.3 369.9 485.6 370.3 486 370.8 486.5 371.2 487 371.6 487.5 371.8 488 372.1 488.6 372.2 489.5 372.3 490.4 372.4 491.3 372.5 492.2 372.5 493.1 372.4 494 372.2 494.9 372 495.7 371.8 496.3 371.5 497 371.3 497.6 370.9 498.1 370.5 498.6 370 499.1 369.5 499.4 368.9 499.6 368.3 499.8 367.7 499.9 367.2 499.9 366.6 499.9 366 499.8 365.4 499.6 364.9 499.3 364.4 499 363.9 498.6 363.6 498.3 363.3 497.9 363.1 497.5 362.9 497.1 362.7 496.7 362.6 496.2 362.4 495.8 362.2 495.3 362 494.8 361.9 494.3 361.8 493.8 361.7 493.3 361.6 492.8 361.5 492.2 361.5 491.7 361.5 491.4 361.5 491.1 361.5 490.8 361.5 490.5 361.5 490.2 361.5 489.9 361.6 489.6 361.6 489.3 361.7 " class="i"/>
	<path d="M493.2 365.6l-0.5 0c-0.1-0.3-0.2-0.5-0.3-0.7l0 0 0.3-0.4c0.1-0.1 0.1-0.2 0-0.3l-0.6-0.5c-0.1-0.1-0.2-0.1-0.3 0l-0.3 0.3c-0.2-0.1-0.5-0.2-0.8-0.3l0 0 0-0.5c0-0.1-0.1-0.1-0.2-0.1l-0.8 0c-0.1 0-0.2 0-0.2 0.2l0 0.5c-0.3 0.1-0.5 0.2-0.7 0.3l0 0 -0.3-0.3c-0.1-0.1-0.2-0.1-0.3 0l-0.5 0.6c-0.1 0.1-0.1 0.2 0 0.3l0.3 0.3c-0.1 0.2-0.2 0.5-0.3 0.8l0 0 -0.5 0c-0.1 0-0.2 0-0.2 0.2l0 0.8c0 0.1 0.1 0.2 0.2 0.2l0.5 0c0.1 0.3 0.2 0.5 0.3 0.7l0 0 -0.3 0.3c-0.1 0.1-0.1 0.2 0 0.3l0.6 0.5c0.1 0.1 0.2 0.1 0.3 0l0.3-0.3c0.2 0.1 0.5 0.2 0.8 0.3l0 0 0 0.5c0 0.1 0.1 0.2 0.2 0.2l0.8 0c0.1 0 0.1-0.1 0.1-0.2l0-0.5c0.3-0.1 0.5-0.2 0.7-0.3l0 0 0.4 0.3c0.1 0.1 0.2 0.1 0.3 0l0.5-0.6c0.1-0.1 0.1-0.2 0-0.3l-0.3-0.3c0.1-0.2 0.2-0.5 0.3-0.8l0 0 0.5 0c0.1 0 0.1-0.1 0.1-0.2l0-0.8C493.3 365.7 493.3 365.6 493.2 365.6zM489.9 367.4C489.8 367.4 489.8 367.4 489.9 367.4c-0.1 0-0.1 0-0.1-0.1 0 0 0 0 0 0 0 0 0 0 0 0 0 0 0 0 0 0 0 0-0.1-0.1-0.1-0.1s-0.1-0.1-0.1-0.1c0 0 0 0 0-0.1 0-0.1-0.1-0.1-0.1-0.2 -0.1-0.1-0.1-0.3-0.1-0.5 0-0.3 0.1-0.7 0.3-0.9 0 0 0 0 0.1-0.1 0 0 0 0 0 0 0 0 0 0 0 0 0 0 0.1-0.1 0.1-0.1 0 0 0 0 0.1 0 0.1-0.1 0.3-0.1 0.5-0.1 0.2 0 0.4 0 0.5 0.1 0 0 0 0 0.1 0 0 0 0 0 0.1 0 0 0 0 0 0 0 0 0 0 0 0 0 0 0 0 0 0 0 0 0 0 0 0.1 0.1 0 0 0 0 0 0 0 0 0.1 0.1 0.1 0.1 0 0 0 0 0 0 0 0 0 0 0 0 0 0 0 0 0 0.1 0.1 0.1 0.1 0.3 0.1 0.5 0 0.1 0 0.2 0 0.3 0 0 0 0 0 0.1 0 0 0 0.1 0 0.1 0 0 0 0 0 0.1 0 0 0 0 0 0 0 0 0 0 0 0.1 0 0 0 0 0 0 0 0 0 0 0 0 0 0 0 0 0 0 0 0 0 0 0 0 0 0 0 0 0 0 0 0 0 0 0 0 0 0 0 0 0 0 0 0 0 0 0 0 0 0-0.1 0.1-0.1 0.1 0 0 0 0 0 0 0 0 0 0 0 0 0 0 0 0 0 0 0 0 0 0 0 0 0 0 0 0 0 0 -0.2 0.1-0.3 0.1-0.5 0.2C490.2 367.5 490 367.5 489.9 367.4 489.9 367.4 489.9 367.4 489.9 367.4z" class="b"/>
	<path d="M471.1 422.6h-41c-9.4-0.2-4.4-8.3-4.4-8.3l1.8-3.7 0.5-1.1 0.9-1.8 0.1-0.2 0.4-0.9 0.7-1.4 0.2-0.4 0.5-1.1 0.7-1.4 0.2-0.4 0.5-1.1 0.4-0.8 0.5-1 0.5-1.1 0.2-0.4 0.6-1.3 0.5-0.9 0.1-0.1 0.9-1.8 0.2-0.4 0.3-0.7 0.8-1.6 0.1-0.2 0.5-1.1 3.6-7.4c0.9-2.4 1-4.8 1-4.8v-9.3H459v9.3c0 0 0.1 2.3 1 4.8l15.5 32C475.5 414.3 480.5 422.4 471.1 422.6z" class="j"/>
	<path d="M462.2 366.4c0 1.1-0.9 2-2 2h-19c-1.1 0-2-0.9-2-2l0 0c0-1.1 0.9-2 2-2h19C461.3 364.3 462.2 365.2 462.2 366.4L462.2 366.4z" class="j"/>
	<path d="M470.4 412.3l-12.4-25.5c-0.7-1.9-1.2-3.3-1.2-3.3s-13 1.3-13.7 3.3l-12.4 25.5c0 0-4 6.4 3.5 6.6h16.3 0 16.3C474.4 418.7 470.4 412.3 470.4 412.3z" class="k"/>
	<path d="M469.4 410.2c-5.6 3.3-12.8 5.7-20.8 6.8 -6.7 0.8-13 0.6-18.6-0.5 0.3 1.3 1.4 2.4 4.5 2.5h16.3 0H467c7.5-0.2 3.5-6.5 3.5-6.5L469.4 410.2z" style="fill:#D45650;opacity:0.3"/>
	<path d="M465.7 408.7c0.3 0.6 0 1.4-0.8 1.7l0 0c-0.7 0.3-1.5 0.1-1.8-0.5l-6.1-12.5c-0.3-0.6 0-1.4 0.8-1.7l0 0c0.7-0.3 1.5-0.1 1.8 0.5L465.7 408.7z" class="l"/>
	<circle cx="445.3" cy="390.1" r="1.5" class="l"/>
	<circle cx="445.3" cy="396.5" r="3.5" class="l"/>
	<path d="M433.8 403.4l4.1-4.1 0 0c0.4 0.4 1 0.4 1.4 0 0.4-0.4 0.4-1 0-1.4l-3.5-3.5c-0.4-0.4-1-0.4-1.4 0 -0.4 0.4-0.4 1 0 1.4l0 0 -3.5 3.5c-1.5-1.5-3.5-2.7-5.6-3.3v-12.4c0-0.8-0.2-1.5-0.6-2.1h0.5c0.6 0 1-0.5 1-1s-0.5-1-1-1h-7.7c-0.6 0-1 0.5-1 1s0.5 1 1 1h0.5c-0.4 0.6-0.6 1.3-0.6 2.1v12.5c-5.8 1.9-9.8 7.6-9.2 14.1 0.6 6.3 5.7 11.3 11.9 11.9 8 0.8 14.7-5.4 14.7-13.2h3.1c0.4 0 0.8-0.4 0.8-0.8v0c0-0.1 0-0.2-0.1-0.4 0.1-0.1 0.1-0.2 0.1-0.4v-2c0-0.5-0.4-0.9-0.9-0.9 -0.5 0-0.9 0.4-0.9 0.9v2h-2.2C434.7 406 434.3 404.7 433.8 403.4z" class="b"/>
	<path d="M410.6 409.2c0 0 0 0.1 0 0.1 0 6 5 10.9 11.1 10.9 6.1 0 11.1-4.9 11.1-10.9 0 0 0-0.1 0-0.1H410.6z" class="k"/>
	<path d="M419.9 391.7c0.5 0 0.9 0 1.4 0 0.2 0 0.3-0.1 0.3-0.3 0-0.2-0.1-0.3-0.3-0.3 -0.9 0-1.8 0-2.7 0 -0.2 0-0.3 0.1-0.3 0.3 0 0.2 0.1 0.2 0.3 0.2C419 391.7 419.5 391.7 419.9 391.7z" class="e"/>
	<path d="M420 389.7c0.4 0 0.9 0 1.3 0 0.2 0 0.3 0 0.3-0.3 0-0.2-0.2-0.2-0.3-0.2 -0.9 0-1.8 0-2.7 0 -0.2 0-0.3 0-0.3 0.3 0 0.2 0.2 0.2 0.3 0.2C419 389.7 419.5 389.7 420 389.7z" class="e"/>
	<path d="M420 393.7c0.4 0 0.9 0 1.3 0 0.2 0 0.3 0 0.3-0.2 0-0.2-0.2-0.2-0.3-0.2 -0.9 0-1.8 0-2.7 0 -0.2 0-0.3 0-0.3 0.3 0 0.2 0.2 0.2 0.3 0.2C419 393.7 419.5 393.7 420 393.7z" class="e"/>
	<path d="M419.2 392.7c0.2 0 0.5 0 0.7 0 0.1 0 0.3-0.1 0.3-0.2 0-0.2-0.1-0.3-0.3-0.3 -0.5 0-0.9 0-1.4 0 -0.2 0-0.3 0.1-0.3 0.3 0 0.2 0.1 0.2 0.3 0.2C418.8 392.7 419 392.7 419.2 392.7z" class="e"/>
	<path d="M419.2 390.7c0.2 0 0.5 0 0.7 0 0.1 0 0.3-0.1 0.3-0.2 0-0.2-0.1-0.3-0.3-0.3 -0.5 0-0.9 0-1.4 0 -0.2 0-0.2 0.1-0.2 0.3 0 0.2 0.1 0.2 0.2 0.2C418.8 390.7 419 390.7 419.2 390.7z" class="e"/>
	<path d="M419.2 394.7c0.2 0 0.5 0 0.7 0 0.1 0 0.3-0.1 0.3-0.2 0-0.2-0.1-0.2-0.3-0.3 -0.5 0-0.9 0-1.4 0 -0.2 0-0.2 0.1-0.2 0.3 0 0.2 0.1 0.2 0.2 0.2C418.8 394.7 419 394.7 419.2 394.7z" class="e"/>
	<path d="M419.9 385.6c0.5 0 0.9 0 1.4 0 0.2 0 0.3-0.1 0.3-0.3 0-0.2-0.1-0.3-0.3-0.3 -0.9 0-1.8 0-2.7 0 -0.2 0-0.3 0.1-0.3 0.3 0 0.2 0.1 0.2 0.3 0.2C419 385.6 419.5 385.6 419.9 385.6z" class="e"/>
	<path d="M420 383.6c0.4 0 0.9 0 1.3 0 0.2 0 0.3 0 0.3-0.3 0-0.2-0.2-0.2-0.3-0.2 -0.9 0-1.8 0-2.7 0 -0.2 0-0.3 0-0.3 0.3 0 0.2 0.2 0.2 0.3 0.2C419 383.6 419.5 383.6 420 383.6z" class="e"/>
	<path d="M420 387.6c0.4 0 0.9 0 1.3 0 0.2 0 0.3 0 0.3-0.2 0-0.2-0.2-0.2-0.3-0.2 -0.9 0-1.8 0-2.7 0 -0.2 0-0.3 0-0.3 0.3 0 0.2 0.2 0.2 0.3 0.2C419 387.6 419.5 387.6 420 387.6z" class="e"/>
	<path d="M419.2 386.6c0.2 0 0.5 0 0.7 0 0.1 0 0.3-0.1 0.3-0.2 0-0.2-0.1-0.3-0.3-0.3 -0.5 0-0.9 0-1.4 0 -0.2 0-0.3 0.1-0.3 0.3 0 0.2 0.1 0.2 0.3 0.2C418.8 386.6 419 386.6 419.2 386.6z" class="e"/>
	<path d="M419.2 384.6c0.2 0 0.5 0 0.7 0 0.1 0 0.3-0.1 0.3-0.2 0-0.2-0.1-0.3-0.3-0.3 -0.5 0-0.9 0-1.4 0 -0.2 0-0.2 0.1-0.2 0.3 0 0.2 0.1 0.2 0.2 0.2C418.8 384.6 419 384.6 419.2 384.6z" class="e"/>
	<path d="M419.2 388.6c0.2 0 0.5 0 0.7 0 0.1 0 0.3-0.1 0.3-0.2 0-0.2-0.1-0.2-0.3-0.3 -0.5 0-0.9 0-1.4 0 -0.2 0-0.2 0.1-0.2 0.3 0 0.2 0.1 0.2 0.2 0.2C418.8 388.6 419 388.6 419.2 388.6z" class="e"/>
	<path d="M416.5 361.1c-2.6 0-4.8 2.2-4.8 4.8 0 2.6 2.2 4.8 4.8 4.8 2.6 0 4.8-2.2 4.8-4.8C421.3 363.3 419.2 361.1 416.5 361.1zM416.5 370.4c-0.8 0-1.6-0.2-2.3-0.6 0 0-0.1 0-0.1-0.1 -0.3-0.2-0.7-0.5-0.9-0.8 0 0 0 0-0.1-0.1 -0.1-0.1-0.1-0.1-0.2-0.2 0-0.1-0.1-0.1-0.1-0.2 0 0-0.1-0.1-0.1-0.1 -0.1-0.1-0.1-0.2-0.2-0.3 0-0.1-0.1-0.1-0.1-0.2 -0.3-0.6-0.4-1.2-0.4-1.9s0.2-1.4 0.4-1.9c0-0.1 0.1-0.1 0.1-0.2 0.1-0.1 0.1-0.2 0.2-0.3 0 0 0.1-0.1 0.1-0.1 0-0.1 0.1-0.1 0.1-0.2 0.1-0.1 0.1-0.1 0.2-0.2 0 0 0 0 0.1-0.1 0.3-0.3 0.6-0.6 0.9-0.8 0 0 0.1 0 0.1-0.1 0.7-0.4 1.4-0.6 2.3-0.6 1.9 0 3.4 1.1 4.1 2.7 0 0 0 0 0 0.1 0.1 0.1 0.1 0.3 0.2 0.5 0.1 0.4 0.2 0.8 0.2 1.3 0 0.4-0.1 0.9-0.2 1.3 0 0.2-0.1 0.3-0.2 0.5 0 0 0 0 0 0.1C420 369.3 418.4 370.4 416.5 370.4z" class="b"/>
	<path d="M430 347.2c-2.1 0-3.7 1.7-3.7 3.7s1.7 3.7 3.7 3.7c2.1 0 3.7-1.7 3.7-3.7S432.1 347.2 430 347.2zM430 354.4c-0.6 0-1.2-0.2-1.8-0.5 0 0-0.1 0-0.1 0 -0.3-0.2-0.5-0.4-0.7-0.6 0 0 0 0 0 0 0-0.1-0.1-0.1-0.1-0.2 0 0-0.1-0.1-0.1-0.1 0 0 0-0.1-0.1-0.1 0-0.1-0.1-0.1-0.1-0.2 0-0.1-0.1-0.1-0.1-0.2 -0.2-0.5-0.3-1-0.3-1.5 0-0.5 0.1-1.1 0.3-1.5 0-0.1 0.1-0.1 0.1-0.2 0-0.1 0.1-0.2 0.1-0.2 0 0 0-0.1 0.1-0.1 0 0 0.1-0.1 0.1-0.1 0-0.1 0.1-0.1 0.1-0.2 0 0 0 0 0 0 0.2-0.2 0.5-0.4 0.7-0.6 0 0 0.1 0 0.1 0 0.5-0.3 1.1-0.5 1.8-0.5 1.4 0 2.7 0.9 3.2 2.1 0 0 0 0 0 0 0 0.1 0.1 0.2 0.1 0.4 0.1 0.3 0.1 0.6 0.1 1s0 0.7-0.1 1c0 0.1-0.1 0.2-0.1 0.4 0 0 0 0 0 0C432.7 353.5 431.5 354.4 430 354.4z" class="m"/>
	<path d="M447.9 352.3c-2.1 0-3.7 1.7-3.7 3.7 0 2.1 1.7 3.7 3.7 3.7s3.7-1.7 3.7-3.7C451.6 354 449.9 352.3 447.9 352.3z" class="m"/>
	<path d="M450.1 334c-2.1 0-3.7 1.7-3.7 3.7s1.7 3.7 3.7 3.7c2.1 0 3.7-1.7 3.7-3.7S452.2 334 450.1 334zM450.1 341.2c-0.6 0-1.2-0.2-1.8-0.5 0 0-0.1 0-0.1 0 -0.3-0.2-0.5-0.4-0.7-0.6 0 0 0 0 0 0 0-0.1-0.1-0.1-0.1-0.2 0 0-0.1-0.1-0.1-0.1 0 0 0-0.1-0.1-0.1 0-0.1-0.1-0.1-0.1-0.2 0-0.1-0.1-0.1-0.1-0.2 -0.2-0.5-0.3-1-0.3-1.5s0.1-1.1 0.3-1.5c0-0.1 0.1-0.1 0.1-0.2 0-0.1 0.1-0.2 0.1-0.2 0 0 0-0.1 0.1-0.1 0 0 0.1-0.1 0.1-0.1 0-0.1 0.1-0.1 0.1-0.2 0 0 0 0 0 0 0.2-0.2 0.5-0.4 0.7-0.6 0 0 0.1 0 0.1 0 0.5-0.3 1.1-0.5 1.8-0.5 1.4 0 2.7 0.9 3.2 2.1 0 0 0 0 0 0 0 0.1 0.1 0.2 0.1 0.4 0.1 0.3 0.1 0.6 0.1 1 0 0.3 0 0.7-0.1 1 0 0.1-0.1 0.2-0.1 0.4 0 0 0 0 0 0C452.8 340.3 451.5 341.2 450.1 341.2z" class="b"/>
	<path d="M463.6 378.1c-1.2 0-2.3 1-2.3 2.3s1 2.3 2.3 2.3c1.2 0 2.3-1 2.3-2.3S464.9 378.1 463.6 378.1zM463.6 382.5c-0.4 0-0.8-0.1-1.1-0.3 0 0 0 0 0 0 -0.2-0.1-0.3-0.2-0.4-0.4 0 0 0 0 0 0 0 0-0.1-0.1-0.1-0.1 0 0 0-0.1-0.1-0.1 0 0 0 0 0-0.1 0 0-0.1-0.1-0.1-0.1 0 0 0-0.1-0.1-0.1 -0.1-0.3-0.2-0.6-0.2-0.9s0.1-0.6 0.2-0.9c0 0 0-0.1 0.1-0.1 0 0 0.1-0.1 0.1-0.1 0 0 0 0 0-0.1 0 0 0-0.1 0.1-0.1 0 0 0.1-0.1 0.1-0.1 0 0 0 0 0 0 0.1-0.1 0.3-0.3 0.4-0.4 0 0 0 0 0 0 0.3-0.2 0.7-0.3 1.1-0.3 0.9 0 1.6 0.5 1.9 1.3 0 0 0 0 0 0 0 0.1 0.1 0.1 0.1 0.2 0.1 0.2 0.1 0.4 0.1 0.6s0 0.4-0.1 0.6c0 0.1 0 0.1-0.1 0.2 0 0 0 0 0 0C465.2 382 464.5 382.5 463.6 382.5z" class="b"/>
	<path d="M434.7 359.5c-1.2 0-2.3 1-2.3 2.3 0 1.2 1 2.3 2.3 2.3s2.3-1 2.3-2.3C437 360.5 436 359.5 434.7 359.5zM434.7 363.8c-0.4 0-0.8-0.1-1.1-0.3 0 0 0 0 0 0 -0.2-0.1-0.3-0.2-0.4-0.4 0 0 0 0 0 0 0 0-0.1-0.1-0.1-0.1 0 0 0-0.1-0.1-0.1 0 0 0 0 0-0.1 0 0-0.1-0.1-0.1-0.1 0 0 0-0.1-0.1-0.1 -0.1-0.3-0.2-0.6-0.2-0.9 0-0.3 0.1-0.6 0.2-0.9 0 0 0-0.1 0.1-0.1 0 0 0.1-0.1 0.1-0.1 0 0 0 0 0-0.1 0 0 0-0.1 0.1-0.1 0 0 0.1-0.1 0.1-0.1 0 0 0 0 0 0 0.1-0.1 0.3-0.3 0.4-0.4 0 0 0 0 0 0 0.3-0.2 0.7-0.3 1.1-0.3 0.9 0 1.6 0.5 1.9 1.3 0 0 0 0 0 0 0 0.1 0.1 0.1 0.1 0.2 0.1 0.2 0.1 0.4 0.1 0.6 0 0.2 0 0.4-0.1 0.6 0 0.1 0 0.1-0.1 0.2 0 0 0 0 0 0C436.3 363.3 435.6 363.8 434.7 363.8z" class="b"/>
	<path d="M461 352.4c-1.2 0-2.3 1-2.3 2.3 0 1.2 1 2.3 2.3 2.3 1.2 0 2.3-1 2.3-2.3C463.2 353.4 462.2 352.4 461 352.4zM461 356.8c-0.4 0-0.8-0.1-1.1-0.3 0 0 0 0 0 0 -0.2-0.1-0.3-0.2-0.4-0.4 0 0 0 0 0 0 0 0-0.1-0.1-0.1-0.1 0 0 0-0.1-0.1-0.1 0 0 0 0 0-0.1 0 0-0.1-0.1-0.1-0.1 0 0 0-0.1-0.1-0.1 -0.1-0.3-0.2-0.6-0.2-0.9s0.1-0.6 0.2-0.9c0 0 0-0.1 0.1-0.1 0 0 0.1-0.1 0.1-0.1 0 0 0 0 0-0.1 0 0 0-0.1 0.1-0.1 0 0 0.1-0.1 0.1-0.1 0 0 0 0 0 0 0.1-0.1 0.3-0.3 0.4-0.4 0 0 0 0 0 0 0.3-0.2 0.7-0.3 1.1-0.3 0.9 0 1.6 0.5 1.9 1.3 0 0 0 0 0 0 0 0.1 0.1 0.1 0.1 0.2 0.1 0.2 0.1 0.4 0.1 0.6 0 0.2 0 0.4-0.1 0.6 0 0.1 0 0.1-0.1 0.2 0 0 0 0 0 0C462.6 356.2 461.9 356.8 461 356.8z" class="m"/>
	<path d="M436.9 374.5c-2.1 0-3.7 1.7-3.7 3.7s1.7 3.7 3.7 3.7c2.1 0 3.7-1.7 3.7-3.7S439 374.5 436.9 374.5zM436.9 381.7c-0.6 0-1.2-0.2-1.8-0.5 0 0-0.1 0-0.1 0 -0.3-0.2-0.5-0.4-0.7-0.6 0 0 0 0 0 0 0-0.1-0.1-0.1-0.1-0.2 0 0-0.1-0.1-0.1-0.1 0 0 0-0.1-0.1-0.1 0-0.1-0.1-0.1-0.1-0.2 0-0.1-0.1-0.1-0.1-0.2 -0.2-0.5-0.3-1-0.3-1.5 0-0.5 0.1-1.1 0.3-1.5 0-0.1 0.1-0.1 0.1-0.2 0-0.1 0.1-0.2 0.1-0.2 0 0 0-0.1 0.1-0.1 0 0 0.1-0.1 0.1-0.1 0-0.1 0.1-0.1 0.1-0.2 0 0 0 0 0 0 0.2-0.2 0.5-0.4 0.7-0.6 0 0 0.1 0 0.1 0 0.5-0.3 1.1-0.5 1.8-0.5 1.4 0 2.7 0.9 3.2 2.1 0 0 0 0 0 0 0 0.1 0.1 0.2 0.1 0.4 0.1 0.3 0.1 0.6 0.1 1s0 0.7-0.1 1c0 0.1-0.1 0.2-0.1 0.4 0 0 0 0 0 0C439.6 380.8 438.4 381.7 436.9 381.7z" class="m"/>
	<path d="M437.3 341.2L437.3 341.2c-0.1 0-0.1 0-0.2 0l-0.6-0.8c0-0.1 0-0.1 0-0.2l0 0c0.1 0 0.1 0 0.2 0l0.6 0.8C437.4 341.1 437.4 341.2 437.3 341.2z" class="m"/>
	<path d="M439.4 343.6L439.4 343.6c-0.1 0-0.1 0-0.2 0l-0.6-0.8c0-0.1 0-0.1 0-0.2l0 0c0.1 0 0.1 0 0.2 0l0.6 0.8C439.4 343.4 439.4 343.5 439.4 343.6z" class="m"/>
	<path d="M438.6 341.2L438.6 341.2c0.1 0 0.1 0 0.2 0l0.6-0.8c0-0.1 0-0.1 0-0.2l0 0c-0.1 0-0.1 0-0.2 0l-0.6 0.8C438.6 341.1 438.6 341.2 438.6 341.2z" class="m"/>
	<path d="M436.6 343.6L436.6 343.6c0.1 0 0.1 0 0.2 0l0.6-0.8c0-0.1 0-0.1 0-0.2l0 0c-0.1 0-0.1 0-0.2 0l-0.6 0.8C436.6 343.4 436.6 343.5 436.6 343.6z" class="m"/>
	<path d="M458.8 359.6L458.8 359.6c-0.1 0-0.1 0-0.2 0l-0.6-0.8c0-0.1 0-0.1 0-0.2l0 0c0.1 0 0.1 0 0.2 0l0.6 0.8C458.9 359.5 458.9 359.5 458.8 359.6z" class="m"/>
	<path d="M460.8 361.9L460.8 361.9c-0.1 0-0.1 0-0.2 0l-0.6-0.8c0-0.1 0-0.1 0-0.2l0 0c0.1 0 0.1 0 0.2 0l0.6 0.8C460.9 361.8 460.9 361.9 460.8 361.9z" class="m"/>
	<path d="M460.1 359.6L460.1 359.6c0.1 0 0.1 0 0.2 0l0.6-0.8c0-0.1 0-0.1 0-0.2l0 0c-0.1 0-0.1 0-0.2 0l-0.6 0.8C460.1 359.5 460.1 359.5 460.1 359.6z" class="m"/>
	<path d="M458.1 361.9L458.1 361.9c0.1 0 0.1 0 0.2 0l0.6-0.8c0-0.1 0-0.1 0-0.2l0 0c-0.1 0-0.1 0-0.2 0l-0.6 0.8C458 361.8 458.1 361.9 458.1 361.9z" class="m"/>
	<path d="M427.3 370.7L427.3 370.7c-0.1 0-0.1 0-0.2 0l-0.6-0.8c0-0.1 0-0.1 0-0.2l0 0c0.1 0 0.1 0 0.2 0l0.6 0.8C427.4 370.6 427.4 370.7 427.3 370.7z" class="m"/>
	<path d="M429.3 373.1L429.3 373.1c-0.1 0-0.1 0-0.2 0l-0.6-0.8c0-0.1 0-0.1 0-0.2l0 0c0.1 0 0.1 0 0.2 0l0.6 0.8C429.4 372.9 429.4 373 429.3 373.1z" class="m"/>
	<path d="M428.6 370.7L428.6 370.7c0.1 0 0.1 0 0.2 0l0.6-0.8c0-0.1 0-0.1 0-0.2l0 0c-0.1 0-0.1 0-0.2 0l-0.6 0.8C428.5 370.6 428.5 370.7 428.6 370.7z" class="m"/>
	<path d="M426.6 373.1L426.6 373.1c0.1 0 0.1 0 0.2 0l0.6-0.8c0-0.1 0-0.1 0-0.2l0 0c-0.1 0-0.1 0-0.2 0l-0.6 0.8C426.5 372.9 426.5 373 426.6 373.1z" class="m"/>
	<path d="M408 378.9L408 378.9c-0.1 0-0.1 0-0.2 0l-0.6-0.8c0-0.1 0-0.1 0-0.2l0 0c0.1 0 0.1 0 0.2 0l0.6 0.8C408.1 378.8 408 378.9 408 378.9z" class="m"/>
	<path d="M410 381.3L410 381.3c-0.1 0-0.1 0-0.2 0l-0.6-0.8c0-0.1 0-0.1 0-0.2l0 0c0.1 0 0.1 0 0.2 0l0.6 0.8C410.1 381.1 410.1 381.2 410 381.3z" class="m"/>
	<path d="M409.3 378.9L409.3 378.9c0.1 0 0.1 0 0.2 0l0.6-0.8c0-0.1 0-0.1 0-0.2l0 0c-0.1 0-0.1 0-0.2 0l-0.6 0.8C409.2 378.8 409.2 378.9 409.3 378.9z" class="m"/>
	<path d="M407.3 381.3L407.3 381.3c0.1 0 0.1 0 0.2 0l0.6-0.8c0-0.1 0-0.1 0-0.2l0 0c-0.1 0-0.1 0-0.2 0l-0.6 0.8C407.2 381.1 407.2 381.2 407.3 381.3z" class="m"/>
	<path d="M418.2 399.7c0 0-6.6 0.7-7.6 7.7 0 0-1.1 6 5.5 10.2 0 0-1.8-1.6-2.7-5.1 -0.9-3.1-0.6-6.5 0.9-9.4C415.2 401.5 416.4 400 418.2 399.7z" class="l"/>
	<path d="M471.6 339.2c0.9 2-1 3.9-3 3 -0.5-0.2-0.9-0.6-1.1-1.1 -0.9-2 1-3.9 3-3C471 338.3 471.4 338.7 471.6 339.2z" class="m"/>
	<path d="M416.5 350.8c0.9 2-1 3.9-3 3 -0.5-0.2-0.9-0.6-1.1-1.1 -0.9-2 1-3.9 3-3C415.9 349.9 416.3 350.3 416.5 350.8z" class="m"/>
	<rect x="382.4" y="282.6" width="148.9" height="82.1" class="g"/>
	<text transform="matrix(1 0 0 1 420.8488 292.8364)">
		<tspan x="0" y="0" font-family="'Open Sans'" font-size="13.5028" letter-spacing="1" class="b">  Pesquisa </tspan>
		<tspan x="-13.4" y="16.2" font-family="'Open Sans'" font-size="13.5028" letter-spacing="1" class="b">  aplicada OU </tspan>
		<tspan x="-15.3" y="32.4" font-family="'Open Sans'" font-size="13.5028" letter-spacing="1" class="b bold">  tecnologia</tspan>
	</text>
	<path d="M287.1 623.4c-0.2 0.1-0.5 0.2-0.7 0.3 -0.1 0-0.1 0-0.2 0.1 -0.6 0.2-1.3 0.4-2 0.6 -0.1 0-0.2 0-0.3 0.1 -0.3 0.1-0.5 0.1-0.8 0.2 -0.1 0-0.3 0.1-0.4 0.1 -0.2 0-0.5 0.1-0.8 0.1 -0.1 0-0.3 0-0.5 0.1 -0.3 0-0.5 0.1-0.8 0.1 -0.2 0-0.3 0-0.5 0.1 -0.3 0-0.6 0.1-0.9 0.1 -0.1 0-0.3 0-0.4 0 -0.5 0-0.9 0-1.4 0L283 642h10.4 9.3l-8.5-25.6C294.1 616.5 292.9 620.8 287.1 623.4z" class="n"/>
	<path d="M342.5 625.2c-0.3 0-0.6 0-0.9 0 -0.3 0-0.6 0-0.8-0.1 -0.1 0-0.3 0-0.4 0 -0.3 0-0.6-0.1-0.9-0.1 -0.1 0-0.2 0-0.2 0 -0.3 0-0.7-0.1-1-0.2 0 0 0 0 0 0 -10-1.8-11.7-8.4-11.7-8.4l-8.5 25.6h9.2 10.4 0l5.4-16.8C342.8 625.2 342.6 625.2 342.5 625.2z" class="n"/>
	<path d="M319.8 547.7h-9.2 -9.2c-4 11.2-3.4 26.1-3.4 26.1 0.5 23.5 7.3 25.9 7.3 25.9h5.4 5.4c0 0 6.8-2.3 7.3-25.9C323.2 573.8 323.8 558.9 319.8 547.7z" class="k"/>
	<path d="M306.4 601c0 0-5.7-0.3-5 7.9 0 0 1.4-3.1 2.5-2.3 0 0-0.3 12.5 2.9 10.8 0 0 0.4-2.3 2.1-2.7 0 0 1.2 0.3 2 1.4V601L306.4 601z" fill="#D67040"/>
	<path d="M310.1 622.7c0 0 0.3 0.3 0.7 0.5v-1.8C310.6 621.8 310.4 622.3 310.1 622.7z" class="o"/>
	<path d="M319.7 607.1c0 0-1.4-4.8-5.3-6.1l-3.6 0v15.1c0.8 1 1.2 2.7 0 5.3v1.8c1.2 0.6 3.6 0.4 4.3-9.7 0 0 1.6-2 2.4 0.6 0 0 0.5 1.5 0 2.2C317.5 616.4 321.3 616.3 319.7 607.1z" class="o"/>
	<path d="M279.3 622.6c0 0 5 1.1 11.1-4.9l0 0c0 0-1.2-7.7-9.3-12.3 0 0-3.3-2-6.5-2.9l0 0c0 0-4.3-1.7-5.5-5.3 -0.1-0.3-0.2-0.5-0.5-0.7 -0.7-0.6-2.4-1.9-3.9-1.5 0 0-2.3 0.2 0 2.9l0 0c0 0 1.4 2.1 2.3 5 0.1 0.2 0.1 0.4 0.2 0.6 0.4 0.7 1.5 2.3 3.8 3.8 0.2 0.2 0.5 0.3 0.7 0.5 0.6 0.5 1.8 1.6 2.1 2.3h0c0 0-3.4-2-4.2-2.6 0 0-2.7-1.9-4.2-6.1 -0.3-0.9-0.8-1.8-1.4-2.6 -0.8-1-1.7-2.5-1.1-3.6 0 0 1-2.3 4.8-0.4l0 0c0 0-3.5-8.3-4.5-14.2 -0.1-0.9-0.6-1.6-1.4-2.1 -1.1-0.6-2.6-0.6-3.8 3.3l0 0c0 0-1.1 9.4 0.6 14.6l0 0c0 0 2 8.3 3.5 10.8l0 0c0 0 4.5 6.4 10.2 9.2C272.3 616.3 278.3 619.3 279.3 622.6L279.3 622.6z" class="p"/>
	<path d="M292.1 618.5l-0.5-0.8c-5.5 6.3-12.6 5.8-12.6 5.8l0.6 0.9C287 623.8 290.5 620.7 292.1 618.5z" class="k"/>
	<path d="M323.1 575.8c-0.6 17.1-5.1 22.2-6.3 23.2h-6 -6.3 -0.3c-1.2-1.1-5.7-6.1-6.3-23.2 0 0-12.5 9.2-3.2 29.9 0 0 2.6-7.2 9.6-6.5 0.4 0.7 2 2.7 6.5 3.2 4.6-0.5 5.9-2.6 6.2-3.2 6.8-0.5 9.3 6.5 9.3 6.5C335.6 585 323.1 575.8 323.1 575.8z" class="a"/>
	<path d="M310.5 545.8h0.3 7.9c-2.2-7.9-6.5-9.9-7.9-10.3 -0.1 0-0.2-0.1-0.3-0.1 0 0 0 0-0.1 0 0 0-0.1 0-0.1 0 -0.8 0.2-5.8 1.6-8.2 10.4h8.2H310.5z" class="a"/>
	<path d="M310.8 552.1c-3.6 0-6.5 2.9-6.5 6.5 0 3.6 2.9 6.5 6.5 6.5 3.6 0 6.5-2.9 6.5-6.5C317.3 555 314.4 552.1 310.8 552.1zM315.1 560.9c-0.1 0.1-0.2 0.3-0.2 0.4 0 0.1-0.1 0.1-0.1 0.2 -0.1 0.1-0.2 0.2-0.3 0.4 -0.3 0.3-0.6 0.6-0.9 0.8 -0.2 0.1-0.4 0.3-0.6 0.4 -0.6 0.3-1.4 0.5-2.1 0.5s-1.5-0.2-2.1-0.5c-0.2-0.1-0.4-0.2-0.6-0.4 -0.2-0.1-0.4-0.3-0.6-0.4 -0.1-0.1-0.2-0.2-0.3-0.3 -0.1-0.1-0.2-0.2-0.3-0.4 0-0.1-0.1-0.1-0.1-0.2 -0.1-0.1-0.2-0.3-0.2-0.4 -0.4-0.7-0.6-1.5-0.6-2.4 0-1 0.3-2 0.8-2.8 0-0.1 0.1-0.1 0.1-0.2 0.1-0.1 0.2-0.2 0.3-0.4 0.1-0.1 0.2-0.2 0.3-0.3 0.2-0.2 0.4-0.3 0.6-0.4 0.2-0.1 0.4-0.3 0.6-0.4 0.1-0.1 0.3-0.1 0.4-0.2 0.2-0.1 0.3-0.1 0.5-0.1 0.4-0.1 0.8-0.2 1.2-0.2 0.4 0 0.8 0.1 1.2 0.2 0.2 0 0.3 0.1 0.5 0.1 0.2 0.1 0.3 0.1 0.4 0.2 0.2 0.1 0.4 0.2 0.6 0.4 0.3 0.2 0.6 0.5 0.9 0.8 0.1 0.1 0.2 0.2 0.3 0.4 0 0.1 0.1 0.1 0.1 0.2 0.5 0.8 0.8 1.7 0.8 2.8C315.7 559.4 315.5 560.2 315.1 560.9z" class="q"/>
	<path d="M310.8 567.9c-1.8 0-3.2 1.4-3.2 3.2s1.4 3.2 3.2 3.2 3.2-1.4 3.2-3.2S312.6 567.9 310.8 567.9zM313 572.3c0 0.1-0.1 0.1-0.1 0.2 0 0 0 0.1-0.1 0.1 0 0.1-0.1 0.1-0.1 0.2 -0.1 0.1-0.3 0.3-0.4 0.4 -0.1 0.1-0.2 0.1-0.3 0.2 -0.3 0.2-0.7 0.2-1.1 0.2s-0.7-0.1-1.1-0.2c-0.1-0.1-0.2-0.1-0.3-0.2 -0.1-0.1-0.2-0.1-0.3-0.2 -0.1-0.1-0.1-0.1-0.2-0.2 -0.1-0.1-0.1-0.1-0.1-0.2 0 0 0-0.1-0.1-0.1 0-0.1-0.1-0.1-0.1-0.2 -0.2-0.3-0.3-0.7-0.3-1.2 0-0.5 0.2-1 0.4-1.4 0 0 0-0.1 0.1-0.1 0-0.1 0.1-0.1 0.1-0.2 0.1-0.1 0.1-0.1 0.2-0.2 0.1-0.1 0.2-0.2 0.3-0.2 0.1-0.1 0.2-0.1 0.3-0.2 0.1 0 0.1-0.1 0.2-0.1 0.1 0 0.2-0.1 0.2-0.1 0.2-0.1 0.4-0.1 0.6-0.1s0.4 0 0.6 0.1c0.1 0 0.2 0 0.2 0.1 0.1 0 0.1 0.1 0.2 0.1 0.1 0.1 0.2 0.1 0.3 0.2 0.2 0.1 0.3 0.2 0.4 0.4 0.1 0.1 0.1 0.1 0.1 0.2 0 0 0 0.1 0.1 0.1 0.3 0.4 0.4 0.9 0.4 1.4C313.3 571.5 313.2 571.9 313 572.3z" class="q"/>
	<path d="M310.8 556c-1.4 0-2.5 1.1-2.5 2.5 0 1.4 1.1 2.5 2.5 2.5 1.4 0 2.5-1.1 2.5-2.5C313.3 557.2 312.2 556 310.8 556zM312.5 559.4c0 0.1-0.1 0.1-0.1 0.2 0 0 0 0.1-0.1 0.1 0 0-0.1 0.1-0.1 0.1 -0.1 0.1-0.2 0.2-0.3 0.3 -0.1 0.1-0.2 0.1-0.2 0.1 -0.2 0.1-0.5 0.2-0.8 0.2s-0.6-0.1-0.8-0.2c-0.1 0-0.2-0.1-0.2-0.1s-0.1-0.1-0.2-0.2c0 0-0.1-0.1-0.1-0.1 0 0-0.1-0.1-0.1-0.1 0 0 0 0-0.1-0.1 0-0.1-0.1-0.1-0.1-0.2 -0.1-0.3-0.2-0.6-0.2-0.9 0-0.4 0.1-0.8 0.3-1.1 0 0 0-0.1 0.1-0.1 0 0 0.1-0.1 0.1-0.1 0 0 0.1-0.1 0.1-0.1 0.1-0.1 0.1-0.1 0.2-0.2s0.2-0.1 0.2-0.1c0.1 0 0.1-0.1 0.2-0.1 0.1 0 0.1 0 0.2-0.1 0.2 0 0.3-0.1 0.5-0.1s0.3 0 0.5 0.1c0.1 0 0.1 0 0.2 0.1s0.1 0 0.2 0.1c0.1 0 0.2 0.1 0.2 0.1 0.1 0.1 0.2 0.2 0.3 0.3 0 0 0.1 0.1 0.1 0.1 0 0 0 0 0.1 0.1 0.2 0.3 0.3 0.7 0.3 1.1C312.7 558.9 312.6 559.2 312.5 559.4z" class="q"/>
	<circle cx="282.5" cy="629.8" r="1.3" class="r"/>
	<path d="M285 632c0.6 1.1-0.5 2.2-1.7 1.7 -0.2-0.1-0.3-0.2-0.4-0.4 -0.6-1.1 0.5-2.2 1.7-1.7C284.8 631.7 284.9 631.8 285 632z" class="r"/>
	<path d="M341.1 622.6c0 0-5 1.1-11.1-4.9l0 0c0 0 1.2-7.7 9.3-12.3 0 0 3.3-2 6.5-2.9l0 0c0 0 4.3-1.7 5.5-5.3 0.1-0.3 0.2-0.5 0.5-0.7 0.7-0.6 2.4-1.9 3.9-1.5 0 0 2.3 0.2 0 2.9l0 0c0 0-1.4 2.1-2.3 5 -0.1 0.2-0.1 0.4-0.2 0.6 -0.4 0.7-1.5 2.3-3.8 3.8 -0.2 0.2-0.5 0.3-0.7 0.5 -0.6 0.5-1.8 1.6-2.1 2.3l0 0c0 0 3.4-2 4.2-2.6 0 0 2.7-1.9 4.2-6.1 0.3-0.9 0.8-1.8 1.4-2.6 0.8-1 1.7-2.5 1.1-3.6 0 0-1-2.3-4.8-0.4l0 0c0 0 3.5-8.3 4.5-14.2 0.1-0.9 0.6-1.6 1.4-2.1 1.1-0.6 2.6-0.6 3.8 3.3l0 0c0 0 1.1 9.4-0.6 14.6l0 0c0 0-2 8.3-3.5 10.8l0 0c0 0-4.5 6.4-10.2 9.2C348.1 616.3 342.2 619.3 341.1 622.6L341.1 622.6z" class="p"/>
	<path d="M328.4 618.5l0.5-0.8c5.5 6.3 12.6 5.8 12.6 5.8l-0.6 0.9C333.5 623.8 330 620.7 328.4 618.5z" class="k"/>
	<circle cx="338" cy="629.8" r="1.3" class="r"/>
	<path d="M335.5 632c-0.6 1.1 0.5 2.2 1.7 1.7 0.2-0.1 0.3-0.2 0.4-0.4 0.6-1.1-0.5-2.2-1.7-1.7C335.7 631.7 335.5 631.8 335.5 632z" class="r"/>
	<path d="M291.7 572.8l-0.6 0c-0.1-0.3-0.2-0.6-0.4-0.9l0 0 0.4-0.4c0.1-0.1 0.1-0.2 0-0.3l-0.7-0.7c-0.1-0.1-0.2-0.1-0.3 0l-0.4 0.4c-0.3-0.2-0.5-0.3-0.9-0.3v0l0-0.6c0-0.1-0.1-0.2-0.2-0.2l-1 0c-0.1 0-0.2 0.1-0.2 0.2l0 0.6c-0.3 0.1-0.6 0.2-0.9 0.4l0 0 -0.4-0.4c-0.1-0.1-0.2-0.1-0.3 0l-0.7 0.7c-0.1 0.1-0.1 0.2 0 0.3l0.4 0.4c-0.2 0.3-0.3 0.5-0.3 0.8h0l-0.6 0.1c-0.1 0-0.2 0.1-0.2 0.2l0 1c0 0.1 0.1 0.2 0.2 0.2l0.6 0c0.1 0.3 0.2 0.6 0.4 0.9l0 0 -0.4 0.4c-0.1 0.1-0.1 0.2 0 0.3l0.7 0.7c0.1 0.1 0.2 0.1 0.3 0l0.4-0.4c0.3 0.2 0.6 0.3 0.9 0.3v0l0 0.6c0 0.1 0.1 0.2 0.2 0.2l1 0c0.1 0 0.2-0.1 0.2-0.2l0-0.6c0.3-0.1 0.7-0.2 0.8-0.4v0l0.4 0.4c0.1 0.1 0.2 0.1 0.3 0l0.7-0.7c0.1-0.1 0.1-0.2 0-0.3l-0.4-0.4c0.2-0.3 0.3-0.6 0.3-0.9h0l0.6 0c0.1 0 0.2-0.1 0.2-0.2l0-1C291.9 572.8 291.8 572.8 291.7 572.8zM287.7 574.8C287.7 574.8 287.7 574.8 287.7 574.8c-0.1 0-0.1-0.1-0.2-0.1 0 0 0 0-0.1 0 0 0 0 0-0.1 0 0 0 0 0 0 0 -0.1 0-0.1-0.1-0.1-0.1 0 0-0.1-0.1-0.1-0.1 0 0 0 0 0-0.1 0-0.1-0.1-0.1-0.1-0.2 -0.1-0.2-0.1-0.3-0.1-0.5 0-0.4 0.2-0.8 0.4-1 0 0 0 0 0.1-0.1 0 0 0 0 0 0 0 0 0 0 0.1 0 0.1 0 0.1-0.1 0.2-0.1 0 0 0 0 0.1 0 0.2-0.1 0.3-0.1 0.5-0.1 0.2 0 0.4 0 0.6 0.1 0 0 0 0 0.1 0 0 0 0.1 0 0.1 0.1 0 0 0 0 0.1 0 0 0 0 0 0 0 0 0 0 0 0.1 0 0 0 0.1 0 0.1 0.1 0 0 0 0 0 0 0 0 0.1 0.1 0.1 0.1 0 0 0 0 0 0.1 0 0 0 0 0 0.1 0 0 0 0.1 0 0.1 0.1 0.2 0.1 0.4 0.2 0.6 0 0.1 0 0.2 0 0.3 0 0 0 0 0 0.1 0 0 0 0.1 0 0.1 0 0 0 0 0 0.1 0 0 0 0 0 0 0 0 0 0.1 0 0.1 0 0 0 0 0 0.1 0 0 0 0 0 0 0 0 0 0 0 0 0 0 0 0 0 0 0 0 0 0 0 0.1 0 0 0 0 0 0 0 0 0 0 0 0 0 0 0 0 0 0 0 0-0.1 0.1-0.1 0.1 0 0 0 0 0 0 0 0 0 0-0.1 0 0 0 0 0-0.1 0 0 0 0 0 0 0 0 0 0 0-0.1 0 -0.2 0.1-0.4 0.2-0.6 0.2C288.1 574.9 287.9 574.9 287.7 574.8 287.7 574.8 287.7 574.8 287.7 574.8z" class="s"/>
	<path d="M337.5 563l-0.4 0c-0.1-0.3-0.2-0.5-0.3-0.7l0 0 0.3-0.3c0.1-0.1 0.1-0.2 0-0.2l-0.5-0.5c-0.1-0.1-0.2-0.1-0.2 0l-0.3 0.3c-0.2-0.1-0.3-0.2-0.6-0.3v0l0-0.4c0-0.1-0.1-0.2-0.2-0.2l-0.7 0c-0.1 0-0.1 0.1-0.1 0.2l0 0.4c-0.3 0.1-0.5 0.2-0.7 0.3l0 0 -0.3-0.3c-0.1-0.1-0.2-0.1-0.2 0l-0.5 0.5c-0.1 0.1-0.1 0.2 0 0.2l0.3 0.3c-0.1 0.2-0.2 0.5-0.3 0.6h0l-0.4 0c-0.1 0-0.1 0.1-0.1 0.2l0 0.7c0 0.1 0.1 0.2 0.1 0.2l0.4 0c0.1 0.3 0.2 0.5 0.3 0.6l0 0 -0.3 0.3c-0.1 0.1-0.1 0.2 0 0.2l0.5 0.5c0.1 0.1 0.2 0.1 0.2 0l0.3-0.3c0.2 0.1 0.4 0.2 0.7 0.3v0l0 0.4c0 0.1 0 0.2 0.1 0.2l0.7 0c0.1 0 0.2-0.1 0.2-0.2l0-0.4c0.3-0.1 0.5-0.2 0.7-0.3v0l0.3 0.3c0.1 0.1 0.2 0.1 0.2 0l0.5-0.5c0.1-0.1 0.1-0.2 0-0.2l-0.3-0.3c0.1-0.2 0.2-0.4 0.2-0.7h0l0.4 0c0.1 0 0.2-0.1 0.2-0.2l0-0.7C337.7 563 337.6 563 337.5 563zM334.5 564.5C334.5 564.5 334.5 564.5 334.5 564.5c-0.1 0-0.1 0-0.1-0.1 0 0 0 0 0 0 0 0 0 0 0 0 0 0 0 0 0 0 0 0-0.1-0.1-0.1-0.1 0 0-0.1-0.1-0.1-0.1 0 0 0 0 0 0 0 0-0.1-0.1-0.1-0.2 -0.1-0.1-0.1-0.3-0.1-0.4 0-0.3 0.1-0.6 0.3-0.8 0 0 0 0 0.1-0.1 0 0 0 0 0 0 0 0 0 0 0 0 0 0 0.1-0.1 0.1-0.1 0 0 0 0 0 0 0.1-0.1 0.3-0.1 0.4-0.1 0.2 0 0.3 0 0.5 0.1 0 0 0 0 0 0 0 0 0 0 0.1 0 0 0 0 0 0 0 0 0 0 0 0 0 0 0 0 0 0 0 0 0 0 0 0.1 0 0 0 0 0 0 0 0 0 0.1 0.1 0.1 0.1 0 0 0 0 0 0 0 0 0 0 0 0 0 0 0 0 0 0.1 0.1 0.1 0.1 0.3 0.1 0.5 0 0.1 0 0.2 0 0.3 0 0 0 0 0 0.1 0 0 0 0 0 0.1 0 0 0 0 0 0 0 0 0 0 0 0 0 0 0 0 0 0.1 0 0 0 0 0 0 0 0 0 0 0 0 0 0 0 0 0 0 0 0 0 0 0 0 0 0 0 0 0 0 0 0 0 0 0 0 0 0 0 0 0 0 0 0 0 0 0 0 0 0 0 0-0.1 0.1 0 0 0 0 0 0 0 0 0 0 0 0 0 0 0 0 0 0 0 0 0 0 0 0 0 0 0 0 0 0 -0.1 0.1-0.3 0.1-0.5 0.1C334.8 564.6 334.7 564.6 334.5 564.5 334.5 564.6 334.5 564.6 334.5 564.5z" class="s"/>
	<path d="M343.6 584.1l-0.7 0c-0.1-0.4-0.3-0.8-0.5-1.1l0 0 0.5-0.5c0.1-0.1 0.1-0.3 0-0.4l-0.9-0.9c-0.1-0.1-0.3-0.1-0.4 0l-0.5 0.5c-0.4-0.2-0.6-0.3-1.1-0.4v0l0-0.7c0-0.2-0.2-0.3-0.3-0.3l-1.2 0c-0.2 0-0.2 0.1-0.2 0.3l0 0.7c-0.4 0.1-0.8 0.3-1.1 0.5l0 0 -0.5-0.5c-0.1-0.1-0.3-0.1-0.4 0l-0.9 0.9c-0.1 0.1-0.1 0.3 0 0.4l0.5 0.5c-0.2 0.4-0.3 0.7-0.4 1.1h0l-0.7 0c-0.2 0-0.2 0.1-0.2 0.3l0 1.2c0 0.2 0.1 0.3 0.3 0.3l0.7 0c0.1 0.4 0.3 0.8 0.5 1.1l0 0 -0.5 0.5c-0.1 0.1-0.1 0.3 0 0.4l0.9 0.8c0.1 0.1 0.3 0.1 0.4 0l0.5-0.5c0.4 0.2 0.7 0.3 1.2 0.4v0l0 0.7c0 0.2 0.1 0.3 0.2 0.3l1.2 0c0.2 0 0.3-0.1 0.3-0.3l0-0.7c0.4-0.1 0.8-0.3 1.1-0.5v0l0.5 0.5c0.1 0.1 0.3 0.1 0.4 0l0.9-0.9c0.1-0.1 0.1-0.3 0-0.4l-0.5-0.5c0.2-0.4 0.3-0.7 0.4-1.1h0l0.7 0c0.2 0 0.3-0.1 0.3-0.3l0-1.2C343.9 584.2 343.7 584.1 343.6 584.1zM338.5 586.7C338.5 586.7 338.4 586.7 338.5 586.7c-0.1 0-0.2-0.1-0.2-0.1 0 0 0 0-0.1 0 0 0 0 0-0.1 0 0 0 0 0 0 0 -0.1 0-0.1-0.1-0.2-0.2 -0.1-0.1-0.1-0.1-0.2-0.2 0 0 0-0.1-0.1-0.1 -0.1-0.1-0.1-0.2-0.1-0.3 -0.1-0.2-0.2-0.4-0.2-0.7 0-0.5 0.2-1 0.5-1.3 0 0 0.1-0.1 0.1-0.1 0 0 0 0 0 0 0 0 0 0 0.1-0.1 0.1 0 0.1-0.1 0.2-0.1 0 0 0.1 0 0.1 0 0.2-0.1 0.4-0.2 0.7-0.2 0.3 0 0.6 0.1 0.8 0.2 0 0 0.1 0 0.1 0 0 0 0.1 0 0.1 0.1 0 0 0 0 0.1 0 0 0 0 0 0 0 0 0 0 0 0.1 0.1 0 0 0.1 0.1 0.1 0.1 0 0 0 0 0.1 0.1 0 0.1 0.1 0.1 0.1 0.2 0 0 0 0 0 0.1 0 0 0 0 0 0.1 0 0 0 0.1 0.1 0.1 0.1 0.2 0.2 0.5 0.2 0.8 0 0.2 0 0.3 0 0.4 0 0 0 0.1 0 0.1 0 0 0 0.1 0 0.1 0 0 0 0.1 0 0.1 0 0 0 0 0 0.1 0 0 0 0.1-0.1 0.1 0 0 0 0 0 0.1 0 0 0 0 0 0.1 0 0 0 0 0 0 0 0 0 0 0 0 0 0 0 0-0.1 0.1 0 0 0 0 0 0 0 0 0 0-0.1 0.1 0 0 0 0 0 0 0 0-0.1 0.1-0.1 0.1 0 0 0 0 0 0 0 0 0 0-0.1 0.1s0 0-0.1 0c0 0 0 0 0 0 0 0 0 0-0.1 0 -0.2 0.1-0.5 0.2-0.8 0.2C339 586.8 338.7 586.8 338.5 586.7 338.5 586.7 338.5 586.7 338.5 586.7z" class="s"/>
	<path d="M294.7 562.4l-0.3 0c0-0.2-0.1-0.3-0.2-0.5l0 0 0.2-0.2c0 0 0-0.1 0-0.2l-0.4-0.4c0 0-0.1 0-0.2 0l-0.2 0.2c-0.2-0.1-0.3-0.1-0.5-0.2v0l0-0.3c0-0.1 0-0.1-0.1-0.1l-0.5 0c-0.1 0-0.1 0.1-0.1 0.1l0 0.3c-0.2 0-0.3 0.1-0.5 0.2l0 0 -0.2-0.2c0 0-0.1 0-0.2 0l-0.4 0.4c0 0 0 0.1 0 0.2l0.2 0.2c-0.1 0.2-0.1 0.3-0.2 0.5h0l-0.3 0c-0.1 0-0.1 0.1-0.1 0.1l0 0.5c0 0.1 0 0.1 0.1 0.1l0.3 0c0 0.2 0.1 0.3 0.2 0.5l0 0 -0.2 0.2c0 0 0 0.1 0 0.2l0.4 0.4c0 0 0.1 0 0.2 0l0.2-0.2c0.2 0.1 0.3 0.1 0.5 0.2v0l0 0.3c0 0.1 0 0.1 0.1 0.1l0.5 0c0.1 0 0.1-0.1 0.1-0.1l0-0.3c0.2 0 0.3-0.1 0.5-0.2v0l0.2 0.2c0 0 0.1 0 0.2 0l0.4-0.4c0 0 0-0.1 0-0.2l-0.2-0.2c0.1-0.2 0.1-0.3 0.2-0.4h0l0.3 0c0.1 0 0.1-0.1 0.1-0.1l0-0.5C294.8 562.4 294.8 562.4 294.7 562.4zM292.5 563.5C292.5 563.5 292.5 563.5 292.5 563.5 292.5 563.5 292.4 563.5 292.5 563.5c-0.1 0-0.1-0.1-0.1-0.1 0 0 0 0 0 0 0 0 0 0 0 0 0 0-0.1 0-0.1-0.1 0 0 0-0.1-0.1-0.1 0 0 0 0 0 0 0 0 0-0.1-0.1-0.1 0-0.1-0.1-0.2-0.1-0.3 0-0.2 0.1-0.4 0.2-0.6 0 0 0 0 0 0 0 0 0 0 0 0 0 0 0 0 0 0 0 0 0.1 0 0.1-0.1 0 0 0 0 0 0 0.1 0 0.2-0.1 0.3-0.1 0.1 0 0.2 0 0.3 0.1 0 0 0 0 0 0 0 0 0 0 0 0 0 0 0 0 0 0 0 0 0 0 0 0 0 0 0 0 0 0 0 0 0 0 0 0 0 0 0 0 0 0 0 0 0 0 0.1 0.1 0 0 0 0 0 0 0 0 0 0 0 0 0 0 0 0 0 0 0.1 0.1 0.1 0.2 0.1 0.3 0 0.1 0 0.1 0 0.2 0 0 0 0 0 0 0 0 0 0 0 0.1 0 0 0 0 0 0 0 0 0 0 0 0 0 0 0 0 0 0 0 0 0 0 0 0 0 0 0 0 0 0 0 0 0 0 0 0 0 0 0 0 0 0 0 0 0 0 0 0 0 0 0 0 0 0 0 0 0 0 0 0 0 0 0 0 0 0 0 0 0 0-0.1 0 0 0 0 0 0 0 0 0 0 0 0 0 0 0 0 0 0 0 0 0 0 0 0 0 0 0 0 0 0 0 -0.1 0.1-0.2 0.1-0.3 0.1C292.7 563.6 292.6 563.6 292.5 563.5 292.5 563.5 292.5 563.5 292.5 563.5z" class="s"/>
	<path d="M285.6 564.4l-0.2 0c0-0.1-0.1-0.2-0.1-0.3l0 0 0.1-0.1c0 0 0-0.1 0-0.1l-0.2-0.2c0 0-0.1 0-0.1 0l-0.2 0.1c-0.1 0-0.2-0.1-0.3-0.1v0l0-0.2c0 0 0-0.1-0.1-0.1l-0.3 0c0 0 0 0 0 0.1l0 0.2c-0.1 0-0.2 0.1-0.3 0.1l0 0 -0.1-0.1c0 0-0.1 0-0.1 0l-0.2 0.2c0 0 0 0.1 0 0.1l0.1 0.1c0 0.1-0.1 0.2-0.1 0.2h0l-0.2 0.1c0 0-0.1 0.1-0.1 0.1l0 0.3c0 0 0 0.1 0.1 0.1l0.2 0c0 0.1 0.1 0.2 0.1 0.3l0 0 -0.1 0.1c0 0 0 0.1 0 0.1l0.2 0.2c0 0 0.1 0 0.1 0l0.1-0.1c0.1 0 0.1 0.1 0.3 0.1v0l0 0.2c0 0 0 0.1 0.1 0.1l0.3 0c0 0 0.1 0 0.1-0.1l0-0.2c0.1 0 0.2-0.1 0.2-0.1v0l0.2 0.1c0 0 0.1 0 0.1 0l0.2-0.2c0 0 0-0.1 0-0.1l-0.1-0.1c0-0.1 0.1-0.1 0.1-0.3h0l0.2 0c0 0 0.1 0 0.1-0.1L285.6 564.4C285.7 564.4 285.7 564.4 285.6 564.4zM284.4 565C284.4 565 284.4 565 284.4 565 284.4 565 284.4 565 284.4 565 284.4 565 284.3 565 284.4 565 284.3 565 284.3 565 284.4 565 284.3 565 284.3 565 284.4 565c-0.1-0.1-0.1-0.1-0.1-0.1 0 0 0 0 0 0 0 0 0 0 0 0 0 0 0 0 0-0.1 0-0.1 0-0.1 0-0.2 0-0.1 0-0.2 0.1-0.3 0 0 0 0 0 0 0 0 0 0 0 0 0 0 0 0 0 0 0 0 0 0 0.1 0 0 0 0 0 0 0 0 0 0.1 0 0.2 0 0.1 0 0.1 0 0.2 0 0 0 0 0 0 0 0 0 0 0 0 0 0 0 0 0 0 0 0 0 0 0 0 0 0 0 0 0 0 0 0 0 0 0 0 0 0 0 0 0 0 0 0 0 0 0 0 0 0 0 0 0 0 0s0 0 0 0c0 0 0 0 0 0 0 0.1 0 0.1 0 0.2 0 0 0 0.1 0 0.1 0 0 0 0 0 0 0 0 0 0 0 0 0 0 0 0 0 0 0 0 0 0 0 0 0 0 0 0 0 0 0 0 0 0 0 0 0 0 0 0 0 0 0 0 0 0 0 0 0 0 0 0 0 0 0 0 0 0 0 0 0 0 0 0 0 0 0 0 0 0 0 0 0 0 0 0 0 0 0 0 0 0 0 0 0 0 0 0 0 0 0 0 0 0 0 0 0 0 0 0 0 0 0 0 0 0 0 0 0 0 0 0 0 0 -0.1 0-0.1 0-0.2 0.1C284.5 565 284.5 565 284.4 565 284.4 565 284.4 565 284.4 565z" class="s"/>
	<path d="M332.3 575.4l-0.3 0c0-0.2-0.1-0.3-0.2-0.5l0 0 0.2-0.2c0 0 0-0.1 0-0.2l-0.4-0.4c0 0-0.1 0-0.2 0l-0.3 0.2c-0.2-0.1-0.4-0.1-0.5-0.2v0l0-0.3c0-0.1 0-0.1-0.1-0.1l-0.5 0c-0.1 0-0.1 0.1-0.1 0.1l0 0.3c-0.2 0-0.3 0.1-0.5 0.2l0 0 -0.2-0.2c0 0-0.1 0-0.2 0l-0.4 0.4c0 0 0 0.1 0 0.2l0.2 0.2c-0.1 0.2-0.1 0.3-0.2 0.4h0l-0.3 0.1c-0.1 0-0.1 0.1-0.1 0.1l0 0.5c0 0.1 0 0.1 0.1 0.1l0.3 0c0 0.2 0.1 0.3 0.2 0.5l0 0 -0.2 0.2c0 0 0 0.1 0 0.2l0.4 0.4c0 0 0.1 0 0.2 0l0.2-0.2c0.2 0.1 0.3 0.1 0.5 0.2v0l0 0.3c0 0.1 0 0.1 0.1 0.1l0.5 0c0.1 0 0.1-0.1 0.1-0.1l0-0.3c0.2 0 0.3-0.1 0.5-0.2v0l0.2 0.2c0 0 0.1 0 0.2 0l0.4-0.4c0 0 0-0.1 0-0.2l-0.2-0.2c0.1-0.2 0.1-0.3 0.2-0.5h0l0.3 0c0.1 0 0.1-0.1 0.1-0.1l0-0.5C332.4 575.4 332.3 575.4 332.3 575.4zM330.1 576.5C330.1 576.5 330.1 576.5 330.1 576.5 330 576.5 330 576.5 330.1 576.5c-0.1 0-0.1-0.1-0.1-0.1s0 0 0 0c0 0 0 0 0 0 0 0-0.1 0-0.1-0.1 0 0 0-0.1-0.1-0.1 0 0 0 0 0 0 0 0 0-0.1-0.1-0.1 0-0.1-0.1-0.2-0.1-0.3 0-0.2 0.1-0.4 0.2-0.6 0 0 0 0 0 0 0 0 0 0 0 0 0 0 0 0 0 0 0 0 0.1 0 0.1-0.1 0 0 0 0 0 0 0.1 0 0.2-0.1 0.3-0.1 0.1 0 0.2 0 0.3 0.1 0 0 0 0 0 0 0 0 0 0 0 0 0 0 0 0 0 0 0 0 0 0 0 0 0 0 0 0 0 0 0 0 0 0 0 0 0 0 0 0 0 0 0 0 0 0 0.1 0.1 0 0 0 0 0 0 0 0 0 0 0 0 0 0 0 0 0 0 0.1 0.1 0.1 0.2 0.1 0.3 0 0.1 0 0.1 0 0.2 0 0 0 0 0 0 0 0 0 0 0 0.1 0 0 0 0 0 0 0 0 0 0 0 0 0 0 0 0 0 0 0 0 0 0 0 0 0 0 0 0 0 0 0 0 0 0 0 0 0 0 0 0 0 0 0 0 0 0 0 0 0 0 0 0 0 0 0 0 0 0 0 0 0 0 0 0 0 0 0 0 0 0-0.1 0 0 0 0 0 0 0 0 0 0 0 0 0 0 0 0 0 0 0 0 0 0 0 0 0 0 0 0 0 0 0 -0.1 0.1-0.2 0.1-0.3 0.1C330.3 576.6 330.2 576.6 330.1 576.5 330.1 576.5 330.1 576.5 330.1 576.5z" class="s"/>
	<rect x="190.1" y="479" width="117.8" height="82.1" class="g"/>
	<text transform="matrix(1 0 0 1 245.1227 489.2295)">
		<tspan x="0" y="0" font-family="'Open Sans'" font-size="13.5028" letter-spacing="1" class="b">  ideia de </tspan>
		<tspan x="-33.5" y="16.2" font-family="'Open Sans'" font-size="13.5028" letter-spacing="1" class="b">  negócio ou </tspan>
		<tspan x="-28.2" y="32.4" font-family="'Open San'" font-size="13.5028" letter-spacing="1" class="b bold">  protótipo</tspan>
	</text>
	<g class="t">
		<path d="M415.8 807.1c-0.1 0-0.2 0-0.2 0 0.2-0.5 0.2-1 0.2-1.6 0-3.2-2.9-5.8-6.4-5.8 -3.2 0-5.9 2.2-6.3 5 -0.4-0.1-0.8-0.2-1.2-0.2 -2.5 0-4.5 1.8-4.5 4.1s2 4.1 4.5 4.1h13.9c1.7 0 3.1-1.3 3.1-2.9C418.9 808.3 417.5 807.1 415.8 807.1z" class="b"/>
	</g>
	<g class="t">
		<path d="M516.8 799.2c-0.1 0-0.2 0-0.3 0 0.2-0.5 0.3-1 0.3-1.6 0-3.2-3.4-5.8-7.6-5.8 -3.8 0-7 2.2-7.5 5 -0.5-0.1-0.9-0.2-1.5-0.2 -3 0-5.4 1.8-5.4 4.1 0 2.3 2.4 4.1 5.4 4.1h16.5c2.1 0 3.7-1.3 3.7-2.9S518.8 799.2 516.8 799.2z" class="b"/>
	</g>
	<g class="t">
	<path d="M468.2 800.1c0 0-0.1 0-0.1 0 0.1-0.3 0.1-0.5 0.1-0.8 0-1.6-1.6-3-3.5-3 -1.8 0-3.2 1.1-3.5 2.6 -0.2-0.1-0.4-0.1-0.7-0.1 -1.4 0-2.5 0.9-2.5 2.1 0 1.2 1.1 2.1 2.5 2.1h7.7c1 0 1.7-0.7 1.7-1.5C469.9 800.8 469.1 800.1 468.2 800.1z" class="b"/>
	</g>
	<g class="t">
	<path d="M408.1 835.6c-0.1 0-0.1 0-0.2 0 0.1-0.4 0.2-0.8 0.2-1.2 0-2.4-2.3-4.3-5.1-4.3 -2.6 0-4.8 1.6-5.1 3.7 -0.3-0.1-0.6-0.1-1-0.1 -2 0-3.6 1.4-3.6 3.1 0 1.7 1.6 3.1 3.6 3.1h11.2c1.4 0 2.5-1 2.5-2.1C410.6 836.6 409.5 835.6 408.1 835.6z" class="b"/>
	</g>
	<g class="t">
		<path d="M517.4 859.2c-0.1 0-0.1 0-0.2 0 0.1-0.4 0.2-0.8 0.2-1.2 0-2.4-2.3-4.3-5.1-4.3 -2.6 0-4.8 1.6-5.1 3.7 -0.3-0.1-0.6-0.1-1-0.1 -2 0-3.6 1.4-3.6 3.1 0 1.7 1.6 3.1 3.6 3.1h11.2c1.4 0 2.5-1 2.5-2.1C520 860.1 518.8 859.2 517.4 859.2z" class="b"/>
	</g>
	<rect x="427.2" y="828.8" width="65.4" height="51.9" fill="#CECECE"/>
	<polygon points="427.2 831.7 424.2 847.9 430.7 847.9 433.4 831.7 " class="b"/>
	<polygon points="433.4 831.7 430.7 847.9 437.2 847.9 439.5 831.7 " class="k"/>
	<polygon points="439.5 831.7 437.2 847.9 443.7 847.9 445.7 831.7 " class="b"/>
	<polygon points="445.7 831.7 443.7 847.9 450.2 847.9 451.9 831.7 " class="k"/>
	<polygon points="451.9 831.7 450.2 847.9 456.7 847.9 457.5 831.7 " class="b"/>
	<polygon points="492.6 831.7 486.4 831.7 489.1 847.9 495.6 847.9 " class="b"/>
	<polygon points="480.3 831.7 482.6 847.9 489.1 847.9 486.4 831.7 " class="k"/>
	<polygon points="474.1 831.7 476.2 847.9 482.6 847.9 480.3 831.7 " class="b"/>
	<polygon points="467.9 831.7 469.7 847.9 476.2 847.9 474.1 831.7 " class="k"/>
	<polygon points="462.3 831.7 463.2 847.9 469.7 847.9 467.9 831.7 " class="b"/>
	<polygon points="461.7 831.7 459.9 831.7 458.1 831.7 457.5 831.7 456.7 847.9 459.9 847.9 463.2 847.9 462.3 831.7 " class="k"/>
	<path d="M427.4 850.8c1.8 0 3.2-1.3 3.2-3h-6.5C424.2 849.5 425.6 850.8 427.4 850.8z" class="u"/>
	<path d="M433.9 850.8c1.8 0 3.2-1.3 3.2-3h-6.5C430.7 849.5 432.1 850.8 433.9 850.8z" class="a"/>
	<path d="M440.4 850.8c1.8 0 3.2-1.3 3.2-3h-6.5C437.2 849.5 438.6 850.8 440.4 850.8z" class="u"/>
	<path d="M446.9 850.8c1.8 0 3.2-1.3 3.2-3h-6.5C443.7 849.5 445.1 850.8 446.9 850.8z" class="a"/>
	<path d="M453.4 850.8c1.8 0 3.2-1.3 3.2-3h-6.5C450.2 849.5 451.6 850.8 453.4 850.8z" class="u"/>
	<path d="M459.9 850.8c1.8 0 3.2-1.3 3.2-3h-6.5C456.7 849.5 458.1 850.8 459.9 850.8z" class="a"/>
	<path d="M466.4 850.8c1.8 0 3.2-1.3 3.2-3h-6.5C463.2 849.5 464.6 850.8 466.4 850.8z" class="u"/>
	<path d="M472.9 850.8c1.8 0 3.2-1.3 3.2-3h-6.5C469.7 849.5 471.1 850.8 472.9 850.8z" class="a"/>
	<path d="M479.4 850.8c1.8 0 3.2-1.3 3.2-3h-6.5C476.2 849.5 477.6 850.8 479.4 850.8z" class="u"/>
	<path d="M485.9 850.8c1.8 0 3.2-1.3 3.2-3h-6.5C482.6 849.5 484.1 850.8 485.9 850.8z" class="a"/>
	<path d="M492.4 850.8c1.8 0 3.2-1.3 3.2-3h-6.5C489.1 849.5 490.6 850.8 492.4 850.8z" class="u"/>
	<rect x="427.2" y="826.4" width="65.4" height="3.1" class="i"/>
	<rect x="427.2" y="828.8" width="65.4" height="1.5" class="h"/>
	<rect x="435.6" y="819.5" width="1.5" height="7.7" class="i"/>
	<rect x="481.9" y="819.5" width="1.5" height="7.7" class="i"/>
	<rect x="436.4" y="823.1" width="0.8" height="3.3" class="h"/>
	<rect x="482.6" y="823.1" width="0.8" height="3.3" class="h"/>
	<rect x="432.3" y="811.7" width="54.7" height="12" fill="#FCFCFC"/>
	<path d="M485.8 812.8v9.8h-52.3v-9.8H485.8M487 811.7h-54.7v12H487V811.7L487 811.7z" class="h"/>
	<defs>
		<rect x="432.3" y="854.1" width="35.6" height="21.8"/>
	</defs>
	<g class="v">
		<rect x="432.3" y="854.1" width="35.6" height="21.8" class="h"/>
	</g>
	<path d="M468.8 876.7h-37.3v-23.3h37.3V876.7zM433.1 875.1h33.9v-20.2h-33.9V875.1z" class="w"/>
	<rect x="473.3" y="853.3" width="14.9" height="27.4" class="h"/>
	<defs>
		<rect x="473.3" y="853.3" width="14.9" height="27.4"/>
	</defs>
	<path d="M473.3 853.3v27.4h14.9v-27.4H473.3zM486.4 854.9v11.4h-6.2v-1h-3.8v1H475v-11.4H486.4zM475 879.2v-11.4h1.5v1h3.8v-1h6.2v11.4H475z" class="w"/>
	<rect x="433.6" y="813.9" width="52" height="7.8" class="g"/>
	<text transform="matrix(1.0964 0 0 1 436.6496 821.4697)" font-family="'Open Sans'" font-size="9.9917" class="i bold">  MARKET</text><rect x="382.4" y="762.2" width="148.9" height="21.8" class="g"/>
	<text transform="matrix(1 0 0 1 417.9719 772.4893)" font-family="'Open Sans'" font-size="13.5028" letter-spacing="1" class="b bold">  MERCADO</text><path d="M609.3 623.3l-1.5 1 -2.1-0.3 -4.7-6.7 4-2.8 4.7 6.7L609.3 623.3z" class="y"/>
	<path d="M614.2 627.8l-1 0.3 -1.6-2.4 -4.2-3.8 1.5-1.6 4.2 3.8L614.2 627.8z" class="n"/>
	<path d="M610.5 630.4l0.7-0.9 -1.7-2.3 -2.1-5.2 -2 0.8 2.1 5.2L610.5 630.4z" class="n"/>
	<path d="M599 605.9l-4.5-6.4 -3.9 3 8.4 12v2l-9.6-13.8c-0.2-0.2-0.1-0.6 0.1-0.8l4.8-3.7 0 0c0 0 0 0 0 0 0.3-0.2 0.6-0.1 0.8 0.1l3.9 5.6V605.9zM608 620.5c-0.3 0.4-0.6 0.8-1 1.1 -0.4 0.3-0.9 0.5-1.4 0.6 -1.3 0.3-2.7-0.1-3.6-1.5l-2.9-4.2v-2l3.8 5.5c0.7 1 1.6 1.2 2.5 1 0.3-0.1 0.7-0.2 1-0.4 0.3-0.2 0.5-0.5 0.7-0.8 0.5-0.7 0.6-1.7-0.1-2.7l-7.9-11.3v-2l8.8 12.6C608.8 618 608.7 619.4 608 620.5z" class="n"/>
	<path d="M607.4 616.9l-12.7-18.2 -4.8 3.7 12.5 18C604.7 623.7 609.7 620.2 607.4 616.9z" class="k"/>
	<path d="M570.3 627c-0.1-0.9 0.1-1.9 0.6-2.7l12.2-16.9v1.9l-11.3 15.6c-0.4 0.6-0.5 1.2-0.4 1.8 0.1 0.6 0.4 1.2 1 1.6l0 0c0.6 0.4 1.2 0.5 1.8 0.4 0.6-0.1 1.2-0.4 1.6-1l0 0 7.3-10.1v1.9l-6.4 8.8c0 0 0 0 0 0.1 -0.6 0.8-1.4 1.3-2.3 1.4 -0.9 0.1-1.9 0-2.7-0.6 0 0 0 0-0.1 0C570.9 628.7 570.4 627.9 570.3 627zM583.1 617.7l11.3-15.6c0.4-0.5 0.5-1.2 0.4-1.8 -0.1-0.6-0.4-1.2-1-1.6 0 0 0 0 0 0 -0.5-0.4-1.2-0.5-1.8-0.4 -0.6 0.1-1.2 0.4-1.6 1l0 0 -7.3 10.1v-1.9l6.4-8.8c0 0 0 0 0-0.1 0.6-0.8 1.4-1.3 2.3-1.4 0.9-0.1 1.9 0 2.7 0.6 0 0 0 0 0.1 0 0.8 0.6 1.3 1.4 1.4 2.3 0.1 0.9-0.1 1.9-0.6 2.7l-12.2 16.9V617.7z" class="n"/>
	<path d="M572.1 628.9L572.1 628.9c1.4 1 3.3 0.7 4.2-0.7l18.6-25.7c1-1.4 0.7-3.3-0.7-4.2l0 0c-1.4-1-3.3-0.7-4.2 0.7l-18.6 25.7C570.4 626 570.7 627.9 572.1 628.9z" class="k"/>
	<path d="M543.2 630.8l30.4 0.1c1.4 0 2.7-0.6 3.6-1.5 0.9-0.9 1.5-2.2 1.5-3.6v0 0h0v0c0 0 0 0 0-0.1 0-1.4-0.6-2.6-1.5-3.6 -0.9-0.9-2.2-1.5-3.6-1.5l-30.4-0.1v1.1l30.4 0.1c1.1 0 2.1 0.5 2.8 1.2 0.7 0.7 1.1 1.7 1.2 2.8 0 0 0 0 0 0v0h0c0 1.1-0.5 2.1-1.2 2.8 -0.7 0.7-1.7 1.2-2.8 1.2l-30.4-0.1V630.8z" class="n"/>
	<path d="M543.2 630.2l30.4 0.1c2.5 0 4.6-2 4.6-4.5v0c0-2.5-2-4.6-4.5-4.6l-30.4-0.1V630.2z" class="k"/>
	<circle cx="573.5" cy="625.9" r="2.3" class="n"/>
	<circle cx="592.2" cy="600.9" r="1.9" class="n"/>
	<circle cx="592.2" cy="600.9" r="0.6" class="b"/>
	<circle cx="573.5" cy="625.9" r="0.6" class="b"/>
	<rect x="561.2" y="547.8" width="101" height="39.4" class="g"/>
	<text transform="matrix(1 0 0 1 561.2111 558.0625)">
		<tspan x="0" y="0" font-family="'Open Sans'" font-size="13.5028" letter-spacing="1" class="b">  EM</tspan>
		<tspan x="0" y="16.2" font-family="'Open Sans'" font-size="13.5028" letter-spacing="1" class="b bold">  produção</tspan>
	</text>
	<path d="M686.7 650.2c-1.2-1-2.4-1.8-3.7-2.6l-1.1 1.9c-1.2-0.7-2.5-1.3-3.8-1.8l0.8-2.1c-1.4-0.5-2.9-0.9-4.4-1.2l-0.4 2.2c-1.3-0.2-2.7-0.4-4.1-0.4v-2.2c-1.5 0-3.1 0.1-4.5 0.4l0.4 2.2c-1.4 0.2-2.7 0.6-4 1.1l-0.8-2.1c-1.4 0.5-2.8 1.2-4.1 1.9l1.1 1.9c-1.2 0.7-2.3 1.5-3.4 2.4l-1.4-1.7c-1.2 1-2.2 2.1-3.2 3.2l1.7 1.4c-0.9 1.1-1.7 2.2-2.4 3.4l-1.9-1.1c-0.8 1.3-1.4 2.7-1.9 4.1l2.1 0.8c-0.5 1.3-0.8 2.6-1.1 4l-2.2-0.4c-0.3 1.5-0.4 3-0.4 4.5h2.2c0 1.4 0.1 2.8 0.4 4.1l-2.2 0.4c0.3 1.5 0.7 3 1.2 4.4l2.1-0.8c0.5 1.3 1.1 2.6 1.8 3.8l-1.9 1.1c0.8 1.3 1.6 2.6 2.6 3.7l1.7-1.4c0.9 1.1 1.9 2 2.9 2.9l-1.4 1.7c1.2 1 2.4 1.8 3.7 2.6l1.1-1.9c1.2 0.7 2.5 1.3 3.8 1.8l-0.8 2.1c1.4 0.5 2.9 0.9 4.4 1.2l0.4-2.2c1.3 0.2 2.7 0.4 4.1 0.4v2.2c1.5 0 3.1-0.1 4.5-0.4l-0.4-2.2c1.4-0.2 2.7-0.6 4-1.1l0.8 2.1c1.4-0.5 2.8-1.2 4.1-1.9l-1.1-1.9c1.2-0.7 2.3-1.5 3.4-2.4l1.4 1.7c1.2-1 2.2-2.1 3.2-3.2l-1.7-1.4c0.9-1.1 1.7-2.2 2.4-3.4l1.9 1.1c0.8-1.3 1.4-2.7 1.9-4.1l-2.1-0.8c0.5-1.3 0.8-2.6 1.1-4l2.2 0.4c0.3-1.5 0.4-3 0.4-4.5h-2.2c0-1.4-0.1-2.8-0.4-4.1l2.2-0.4c-0.3-1.5-0.7-3-1.2-4.4l-2.1 0.8c-0.5-1.3-1.1-2.6-1.8-3.8l1.9-1.1c-0.8-1.3-1.6-2.6-2.6-3.7l-1.7 1.4M654 670.2c0-8.8 7.1-15.8 15.8-15.8 8.8 0 15.8 7.1 15.8 15.8 0 8.8-7.1 15.8-15.8 15.8C661.1 686.1 654 679 654 670.2z" class="i"/>
	<path d="M630.4 641.9l-0.8 0.1c0.1 0.6 0.2 1.1 0.4 1.6l0.8-0.3c0.2 0.5 0.4 1 0.7 1.4l-0.7 0.4c0.3 0.5 0.6 0.9 1 1.4l0.6-0.5c0.3 0.4 0.7 0.8 1.1 1.1l-0.5 0.6c0.4 0.4 0.9 0.7 1.4 1l0.4-0.7c0.4 0.3 0.9 0.5 1.4 0.7l-0.3 0.8c0.5 0.2 1.1 0.3 1.6 0.4l0.1-0.8c0.5 0.1 1 0.1 1.5 0.1v0.8c0.6 0 1.1-0.1 1.7-0.1l-0.1-0.8c0.5-0.1 1-0.2 1.5-0.4l0.3 0.8c0.5-0.2 1-0.4 1.5-0.7l-0.4-0.7c0.4-0.3 0.9-0.6 1.3-0.9l0.5 0.6c0.4-0.4 0.8-0.8 1.2-1.2l-0.6-0.5c0.3-0.4 0.6-0.8 0.9-1.3l0.7 0.4c0.3-0.5 0.5-1 0.7-1.5l-0.8-0.3c0.2-0.5 0.3-1 0.4-1.5l0.8 0.1c0.1-0.5 0.1-1.1 0.1-1.7H648c0-0.5 0-1-0.1-1.5l0.8-0.1c-0.1-0.6-0.2-1.1-0.4-1.6l-0.8 0.3c-0.2-0.5-0.4-1-0.7-1.4l0.7-0.4c-0.3-0.5-0.6-0.9-1-1.4l-0.6 0.5c-0.3-0.4-0.7-0.8-1.1-1.1l0.5-0.6c-0.4-0.4-0.9-0.7-1.4-1l-0.4 0.7c-0.4-0.3-0.9-0.5-1.4-0.7l0.3-0.8c-0.5-0.2-1.1-0.3-1.6-0.4l-0.1 0.8c-0.5-0.1-1-0.1-1.5-0.1v-0.8c-0.6 0-1.1 0-1.7 0.1l0.1 0.8c-0.5 0.1-1 0.2-1.5 0.4l-0.3-0.8c-0.5 0.2-1 0.4-1.5 0.7l0.4 0.7c-0.4 0.3-0.9 0.6-1.3 0.9l-0.5-0.6c-0.4 0.4-0.8 0.8-1.2 1.2l0.6 0.5c-0.3 0.4-0.6 0.8-0.9 1.3l-0.7-0.4c-0.3 0.5-0.5 1-0.7 1.5l0.8 0.3c-0.2 0.5-0.3 1-0.4 1.5l-0.8-0.1c-0.1 0.5-0.1 1.1-0.1 1.7h0.8C630.3 640.9 630.4 641.5 630.4 641.9zM633.3 640.4c0-3.2 2.6-5.9 5.9-5.9 3.2 0 5.9 2.6 5.9 5.9s-2.6 5.9-5.9 5.9C635.9 646.3 633.3 643.7 633.3 640.4z" style="fill:#5686AA;opacity:0.7"/>
	<path d="M587.9 693.7h25c2.1 0 3.8 1.7 3.8 3.8v0c0 2.1-1.7 3.8-3.8 3.8h-25V693.7z" class="n"/>
	<path d="M587.9 693.1h25c1.2 0 2.3 0.5 3.1 1.3 0.8 0.8 1.3 1.9 1.3 3.1v0c0 1.2-0.5 2.3-1.3 3.1 -0.8 0.8-1.9 1.3-3.1 1.3h-25v-1.1h25c0.9 0 1.7-0.4 2.3-1 0.6-0.6 1-1.4 1-2.3v0c0-0.9-0.4-1.7-1-2.3 -0.6-0.6-1.4-1-2.3-1h-25V693.1z" class="b"/>
	<path d="M587.9 695.7c0.7 0.3 1.3 1 1.3 1.8 0 0.8-0.5 1.6-1.3 1.8V695.7z" class="q"/>
	<circle cx="593.6" cy="697.5" r="2" class="q"/>
	<circle cx="600" cy="697.5" r="2" class="q"/>
	<circle cx="606.5" cy="697.5" r="2" class="q"/>
	<circle cx="612.9" cy="697.5" r="2" class="q"/>
	<path d="M587.9 697h25.2c0.3 0 0.5 0.2 0.5 0.5v0c0 0.3-0.2 0.5-0.5 0.5h-25.2V697z" class="q"/>
	<circle cx="593.6" cy="697.5" r="0.6" class="b"/>
	<circle cx="600" cy="697.5" r="0.6" class="b"/>
	<circle cx="606.5" cy="697.5" r="0.6" class="b"/>
	<path d="M609.7 683.6c-0.8 0.1-1.6 0.4-2.4 0.6l-0.5-1.4c-0.9 0.3-1.7 0.7-2.5 1.2l0.7 1.3c-0.7 0.4-1.4 0.9-2.1 1.4l-0.9-1.1c-0.7 0.6-1.4 1.2-2 2l1.1 0.9c-0.5 0.6-1 1.3-1.4 2.1l-1.3-0.7c-0.5 0.8-0.9 1.6-1.2 2.5l1.4 0.5c-0.3 0.8-0.5 1.6-0.6 2.4l-1.4-0.3c-0.2 0.9-0.2 1.8-0.2 2.7l0 0h1.4c0 0.9 0.1 1.7 0.2 2.5l-1.4 0.3c0.2 0.9 0.4 1.8 0.7 2.7l1.4-0.5c0.3 0.8 0.6 1.6 1.1 2.3l-1.3 0.7c0.5 0.8 1 1.6 1.6 2.3l1.1-0.9c0.5 0.6 1.1 1.2 1.8 1.8l-0.9 1.1c0.7 0.6 1.5 1.1 2.3 1.6l0.7-1.3c0.7 0.4 1.5 0.8 2.3 1.1l-0.5 1.4c0.9 0.3 1.7 0.6 2.7 0.7l0.3-1.4c0.8 0.1 1.6 0.2 2.5 0.2v1.4c0.9 0 1.9-0.1 2.7-0.2l-0.3-1.4c0.8-0.1 1.6-0.4 2.4-0.6l0.5 1.4c0.9-0.3 1.7-0.7 2.5-1.2l-0.7-1.3c0.7-0.4 1.4-0.9 2.1-1.4l0.9 1.1c0.7-0.6 1.4-1.2 2-2l-1.1-0.9c0.5-0.6 1-1.3 1.4-2.1l1.3 0.7c0.5-0.8 0.9-1.6 1.2-2.5l-1.4-0.5c0.3-0.8 0.5-1.6 0.6-2.4l1.4 0.3c0.2-0.9 0.2-1.8 0.2-2.7l0 0h-1.4c0-0.9-0.1-1.7-0.2-2.5l1.4-0.3c-0.2-0.9-0.4-1.8-0.7-2.7l-1.4 0.5c-0.3-0.8-0.6-1.6-1.1-2.3l1.3-0.7c-0.5-0.8-1-1.6-1.6-2.3l-1.1 0.9c-0.5-0.6-1.1-1.2-1.8-1.8l0.9-1.1c-0.7-0.6-1.5-1.1-2.3-1.6l-0.7 1.3c-0.7-0.4-1.5-0.8-2.3-1.1l0.5-1.4c-0.9-0.3-1.7-0.6-2.7-0.7l-0.3 1.4c-0.8-0.1-1.6-0.2-2.5-0.2v-1.4c-0.9 0-1.9 0.1-2.7 0.2L609.7 683.6z" class="z"/>
	<path d="M609.5 682.1c0.9-0.2 1.8-0.2 2.7-0.2v1.4c0.9 0 1.7 0.1 2.5 0.2l0.3-1.4c0.9 0.2 1.8 0.4 2.7 0.7l-0.5 1.4c0.8 0.3 1.6 0.6 2.3 1.1l0.7-1.3c0.8 0.5 1.6 1 2.3 1.6l-0.9 1.1c0.6 0.5 1.2 1.1 1.8 1.8l1.1-0.9c0.6 0.7 1.1 1.5 1.6 2.3l-1.3 0.7c0.4 0.7 0.8 1.5 1.1 2.3l1.4-0.5c0.3 0.9 0.6 1.7 0.7 2.7l-1.4 0.3c0.1 0.8 0.2 1.6 0.2 2.5h1.4l0 0c0 0.9-0.1 1.9-0.2 2.7l-1.4-0.3c-0.1 0.8-0.4 1.6-0.6 2.4l1.4 0.5c-0.3 0.9-0.7 1.7-1.2 2.5l-1.3-0.7c-0.4 0.7-0.9 1.4-1.4 2.1l1.1 0.9c-0.6 0.7-1.2 1.4-2 2l-0.9-1.1c-0.6 0.5-1.3 1-2.1 1.4l0.7 1.3c-0.8 0.5-1.6 0.9-2.5 1.2l-0.5-1.4c-0.8 0.3-1.6 0.5-2.4 0.6l0.3 1.4c-0.9 0.2-1.8 0.2-2.7 0.2v-1.4c-0.9 0-1.7-0.1-2.5-0.2l-0.3 1.4c-0.9-0.2-1.8-0.4-2.7-0.7l0.5-1.4c-0.8-0.3-1.6-0.6-2.3-1.1l-0.7 1.3c-0.8-0.5-1.6-1-2.3-1.6l0.9-1.1c-0.6-0.5-1.2-1.1-1.8-1.8l-1.1 0.9c-0.6-0.7-1.1-1.5-1.6-2.3l1.3-0.7c-0.4-0.7-0.8-1.5-1.1-2.3l-1.4 0.5c-0.3-0.9-0.6-1.7-0.7-2.7l1.4-0.3c-0.1-0.8-0.2-1.6-0.2-2.5h-1.4l0 0c0-0.9 0.1-1.9 0.2-2.7l1.4 0.3c0.1-0.8 0.4-1.6 0.6-2.4l-1.4-0.5c0.3-0.9 0.7-1.7 1.2-2.5l1.3 0.7c0.4-0.7 0.9-1.4 1.4-2.1l-1.1-0.9c0.6-0.7 1.2-1.4 2-2l0.9 1.1c0.6-0.5 1.3-1 2.1-1.4l-0.7-1.3c0.8-0.5 1.6-0.9 2.5-1.2l0.5 1.4c0.8-0.3 1.6-0.5 2.4-0.6L609.5 682.1z" class="k"/>
	<path d="M587.9 658.3h41.4c2.1 0 3.8 1.7 3.8 3.8l0 0c0 2.1-1.7 3.8-3.8 3.8h-41.4V658.3z" class="n"/>
	<path d="M587.9 657.7h41.4c1.2 0 2.3 0.5 3.1 1.3s1.3 1.9 1.3 3.1l0 0c0 1.2-0.5 2.3-1.3 3.1 -0.8 0.8-1.9 1.3-3.1 1.3h-41.4v-1.1h41.4c0.9 0 1.7-0.4 2.3-1 0.6-0.6 1-1.4 1-2.3l0 0c0-0.9-0.4-1.7-1-2.3 -0.6-0.6-1.4-1-2.3-1h-41.4V657.7z" class="b"/>
	<circle cx="590.7" cy="662.1" r="2" class="q"/>
	<circle cx="597.2" cy="662.1" r="2" class="q"/>
	<circle cx="603.6" cy="662.1" r="2" class="q"/>
	<circle cx="610" cy="662.1" r="2" class="q"/>
	<circle cx="616.4" cy="662.1" r="2" class="q"/>
	<circle cx="622.8" cy="662.1" r="2" class="q"/>
	<circle cx="629.2" cy="662.1" r="2" class="q"/>
	<path d="M587.9 661.5h41.5c0.3 0 0.5 0.2 0.5 0.5l0 0c0 0.3-0.2 0.5-0.5 0.5h-41.5V661.5z" class="q"/>
	<circle cx="590.7" cy="662.1" r="0.6" class="b"/>
	<circle cx="597.2" cy="662.1" r="0.6" class="b"/>
	<circle cx="603.6" cy="662.1" r="0.6" class="b"/>
	<circle cx="610" cy="662.1" r="0.6" class="b"/>
	<circle cx="616.4" cy="662.1" r="0.6" class="b"/>
	<circle cx="622.8" cy="662.1" r="0.6" class="b"/>
	<circle cx="622.8" cy="662.1" r="0.6" class="b"/>
	<path d="M663.1 690.9l-31.8-31.8c-1.5-1.5-3.9-1.5-5.4 0v0c-1.5 1.5-1.5 3.9 0 5.4l31.8 31.8c1.5 1.5 3.9 1.5 5.4 0h0C664.6 694.8 664.6 692.3 663.1 690.9z" class="n"/>
	<path d="M644.5 673.1l-13.6-13.6c-0.6-0.6-1.5-0.9-2.3-0.9 -0.8 0-1.7 0.3-2.3 0.9v0c-0.6 0.6-0.9 1.5-0.9 2.3 0 0.8 0.3 1.7 0.9 2.3l18.2 18.2v1.6l-19-19c-0.8-0.8-1.3-2-1.3-3.1 0-1.1 0.4-2.2 1.3-3.1v0c0.8-0.8 2-1.3 3.1-1.3 1.1 0 2.2 0.4 3.1 1.3l12.8 12.8V673.1zM664.8 693.5c0 1.1-0.4 2.2-1.3 3.1l0 0c-0.8 0.8-2 1.3-3.1 1.3 -1.1 0-2.2-0.4-3.1-1.3l-12.8-12.8v-1.6l13.6 13.6c0.6 0.6 1.5 0.9 2.3 0.9 0.8 0 1.7-0.3 2.3-0.9l0 0c0.6-0.6 0.9-1.5 0.9-2.3 0-0.8-0.3-1.7-0.9-2.3l-18.2-18.2v-1.6l19 19C664.3 691.3 664.8 692.4 664.8 693.5z" class="b"/>
	<circle cx="660.4" cy="693.5" r="2" class="q"/>
	<circle cx="655.9" cy="689" r="2" class="q"/>
	<circle cx="651.3" cy="684.5" r="2" class="q"/>
	<circle cx="646.8" cy="679.9" r="2" class="q"/>
	<circle cx="642.2" cy="675.4" r="2" class="q"/>
	<circle cx="637.7" cy="670.8" r="2" class="q"/>
	<circle cx="633.2" cy="666.3" r="2" class="q"/>
	<circle cx="628.6" cy="661.8" r="2" class="q"/>
	<path d="M660.8 693.2l-31.9-31.9c-0.2-0.2-0.5-0.2-0.7 0l0 0c-0.2 0.2-0.2 0.5 0 0.7l31.9 31.9c0.2 0.2 0.5 0.2 0.7 0v0C661 693.8 661 693.4 660.8 693.2z" class="q"/>
	<circle cx="633.2" cy="666.3" r="0.6" class="b"/>
	<circle cx="637.7" cy="670.8" r="0.6" class="b"/>
	<circle cx="642.2" cy="675.4" r="0.6" class="b"/>
	<circle cx="646.8" cy="679.9" r="0.6" class="b"/>
	<circle cx="651.3" cy="684.5" r="0.6" class="b"/>
	<circle cx="655.9" cy="689" r="0.6" class="b"/>
	<circle cx="655.9" cy="689" r="0.6" class="b"/>
	<path d="M660.3 689.8h44.9c2.1 0 3.8 1.7 3.8 3.8l0 0c0 2.1-1.7 3.8-3.8 3.8h-44.9c-2.1 0-3.8-1.7-3.8-3.8l0 0C656.5 691.5 658.3 689.8 660.3 689.8z" class="n"/>
	<path d="M657.3 690.5c-0.8 0.8-1.3 1.9-1.3 3.1l0 0c0 1.2 0.5 2.3 1.3 3.1 0.8 0.8 1.9 1.3 3.1 1.3h22.5v-1.1h-22.5c-0.9 0-1.7-0.4-2.3-1 -0.6-0.6-1-1.4-1-2.3l0 0c0-0.9 0.4-1.7 1-2.3 0.6-0.6 1.4-1 2.3-1h22.5v-1.1h-22.5C659.1 689.2 658.1 689.7 657.3 690.5zM682.8 690.3h22.5c0.9 0 1.7 0.4 2.3 1 0.6 0.6 1 1.4 1 2.3l0 0c0 0.9-0.4 1.7-1 2.3 -0.6 0.6-1.4 1-2.3 1h-22.5v1.1h22.5c1.2 0 2.3-0.5 3.1-1.3 0.8-0.8 1.3-1.9 1.3-3.1l0 0c0-1.2-0.5-2.3-1.3-3.1 -0.8-0.8-1.9-1.3-3.1-1.3h-22.5V690.3z" class="b"/>
	<path d="M660.3 695.5c-1.1 0-2-0.9-2-2 0-1.1 0.9-2 2-2 1.1 0 2 0.9 2 2C662.3 694.6 661.4 695.5 660.3 695.5z" class="q"/>
	<path d="M666.8 695.5c-1.1 0-2-0.9-2-2 0-1.1 0.9-2 2-2s2 0.9 2 2C668.7 694.6 667.8 695.5 666.8 695.5z" class="q"/>
	<path d="M673.2 695.5c-1.1 0-2-0.9-2-2 0-1.1 0.9-2 2-2s2 0.9 2 2C675.1 694.6 674.3 695.5 673.2 695.5z" class="q"/>
	<path d="M679.6 695.5c-1.1 0-2-0.9-2-2 0-1.1 0.9-2 2-2s2 0.9 2 2C681.6 694.6 680.7 695.5 679.6 695.5z" class="q"/>
	<path d="M686 695.5c-1.1 0-2-0.9-2-2 0-1.1 0.9-2 2-2 1.1 0 2 0.9 2 2C688 694.6 687.1 695.5 686 695.5z" class="q"/>
	<path d="M692.4 695.5c-1.1 0-2-0.9-2-2 0-1.1 0.9-2 2-2 1.1 0 2 0.9 2 2C694.4 694.6 693.5 695.5 692.4 695.5z" class="q"/>
	<path d="M698.9 695.5c-1.1 0-2-0.9-2-2 0-1.1 0.9-2 2-2s2 0.9 2 2C700.8 694.6 699.9 695.5 698.9 695.5z" class="q"/>
	<path d="M705.3 695.5c-1.1 0-2-0.9-2-2 0-1.1 0.9-2 2-2s2 0.9 2 2C707.2 694.6 706.4 695.5 705.3 695.5z" class="q"/>
	<path d="M660.3 693h45.2c0.3 0 0.5 0.2 0.5 0.5l0 0c0 0.3-0.2 0.5-0.5 0.5h-45.2c-0.3 0-0.5-0.2-0.5-0.5l0 0C659.8 693.3 660 693 660.3 693z" class="q"/>
	<circle cx="666.8" cy="693.6" r="0.6" class="b"/>
	<circle cx="673.2" cy="693.6" r="0.6" class="b"/>
	<circle cx="679.6" cy="693.6" r="0.6" class="b"/>
	<circle cx="686" cy="693.6" r="0.6" class="b"/>
	<circle cx="692.4" cy="693.6" r="0.6" class="b"/>
	<circle cx="698.9" cy="693.6" r="0.6" class="b"/>
	<rect x="674" y="669.4" width="19.8" height="19.8" class="A"/>
	<rect x="682.1" y="669.4" width="3.6" height="19.8" class="B"/>
	<polygon points="688.9 689.2 688.9 686.7 689.7 686.7 688.5 684.5 687.2 686.7 688 686.7 688 689.2 " class="B"/>
	<polygon points="692 689.2 692 686.7 692.8 686.7 691.6 684.5 690.4 686.7 691.2 686.7 691.2 689.2 " class="B"/>
	<path d="M661.7 686.1c0.4 0.1 0.9 0.2 1.3 0.3l0.2-0.7c0.5 0.2 0.9 0.4 1.3 0.6l-0.4 0.6c0.4 0.2 0.7 0.5 1.1 0.8l0.5-0.5c0.4 0.3 0.7 0.6 1 1l-0.5 0.5c0.3 0.3 0.5 0.7 0.8 1.1l0.6-0.4c0.2 0.4 0.4 0.8 0.6 1.3l-0.7 0.2c0.1 0.4 0.3 0.8 0.3 1.3l0.7-0.1c0.1 0.5 0.1 0.9 0.1 1.4l0 0h-0.7c0 0.4 0 0.9-0.1 1.3l0.7 0.1c-0.1 0.5-0.2 0.9-0.4 1.4l-0.7-0.2c-0.2 0.4-0.3 0.8-0.6 1.2l0.6 0.4c-0.2 0.4-0.5 0.8-0.8 1.2l-0.5-0.5c-0.3 0.3-0.6 0.6-0.9 0.9l0.5 0.5c-0.4 0.3-0.8 0.6-1.2 0.8l-0.4-0.6c-0.4 0.2-0.8 0.4-1.2 0.6l0.2 0.7c-0.4 0.2-0.9 0.3-1.4 0.4l-0.1-0.7c-0.4 0.1-0.9 0.1-1.3 0.1v0.7c-0.5 0-1 0-1.4-0.1l0.1-0.7c-0.4-0.1-0.9-0.2-1.3-0.3l-0.2 0.7c-0.5-0.2-0.9-0.4-1.3-0.6l0.4-0.6c-0.4-0.2-0.7-0.5-1.1-0.8l-0.5 0.5c-0.4-0.3-0.7-0.6-1-1l0.5-0.5c-0.3-0.3-0.5-0.7-0.8-1.1l-0.6 0.4c-0.2-0.4-0.4-0.8-0.6-1.3l0.7-0.2c-0.1-0.4-0.3-0.8-0.3-1.3l-0.7 0.1c-0.1-0.5-0.1-0.9-0.1-1.4l0 0h0.7c0-0.4 0-0.9 0.1-1.3l-0.7-0.1c0.1-0.5 0.2-0.9 0.4-1.4l0.7 0.2c0.2-0.4 0.3-0.8 0.6-1.2l-0.6-0.4c0.2-0.4 0.5-0.8 0.8-1.2l0.5 0.5c0.3-0.3 0.6-0.6 0.9-0.9l-0.5-0.5c0.4-0.3 0.8-0.6 1.2-0.8l0.4 0.6c0.4-0.2 0.8-0.4 1.2-0.6l-0.2-0.7c0.4-0.2 0.9-0.3 1.4-0.4l0.1 0.7c0.4-0.1 0.9-0.1 1.3-0.1v-0.7c0.5 0 1 0 1.4 0.1L661.7 686.1z" class="z"/>
	<path d="M661.8 685.4c-0.5-0.1-0.9-0.1-1.4-0.1v0.7c-0.4 0-0.9 0-1.3 0.1l-0.1-0.7c-0.5 0.1-0.9 0.2-1.4 0.4l0.2 0.7c-0.4 0.2-0.8 0.3-1.2 0.6l-0.4-0.6c-0.4 0.2-0.8 0.5-1.2 0.8l0.5 0.5c-0.3 0.3-0.6 0.6-0.9 0.9l-0.5-0.5c-0.3 0.4-0.6 0.8-0.8 1.2l0.6 0.4c-0.2 0.4-0.4 0.8-0.6 1.2l-0.7-0.2c-0.2 0.4-0.3 0.9-0.4 1.4l0.7 0.1c-0.1 0.4-0.1 0.9-0.1 1.3h-0.7l0 0c0 0.5 0 1 0.1 1.4l0.7-0.1c0.1 0.4 0.2 0.9 0.3 1.3l-0.7 0.2c0.2 0.5 0.4 0.9 0.6 1.3l0.6-0.4c0.2 0.4 0.5 0.7 0.8 1.1l-0.5 0.5c0.3 0.4 0.6 0.7 1 1l0.5-0.5c0.3 0.3 0.7 0.5 1.1 0.8l-0.4 0.6c0.4 0.2 0.8 0.4 1.3 0.6l0.2-0.7c0.4 0.1 0.8 0.3 1.3 0.3l-0.1 0.7c0.5 0.1 0.9 0.1 1.4 0.1v-0.7c0.4 0 0.9 0 1.3-0.1l0.1 0.7c0.5-0.1 0.9-0.2 1.4-0.4l-0.2-0.7c0.4-0.2 0.8-0.3 1.2-0.6l0.4 0.6c0.4-0.2 0.8-0.5 1.2-0.8l-0.5-0.5c0.3-0.3 0.6-0.6 0.9-0.9l0.5 0.5c0.3-0.4 0.6-0.8 0.8-1.2l-0.6-0.4c0.2-0.4 0.4-0.8 0.6-1.2l0.7 0.2c0.2-0.4 0.3-0.9 0.4-1.4l-0.7-0.1c0.1-0.4 0.1-0.9 0.1-1.3h0.7l0 0c0-0.5 0-1-0.1-1.4l-0.7 0.1c-0.1-0.4-0.2-0.9-0.3-1.3l0.7-0.2c-0.2-0.5-0.4-0.9-0.6-1.3l-0.6 0.4c-0.2-0.4-0.5-0.7-0.8-1.1l0.5-0.5c-0.3-0.4-0.6-0.7-1-1l-0.5 0.5c-0.3-0.3-0.7-0.5-1.1-0.8l0.4-0.6c-0.4-0.2-0.8-0.4-1.3-0.6l-0.2 0.7c-0.4-0.1-0.8-0.3-1.3-0.3L661.8 685.4z" class="k"/>
	<rect x="600.3" y="637.9" width="19.8" height="19.8" class="A"/>
	<rect x="608.3" y="637.9" width="3.6" height="19.8" class="B"/>
	<polygon points="615.1 657.7 615.1 655.2 615.9 655.2 614.7 653 613.5 655.2 614.3 655.2 614.3 657.7 " class="B"/>
	<polygon points="618.2 657.7 618.2 655.2 619 655.2 617.8 653 616.6 655.2 617.4 655.2 617.4 657.7 " class="B"/>
	<path d="M719 689.8h14.2v7.6H719c-2.1 0-3.8-1.7-3.8-3.8l0 0C715.2 691.5 716.9 689.8 719 689.8z" class="n"/>
	<path d="M719 689.2h14.2v1.1H719c-0.9 0-1.7 0.4-2.3 1 -0.6 0.6-1 1.4-1 2.3l0 0c0 0.9 0.4 1.7 1 2.3 0.6 0.6 1.4 1 2.3 1h14.2v1.1H719c-1.2 0-2.3-0.5-3.1-1.3 -0.8-0.8-1.3-1.9-1.3-3.1l0 0c0-1.2 0.5-2.3 1.3-3.1C716.7 689.7 717.8 689.2 719 689.2z" class="b"/>
	<circle cx="719" cy="693.6" r="2" class="q"/>
	<circle cx="725.4" cy="693.6" r="2" class="q"/>
	<path d="M731.8 691.6c0.5 0 1 0.2 1.3 0.5v2.9c-0.3 0.3-0.8 0.5-1.3 0.5 -1.1 0-2-0.9-2-2C729.9 692.5 730.7 691.6 731.8 691.6z" class="q"/>
	<path d="M718.9 693h14.2v1h-14.2c-0.3 0-0.5-0.2-0.5-0.5l0 0C718.4 693.3 718.6 693 718.9 693z" class="q"/>
	<circle cx="725.4" cy="693.6" r="0.6" class="b"/>
	<circle cx="731.8" cy="693.6" r="0.6" class="b"/>
	<rect x="702.4" y="660.5" width="22.8" height="37.5" style="fill:none;stroke-linejoin:round;stroke:#D3EBEB"/>
	<path d="M725.2 660.5h-22.8v37.5h22.8V660.5z" class="k"/>
	<path d="M630.1 654.6c0.4 0.1 0.9 0.2 1.3 0.3l0.2-0.7c0.5 0.2 0.9 0.4 1.3 0.6l-0.4 0.6c0.4 0.2 0.7 0.5 1.1 0.8l0.5-0.5c0.4 0.3 0.7 0.6 1 1l-0.5 0.5c0.3 0.3 0.5 0.7 0.8 1.1l0.6-0.4c0.2 0.4 0.4 0.8 0.6 1.3l-0.7 0.2c0.1 0.4 0.3 0.8 0.3 1.3l0.7-0.1c0.1 0.5 0.1 0.9 0.1 1.4l0 0h-0.7c0 0.4 0 0.9-0.1 1.3l0.7 0.1c-0.1 0.5-0.2 0.9-0.4 1.4l-0.7-0.2c-0.2 0.4-0.3 0.8-0.6 1.2l0.6 0.4c-0.2 0.4-0.5 0.8-0.8 1.2l-0.5-0.5c-0.3 0.3-0.6 0.6-0.9 0.9l0.5 0.5c-0.4 0.3-0.8 0.6-1.2 0.8l-0.4-0.6c-0.4 0.2-0.8 0.4-1.2 0.6l0.2 0.7c-0.4 0.2-0.9 0.3-1.4 0.4l-0.1-0.7c-0.4 0.1-0.9 0.1-1.3 0.1v0.7c-0.5 0-1 0-1.4-0.1l0.1-0.7c-0.4-0.1-0.9-0.2-1.3-0.3l-0.2 0.7c-0.5-0.2-0.9-0.4-1.3-0.6l0.4-0.6c-0.4-0.2-0.7-0.5-1.1-0.8l-0.5 0.5c-0.4-0.3-0.7-0.6-1-1l0.5-0.5c-0.3-0.3-0.5-0.7-0.8-1.1l-0.6 0.4c-0.2-0.4-0.4-0.8-0.6-1.3l0.7-0.2c-0.1-0.4-0.3-0.8-0.3-1.3l-0.7 0.1c-0.1-0.5-0.1-0.9-0.1-1.4l0 0h0.7c0-0.4 0-0.9 0.1-1.3l-0.7-0.1c0.1-0.5 0.2-0.9 0.4-1.4l0.7 0.2c0.2-0.4 0.3-0.8 0.6-1.2l-0.6-0.4c0.2-0.4 0.5-0.8 0.8-1.2l0.5 0.5c0.3-0.3 0.6-0.6 0.9-0.9l-0.5-0.5c0.4-0.3 0.8-0.6 1.2-0.8l0.4 0.6c0.4-0.2 0.8-0.4 1.2-0.6l-0.2-0.7c0.4-0.2 0.9-0.3 1.4-0.4l0.1 0.7c0.4-0.1 0.9-0.1 1.3-0.1v-0.7c0.5 0 1 0 1.4 0.1L630.1 654.6z" class="z"/>
	<path d="M630.2 653.9c-0.5-0.1-0.9-0.1-1.4-0.1v0.7c-0.4 0-0.9 0-1.3 0.1l-0.1-0.7c-0.5 0.1-0.9 0.2-1.4 0.4l0.2 0.7c-0.4 0.2-0.8 0.3-1.2 0.6l-0.4-0.6c-0.4 0.2-0.8 0.5-1.2 0.8l0.5 0.5c-0.3 0.3-0.6 0.6-0.9 0.9l-0.5-0.5c-0.3 0.4-0.6 0.8-0.8 1.2l0.6 0.4c-0.2 0.4-0.4 0.8-0.6 1.2l-0.7-0.2c-0.2 0.4-0.3 0.9-0.4 1.4l0.7 0.1c-0.1 0.4-0.1 0.9-0.1 1.3h-0.7l0 0c0 0.5 0 1 0.1 1.4l0.7-0.1c0.1 0.4 0.2 0.9 0.3 1.3l-0.7 0.2c0.2 0.5 0.4 0.9 0.6 1.3l0.6-0.4c0.2 0.4 0.5 0.7 0.8 1.1l-0.5 0.5c0.3 0.4 0.6 0.7 1 1l0.5-0.5c0.3 0.3 0.7 0.5 1.1 0.8l-0.4 0.6c0.4 0.2 0.8 0.4 1.3 0.6l0.2-0.7c0.4 0.1 0.8 0.3 1.3 0.3l-0.1 0.7c0.5 0.1 0.9 0.1 1.4 0.1v-0.7c0.4 0 0.9 0 1.3-0.1l0.1 0.7c0.5-0.1 0.9-0.2 1.4-0.4l-0.2-0.7c0.4-0.2 0.8-0.3 1.2-0.6l0.4 0.6c0.4-0.2 0.8-0.5 1.2-0.8l-0.5-0.5c0.3-0.3 0.6-0.6 0.9-0.9l0.5 0.5c0.3-0.4 0.6-0.8 0.8-1.2l-0.6-0.4c0.2-0.4 0.4-0.8 0.6-1.2l0.7 0.2c0.2-0.4 0.3-0.9 0.4-1.4l-0.7-0.1c0.1-0.4 0.1-0.9 0.1-1.3h0.7l0 0c0-0.5 0-1-0.1-1.4l-0.7 0.1c-0.1-0.4-0.2-0.9-0.3-1.3l0.7-0.2c-0.2-0.5-0.4-0.9-0.6-1.3l-0.6 0.4c-0.2-0.4-0.5-0.7-0.8-1.1l0.5-0.5c-0.3-0.4-0.6-0.7-1-1l-0.5 0.5c-0.3-0.3-0.7-0.5-1.1-0.8l0.4-0.6c-0.4-0.2-0.8-0.4-1.3-0.6l-0.2 0.7c-0.4-0.1-0.8-0.3-1.3-0.3L630.2 653.9z" class="k"/>
	<line x1="632.8" y1="663.5" x2="618.8" y2="701.3" class="C"/>
	<line x1="625.3" y1="659.1" x2="607" y2="692.2" class="C"/>
	<circle cx="628.8" cy="662" r="4.9" class="n"/>
	<path d="M628.8 664c-1.1 0-2-0.9-2-2 0-1.1 0.9-2 2-2s2 0.9 2 2C630.7 663.1 629.8 664 628.8 664z" class="q"/>
	<circle cx="628.8" cy="662" r="0.6" class="b"/>
	<line x1="661" y1="697.7" x2="612.6" y2="705.1" class="C"/>
	<line x1="659.9" y1="689.2" x2="613.6" y2="690.2" class="C"/>
	<path d="M610.7 689.4c-0.5 0.1-1 0.2-1.4 0.4L609 689c-0.5 0.2-1 0.4-1.5 0.7l0.4 0.7c-0.4 0.2-0.8 0.5-1.2 0.8l-0.5-0.6c-0.4 0.3-0.8 0.7-1.1 1.1l0.6 0.5c-0.3 0.4-0.6 0.8-0.8 1.2l-0.7-0.4c-0.3 0.5-0.5 1-0.7 1.5l0.8 0.3c-0.2 0.5-0.3 0.9-0.4 1.4l-0.8-0.1c-0.1 0.5-0.1 1.1-0.1 1.6l0 0h0.8c0 0.5 0 1 0.1 1.5l-0.8 0.1c0.1 0.5 0.2 1.1 0.4 1.6l0.8-0.3c0.2 0.5 0.4 0.9 0.6 1.3l-0.7 0.4c0.3 0.5 0.6 0.9 0.9 1.3l0.6-0.5c0.3 0.4 0.7 0.7 1 1l-0.5 0.6c0.4 0.3 0.9 0.7 1.3 0.9l0.4-0.7c0.4 0.2 0.9 0.5 1.3 0.6l-0.3 0.8c0.5 0.2 1 0.3 1.6 0.4l0.1-0.8c0.5 0.1 1 0.1 1.5 0.1v0.8c0.5 0 1.1 0 1.6-0.1l-0.1-0.8c0.5-0.1 1-0.2 1.4-0.4l0.3 0.8c0.5-0.2 1-0.4 1.5-0.7l-0.4-0.7c0.4-0.2 0.8-0.5 1.2-0.8l0.5 0.6c0.4-0.3 0.8-0.7 1.1-1.1l-0.6-0.5c0.3-0.4 0.6-0.8 0.8-1.2l0.7 0.4c0.3-0.5 0.5-1 0.7-1.5l-0.8-0.3c0.2-0.5 0.3-0.9 0.4-1.4l0.8 0.1c0.1-0.5 0.1-1.1 0.1-1.6l0 0h-0.8c0-0.5 0-1-0.1-1.5l0.8-0.1c-0.1-0.5-0.2-1.1-0.4-1.6l-0.8 0.3c-0.2-0.5-0.4-0.9-0.6-1.3l0.7-0.4c-0.3-0.5-0.6-0.9-0.9-1.3l-0.6 0.5c-0.3-0.4-0.7-0.7-1-1l0.5-0.6c-0.4-0.3-0.9-0.7-1.3-0.9l-0.4 0.7c-0.4-0.2-0.9-0.5-1.3-0.6l0.3-0.8c-0.5-0.2-1-0.3-1.6-0.4l-0.1 0.8c-0.5-0.1-1-0.1-1.5-0.1v-0.8c-0.5 0-1.1 0-1.6 0.1L610.7 689.4z" class="n"/>
	<path d="M612.4 699.7c-1.1 0-2-0.9-2-2 0-1.1 0.9-2 2-2 1.1 0 2 0.9 2 2C614.3 698.8 613.5 699.7 612.4 699.7z" class="q"/>
	<circle cx="612.4" cy="697.7" r="0.6" class="b"/>
	<circle cx="720.3" cy="665.6" r="1.7" class="y"/>
	<circle cx="713.8" cy="665.6" r="1.7" class="i"/>
	<circle cx="707.4" cy="665.6" r="1.7" class="i"/>
	<rect x="643.1" y="656" transform="matrix(-0.7071 -0.7071 0.7071 -0.7071 643.7783 1598.455)" width="19.8" height="19.8" class="A"/>
	<rect x="651.1" y="656" transform="matrix(-0.7071 -0.7071 0.7071 -0.7071 643.7916 1598.4551)" width="3.6" height="19.8" class="B"/>
	<polygon points="649.4 676.4 651.2 674.7 651.7 675.2 652.4 672.8 650 673.5 650.6 674.1 648.8 675.8 " class="B"/>
	<polygon points="651.6 678.6 653.4 676.9 653.9 677.4 654.7 675 652.2 675.7 652.8 676.3 651 678 " class="B"/>
	<circle cx="660.3" cy="693.6" r="4.9" class="n"/>
	<path d="M660.3 695.5c-1.1 0-2-0.9-2-2 0-1.1 0.9-2 2-2 1.1 0 2 0.9 2 2C662.3 694.6 661.4 695.5 660.3 695.5z" class="q"/>
	<circle cx="660.3" cy="693.6" r="0.6" class="b"/>
	<path d="M301.3 48.8l-1 2.1 -0.8 0.1c0 0 0.2 0.9-1.1 1.7 -1.4 0.9-6.1 3.5-6.7 7.9 -0.5 4.4-2.3 16.2-2.3 19.8 0 3.6 0 7-0.9 10.5 -0.9 3.6-1.1 7-1.1 7s5.6 1.4 10.2 1.2c4.6-0.2 7.3 0.6 8.7 1.1 1.4 0.5 6.3 0.3 6.3 0.3s0.6-10.6 0.6-18.2c0-7.7 0.2-9-0.5-10.2 -0.7-1.2-2.4-5.5-2.5-6.3 -0.1-0.8-0.3-3.6-0.5-4.6 -0.2-1-1.4-4.5-1.8-5.2 -0.4-0.7 0-1.4 0-1.4S305.9 50.6 301.3 48.8L301.3 48.8z" class="i"/>
	<path d="M297.6 53.2c-1.9 1.2-5.4 3.6-5.8 7.3 -0.5 4.4-2.3 16.2-2.3 19.8 0 2.3 0 3.4-0.3 6.3v0c-0.1 1.4-0.3 7.1-0.2 7.4 0.1 0.3 1 0.2 2.2 0.3 1.3 0.1 4.1 0.1 4.2 0.1 0.1 0 0.7 0.4 0.7-0.9 0-1.2 1.1-9.6 0.9-12.7 -0.2-3.1 1.3-4.8 2-7.9 0.7-3.1 2.3-5.7 2.4-7.7 0.1-2 0.5-7.6-0.4-9.2C300.1 54.5 297.6 53.2 297.6 53.2L297.6 53.2z" class="h"/>
	<path d="M301.3 48.8l-1 2.1c0 0 3 1.3 5.5 6.3 2.6 4.9 3.8 6.9 4.3 8.5 -0.1-0.8-0.3-3.6-0.5-4.6 -0.2-1-1.4-4.5-1.8-5.2 -0.4-0.7 0-1.4 0-1.4S305.9 50.6 301.3 48.8L301.3 48.8z" class="q"/>
	<path d="M308.1 61.4c1.1 2.1 1.8 3.3 2.1 4.3 -0.1-0.8-0.3-3.6-0.5-4.6 -0.2-1-1.4-4.5-1.8-5.2 0-0.1-0.1-0.1-0.1-0.2 -0.4 0.3-0.8 0.6-0.8 0.9 0 0.6 0.1 1 0.4 1.1 0.3 0.1 0.6 0.1 0.6 0.5C307.9 58.6 308.1 59.8 308.1 61.4L308.1 61.4z" class="a"/>
	<path d="M301.3 48.8c0 0 0.1-0.3-0.2-0.4 -0.3-0.2-0.5 0.1-0.5-0.5 -0.1-0.6-0.2-1.8-0.4-2.3 -0.2-0.5-1.5-1.1-1.3-2.5 0.2-1.4-1.1-5.3-0.1-6.6 1-1.3 2.9-3.1 5-3.4 2.2-0.3 5.8-0.5 7.2 0.2 1.4 0.7 2.4 1.9 2.2 2.7 -0.2 0.9-0.9 1.3-0.9 1.3s1 1.4 1.1 2.4c0.1 1-0.5 1.4-0.5 2 -0.1 0.5 0 0.7 0.5 1.2 0.4 0.6 2.2 1.7 1.5 2.6 -0.7 0.8-1.6 0.2-1.6 1.3 0 1.1 0.1 3-0.9 3.9 -1 0.9-3.8-0.5-3.8 0.8 0 1.3-0.6 3-0.6 3S305.9 50.6 301.3 48.8L301.3 48.8z" class="p"/>
	<path d="M301.2 48.4c-0.3-0.2-0.5 0.1-0.5-0.5 -0.1-0.6-0.2-1.8-0.4-2.3 -0.2-0.5-1.5-1.1-1.3-2.5 0.2-1.4-1.1-5.3-0.1-6.6 1-1.3 2.9-3.1 5-3.4 2.2-0.3 5.8-0.5 7.2 0.2 1.4 0.7 2.4 1.9 2.2 2.7 -0.2 0.9-0.9 1.3-0.9 1.3 -1.4-0.9-2.7 0.1-2.4 1.3 0.3 1.2-0.8 1.3-0.6 3 0.2 1.7-0.7 2.3-1.3 1.9 -0.6-0.4-0.7-3.1-2.2-3.3 -1.5-0.2-1.5 0.9-1.9 1.9 -0.3 1-1.2 0.4-1.4 1.5 -0.3 1.1 0.2 4.6 0.1 4.8C302.4 48.6 301.2 48.4 301.2 48.4L301.2 48.4z" class="n"/>
	<path d="M295.4 94.4c-0.1 0.6-0.1 1.5-0.3 1.5 -0.2 0-2.6 0-3.7-0.1 -1.1 0-1.7 0-1.8-0.2 0-0.1-0.1-0.8-0.1-1.4 0.4 0 1 0 1.7 0C292.4 94.4 295.1 94.4 295.4 94.4L295.4 94.4z" class="D"/>
	<path d="M313.1 81.9c1 1.5 2.4 3.3 2.9 3.8 0.9 0.8 1.2 1.2 1 1.7 -0.2 0.4-2.5 3.2-4.1 4.1 0.1-3 0.2-6.3 0.2-9.2L313.1 81.9 313.1 81.9z" class="h"/>
	<path d="M317 87.4c0.4 0.3 1.1 1.1 1.2 1.2 0 0.2-1.2 1.6-2.1 2.3 -0.8 0.7-1.6 1.6-1.9 1.3 -0.2-0.2-0.6-0.8-0.8-1.1C314.9 90 316.7 87.9 317 87.4L317 87.4z" class="D"/>
	<path d="M309.7 102.7l9.2 17.7 25.2-13.1 -9.2-17.7 -9.1 4.7c0 0-2.7-3.8-6.3-1.8 -3.5 2-1.6 5.9-1.6 5.9s0 0 0 0L309.7 102.7 309.7 102.7zM319.1 97.8c0 0-2.1-3 0.7-4.6 2.9-1.7 4.8 1.8 4.8 1.8L319.1 97.8 319.1 97.8z" class="E"/>
	<path d="M317.9 89c0 0 1.8 0.4 3.6 1.9 1.8 1.5 1.4 2.7 0.3 3.3 -1 0.5-1.9 1.7-2.9 0.9 -1-0.9-1.4-1.4-1.7-2 -0.3-0.6-2.1-1.2-2.1-1.2 0.3-0.2 0.6-0.5 0.9-0.8C316.7 90.4 317.6 89.5 317.9 89L317.9 89z" class="p"/>
	<path d="M312.6 98c0.3 1 0.6 2.2 0.6 2.9 0.1 1.4 2.7 8.1 3.9 11.1 1.2 3 1.3 4.7 1.3 6.1 0 1.5 0.8 7.3 2 10.2 1.2 2.9 1.9 2.7 1.9 4.1 0 1.4 0.4 1.9 1.4 3.6 1 1.8 3.2 7 3.4 8 0.2 1-0.9 2.4-3.5 3.4 -2.6 1-4.9 0.4-4.9 0.4s-4.6-10.5-5.7-12.8c-1.2-2.3-4.2-8.8-5.5-11.2 -1.3-2.4-3.7-9-4.9-10.7 -1.2-1.7-4.4-6.9-5.7-9.8 -1-2.2-1.8-2.8-1.9-4.3 0.8 0.1 1.7 0.1 2.5 0 4.6-0.2 7.3 0.6 8.7 1.1 1.4 0.5 6.3 0.3 6.3 0.3S312.6 99.5 312.6 98L312.6 98z" class="n"/>
	<path d="M304.3 116.3c-0.9 2.6-2.5 6.7-4.1 9 -2.6 3.7-3.7 8.4-4.6 10.6 -0.9 2.2-1.9 2.5-2.2 4.3 -0.2 1.8-0.1 5.1-0.4 5.6 -0.2 0.5-1.9 1.8-4.8 2 -2.9 0.2-4.1-0.3-4.1-0.9 0-0.5 0.4-6 1-8 0.6-2 1.9-8.5 2.3-11.3 0.5-2.8 3.2-7.3 4-10.5 0.8-3.2 1.8-8 2.6-9.7 0.5-1.1 0.4-5.4 0.3-8.4 0.2 0 0.5 0 0.7 0.1 0.1 1.4 0.9 2.1 1.9 4.3 1.3 2.9 4.5 8.1 5.7 9.8C303.1 113.7 303.7 114.9 304.3 116.3L304.3 116.3z" fill="#4D4D4D"/>
	<path d="M319.9 148c0 0-0.3 1.1 0.1 2.3 0.3 1.2 1.4 2.7 1.4 2.7s3.1 0.3 4.3-0.9c1.2-1.2 3.7-0.3 5.1-0.6 1.4-0.3 6.7-1.5 7.7-3.1 1-1.7-0.9-1.6-3.3-1.5 -2.5 0-3.9-0.4-4.8-1 -0.9-0.6-3.2-1.6-3.2-1.6 0 1-1.1 2.3-3.5 3.2C322.2 148.1 320.8 148.1 319.9 148L319.9 148 319.9 148z" class="E"/>
	<path d="M294.5 95.9c0 0.9-0.1 3.2 0.3 4 0.5 0.9 0.7 2.3-0.2 2.6 -0.8 0.3-0.9 1.8-2.3 1.8 -1.4 0-2.3-1-2.7-1.7 -0.4-0.7-0.7-1.6-0.5-2.4 0.2-0.7 0.5-0.8 0.5-2.4 0-0.9 0.1-1.6 0.2-2 0.3 0 0.8 0 1.5 0.1C292.2 95.9 293.7 95.9 294.5 95.9L294.5 95.9z" class="p"/>
	<path d="M284.6 147.4c0 0-1 1.2-0.8 1.9 0.2 0.7 0.4 2.2 0.4 2.2s4.3 0.8 4.9 0.3c0.5-0.5 1.4-0.3 2.1 0.2 0.7 0.5 4.4 0.8 7.2 0.7 2.7-0.1 4.6-1 4.1-1.8 -0.5-0.8-2.9-0.4-5.4-1.7 -2.5-1.4-3.8-3.4-3.8-3.4 -0.2 0.5-1.9 1.8-4.8 2C286.3 148 285.1 147.8 284.6 147.4L284.6 147.4 284.6 147.4z" class="E"/>
	<line x1="166.8" y1="13.4" x2="253" y2="13.4" class="F"/>
	<polygon points="246.6 35.1 284.1 13.5 246.6 -8.2 " class="k"/>
	<rect x="178.4" y="8.3" width="114.6" height="21.2" class="g"/>
	<text transform="matrix(1 0 0 1 178.4133 18.5293)" font-family="'Open Sans'" font-size="13.5028" letter-spacing="1" class="b bold">INÍCIO</text>
	<line x1="362.2" y1="829.3" x2="198" y2="829.3" class="F"/>
	<polygon points="204.3 807.6 166.8 829.3 204.3 850.9 " class="k"/>
	<rect x="208.8" y="825.1" width="146.4" height="30.7" class="g"/>
	<text transform="matrix(1 0 0 1 208.8478 833.5967)">
		<tspan x="0" y="0" font-family="'Open Sans'" font-size="11.1595" letter-spacing="1" class="q">continue</tspan>
		<tspan x="68" y="0" font-family="'Open Sans'" font-size="11.1595" letter-spacing="1" class="b bold">inovando</tspan>
	</text>
</svg>